<svg id="CITIIES" xmlns="http://www.w3.org/2000/svg" viewBox="0 0 668.68 294.27"><defs><style>.cls-1,.cls-2,.cls-3{fill:none;stroke-linecap:round;stroke-linejoin:round;}.cls-1{stroke:#ff33b6;}.cls-1,.cls-2{stroke-width:0.75px;}.cls-2{stroke:#00ad21;}.cls-3{stroke:#fff;stroke-width:1.25px;opacity:0;}</style></defs><title>cities</title><path class="cls-1" d="M139,53.91c9-1.27,18.33,11.89,21.78,36.43s-9.29,52.44-9.29,52.44"/><path class="cls-1" d="M134.37,54.69C143.32,52.95,153.3,65.6,158,89.93s-6.54,52.85-6.54,52.85"/><path class="cls-1" d="M129.79,55.7c8.84-2.2,19.48,9.91,25.47,34s-3.76,53.12-3.76,53.12"/><path class="cls-1" d="M125.26,57c2.73-.84,5.71-.27,8.74,1.62,6.63,4.15,13.5,14.69,18.47,31,7.25,23.7-1,53.24-1,53.24"/><path class="cls-1" d="M120.8,58.45c8.56-3.12,20.41,7.82,28.88,31.1s1.81,53.22,1.81,53.22"/><path class="cls-1" d="M116.43,60.17c8.39-3.56,20.79,6.74,30.47,29.55s4.59,53.05,4.59,53.05"/><path class="cls-1" d="M112.16,62.12c8.19-4,21.11,5.64,32,27.92s7.36,52.74,7.36,52.74"/><path class="cls-1" d="M108,64.29c8-4.42,21.38,4.53,33.39,26.2s10.11,52.28,10.11,52.28"/><path class="cls-1" d="M103.94,66.67c7.73-4.83,21.59,3.4,34.72,24.42s12.84,51.68,12.84,51.68"/><path class="cls-1" d="M100,69.27C107.49,64,121.76,71.54,136,91.84s15.52,50.94,15.52,50.94"/><path class="cls-1" d="M96.25,72.06c7.18-5.61,21.82,1.13,37.08,20.66s18.17,50.06,18.17,50.06"/><path class="cls-1" d="M92.62,75.05c6.88-6,21.85,0,38.11,18.69s20.76,49,20.76,49"/><path class="cls-1" d="M89.16,78.22c6.56-6.33,21.82-1.16,39,16.67s23.3,47.88,23.3,47.88"/><path class="cls-1" d="M85.87,81.58c6.22-6.67,21.73-2.3,39.85,14.6s25.78,46.6,25.78,46.6"/><path class="cls-1" d="M82.75,85.09c5.86-7,21.58-3.43,40.56,12.5s28.18,45.19,28.18,45.19"/><path class="cls-1" d="M79.83,88.77c5.48-7.28,21.37-4.56,41.16,10.36s30.51,43.65,30.51,43.65"/><path class="cls-1" d="M77.1,92.6c5.1-7.56,21.1-5.67,41.65,8.19s32.75,42,32.75,42"/><path class="cls-1" d="M74.58,96.56c4.69-7.81,20.78-6.77,42,6s34.9,40.22,34.9,40.22"/><path class="cls-1" d="M72.26,100.65c4.28-8,20.4-7.84,42.28,3.79s37,38.34,37,38.34"/><path class="cls-1" d="M70.17,104.85c3.85-8.26,20-8.9,42.42,1.57s38.91,36.35,38.91,36.35"/><path class="cls-1" d="M68.29,109.16c3.41-8.45,19.46-9.93,42.44-.65s40.76,34.27,40.76,34.27"/><path class="cls-1" d="M66.65,113.56c3-8.62,18.92-10.94,42.35-2.87s42.5,32.09,42.5,32.09"/><path class="cls-1" d="M65.23,118c2.51-8.76,18.32-11.91,42.14-5.08s44.12,29.82,44.12,29.82"/><path class="cls-1" d="M64.06,122.59c2.05-8.88,17.67-12.86,41.82-7.28s45.62,27.47,45.62,27.47"/><path class="cls-1" d="M63.12,127.19c1.58-9,17-13.76,41.38-9.46s47,25,47,25"/><path class="cls-1" d="M62.43,131.84c1.11-9,16.23-14.63,40.83-11.61s48.24,22.55,48.24,22.55"/><path class="cls-1" d="M62,136.52c.64-9.09,15.44-15.46,40.16-13.73s49.36,20,49.36,20"/><path class="cls-1" d="M61.77,141.21c.16-9.11,14.61-16.25,39.39-15.82s50.34,17.38,50.34,17.38"/><path class="cls-1" d="M61.81,145.91c-.32-9.11,13.74-17,38.51-17.86s51.18,14.72,51.18,14.72"/><path class="cls-1" d="M62.1,150.6c-.79-9.08,12.83-17.69,37.52-19.85s51.88,12,51.88,12"/><path class="cls-1" d="M62.63,155.27c-1.27-9,11.89-18.33,36.43-21.78s52.44,9.29,52.44,9.29"/><path class="cls-1" d="M63.41,159.9C61.67,151,74.32,141,98.65,136.24s52.85,6.54,52.85,6.54"/><path class="cls-1" d="M64.42,164.49c-2.2-8.84,9.91-19.48,34-25.47s53.12,3.76,53.12,3.76"/><path class="cls-1" d="M65.68,169C63,160.3,74.55,149,98.25,141.8s53.24,1,53.24,1"/><path class="cls-1" d="M67.17,173.47c-3.12-8.56,7.82-20.41,31.1-28.88s53.22-1.81,53.22-1.81"/><path class="cls-1" d="M68.89,177.84c-3.56-8.39,6.74-20.79,29.55-30.47s53.05-4.59,53.05-4.59"/><path class="cls-1" d="M70.84,182.12c-4-8.19,5.64-21.11,27.92-32s52.74-7.36,52.74-7.36"/><path class="cls-1" d="M73,186.28c-4.42-8,4.53-21.38,26.2-33.39s52.28-10.11,52.28-10.11"/><path class="cls-1" d="M75.39,190.33c-4.83-7.73,3.41-21.59,24.42-34.72s51.68-12.84,51.68-12.84"/><path class="cls-1" d="M78,194.25c-5.23-7.47,2.27-21.73,22.57-35.95s50.94-15.52,50.94-15.52"/><path class="cls-1" d="M80.78,198c-5.61-7.18,1.13-21.82,20.66-37.08s50.06-18.17,50.06-18.17"/><path class="cls-1" d="M83.77,201.65c-6-6.88,0-21.85,18.69-38.11s49-20.76,49-20.76"/><path class="cls-1" d="M86.94,205.11c-6.33-6.56-1.16-21.82,16.67-39s47.88-23.3,47.88-23.3"/><path class="cls-1" d="M90.29,208.41c-6.67-6.22-2.3-21.73,14.6-39.85s46.6-25.78,46.6-25.78"/><path class="cls-1" d="M93.81,211.52c-7-5.86-3.43-21.58,12.5-40.56s45.19-28.18,45.19-28.18"/><path class="cls-1" d="M97.49,214.44c-7.28-5.48-4.56-21.37,10.36-41.16s43.65-30.51,43.65-30.51"/><path class="cls-1" d="M101.32,217.17c-7.56-5.1-5.67-21.1,8.19-41.65s42-32.75,42-32.75"/><path class="cls-1" d="M105.28,219.7c-7.81-4.69-6.77-20.78,6-42s40.22-34.9,40.22-34.9"/><path class="cls-1" d="M109.37,222c-8-4.28-7.84-20.4,3.79-42.28s38.34-37,38.34-37"/><path class="cls-1" d="M113.57,224.11c-8.26-3.85-8.9-20,1.57-42.42s36.35-38.91,36.35-38.91"/><path class="cls-1" d="M117.88,226c-8.45-3.41-9.93-19.46-.65-42.44s34.27-40.76,34.27-40.76"/><path class="cls-1" d="M122.28,227.63c-8.62-3-10.94-18.92-2.87-42.35s32.09-42.5,32.09-42.5"/><path class="cls-1" d="M126.76,229c-8.76-2.51-11.91-18.32-5.08-42.14s29.82-44.12,29.82-44.12"/><path class="cls-1" d="M131.31,230.22c-8.88-2.05-12.86-17.67-7.28-41.82s27.47-45.62,27.47-45.62"/><path class="cls-1" d="M135.91,231.15c-9-1.58-13.76-17-9.46-41.38s25-47,25-47"/><path class="cls-1" d="M140.56,231.85c-9-1.11-14.63-16.23-11.61-40.83s22.55-48.24,22.55-48.24"/><path class="cls-1" d="M145.24,232.3c-9.09-.64-15.46-15.44-13.73-40.16s20-49.36,20-49.36"/><path class="cls-1" d="M149.93,232.5c-9.11-.16-16.25-14.61-15.82-39.39s17.38-50.34,17.38-50.34"/><path class="cls-1" d="M154.63,232.46c-9.11.32-17-13.74-17.86-38.51s14.72-51.18,14.72-51.18"/><path class="cls-1" d="M159.32,232.17c-9.08.79-17.69-12.83-19.85-37.52s12-51.88,12-51.88"/><path class="cls-1" d="M164,231.64c-9,1.27-18.33-11.89-21.78-36.43s9.29-52.44,9.29-52.44"/><path class="cls-1" d="M168.62,230.87c-8.95,1.74-18.93-10.91-23.66-35.24s6.54-52.85,6.54-52.85"/><path class="cls-1" d="M173.21,229.85c-8.84,2.2-19.48-9.91-25.47-34s3.76-53.12,3.76-53.12"/><path class="cls-1" d="M177.73,228.59c-8.72,2.66-20-8.88-27.21-32.57s1-53.24,1-53.24"/><path class="cls-1" d="M182.19,227.1c-8.56,3.12-20.41-7.82-28.88-31.1s-1.81-53.22-1.81-53.22"/><path class="cls-1" d="M186.56,225.38c-8.39,3.56-20.79-6.74-30.47-29.55s-4.59-53.05-4.59-53.05"/><path class="cls-1" d="M190.83,223.43c-8.19,4-21.11-5.64-32-27.92s-7.36-52.74-7.36-52.74"/><path class="cls-1" d="M195,221.26c-8,4.42-21.38-4.53-33.39-26.2s-10.11-52.28-10.11-52.28"/><path class="cls-1" d="M199.05,218.88c-7.73,4.83-21.59-3.4-34.72-24.42s-12.84-51.68-12.84-51.68"/><path class="cls-1" d="M203,216.29c-7.47,5.23-21.73-2.27-35.95-22.57s-15.52-50.94-15.52-50.94"/><path class="cls-1" d="M206.74,213.49c-7.18,5.61-21.82-1.13-37.08-20.66s-18.17-50.06-18.17-50.06"/><path class="cls-1" d="M210.37,210.5c-6.88,6-21.85,0-38.11-18.69s-20.76-49-20.76-49"/><path class="cls-1" d="M213.83,207.33c-6.56,6.33-21.82,1.16-39-16.67s-23.3-47.88-23.3-47.88"/><path class="cls-1" d="M217.13,204c-6.22,6.67-21.73,2.3-39.85-14.6s-25.78-46.6-25.78-46.6"/><path class="cls-1" d="M220.24,200.46c-5.86,7-21.58,3.43-40.56-12.5s-28.18-45.19-28.18-45.19"/><path class="cls-1" d="M223.16,196.78c-5.48,7.28-21.37,4.56-41.16-10.36s-30.51-43.65-30.51-43.65"/><path class="cls-1" d="M225.89,193c-5.1,7.56-21.1,5.67-41.65-8.19s-32.75-42-32.75-42"/><path class="cls-1" d="M228.42,189c-4.69,7.81-20.78,6.77-42-6s-34.9-40.22-34.9-40.22"/><path class="cls-1" d="M230.73,184.91c-4.28,8-20.4,7.84-42.28-3.79s-37-38.34-37-38.34"/><path class="cls-1" d="M232.83,180.7c-3.85,8.26-20,8.9-42.42-1.57s-38.91-36.35-38.91-36.35"/><path class="cls-1" d="M234.7,176.39c-3.41,8.45-19.46,9.93-42.44.65s-40.76-34.27-40.76-34.27"/><path class="cls-1" d="M236.35,172c-3,8.62-18.92,10.94-42.35,2.87s-42.5-32.09-42.5-32.09"/><path class="cls-1" d="M237.76,167.51c-2.51,8.76-18.32,11.91-42.14,5.08s-44.12-29.82-44.12-29.82"/><path class="cls-1" d="M238.93,163c-2.05,8.88-17.67,12.86-41.82,7.28s-45.62-27.47-45.62-27.47"/><path class="cls-1" d="M239.87,158.36c-1.58,9-17,13.76-41.38,9.46s-47-25-47-25"/><path class="cls-1" d="M240.57,153.71c-1.11,9-16.23,14.63-40.83,11.61s-48.24-22.55-48.24-22.55"/><path class="cls-1" d="M241,149c-.64,9.09-15.44,15.46-40.16,13.73s-49.36-20-49.36-20"/><path class="cls-1" d="M241.22,144.34c-.16,9.11-14.61,16.25-39.39,15.82s-50.34-17.38-50.34-17.38"/><path class="cls-1" d="M241.18,139.64c.32,9.11-13.74,17-38.51,17.86s-51.18-14.72-51.18-14.72"/><path class="cls-1" d="M240.89,135c.79,9.08-12.83,17.69-37.52,19.85s-51.88-12-51.88-12"/><path class="cls-1" d="M240.36,130.29c1.27,9-11.89,18.33-36.43,21.78s-52.44-9.29-52.44-9.29"/><path class="cls-1" d="M239.59,125.65c1.74,8.95-10.91,18.93-35.24,23.66s-52.85-6.54-52.85-6.54"/><path class="cls-1" d="M238.57,121.07c2.2,8.84-9.91,19.48-34,25.47s-53.12-3.76-53.12-3.76"/><path class="cls-1" d="M237.31,116.54c2.66,8.72-8.88,20-32.57,27.21s-53.24-1-53.24-1"/><path class="cls-1" d="M235.82,112.08c3.12,8.56-7.82,20.41-31.1,28.88s-53.22,1.81-53.22,1.81"/><path class="cls-1" d="M234.1,107.71c3.56,8.39-6.74,20.79-29.55,30.47s-53.05,4.59-53.05,4.59"/><path class="cls-1" d="M232.15,103.44c4,8.19-5.64,21.11-27.92,32s-52.74,7.36-52.74,7.36"/><path class="cls-1" d="M230,99.27c4.42,8-4.53,21.38-26.2,33.39s-52.28,10.11-52.28,10.11"/><path class="cls-1" d="M227.6,95.22c4.83,7.73-3.4,21.59-24.42,34.72s-51.68,12.84-51.68,12.84"/><path class="cls-1" d="M225,91.3c5.23,7.47-2.27,21.73-22.57,35.95s-50.94,15.52-50.94,15.52"/><path class="cls-1" d="M222.21,87.53c5.61,7.18-1.13,21.82-20.66,37.08s-50.06,18.17-50.06,18.17"/><path class="cls-1" d="M219.22,83.9c6,6.88,0,21.85-18.69,38.11s-49,20.76-49,20.76"/><path class="cls-1" d="M216,80.44c6.33,6.56,1.16,21.82-16.67,39s-47.88,23.3-47.88,23.3"/><path class="cls-1" d="M212.7,77.15c6.66,6.22,2.3,21.73-14.6,39.85s-46.6,25.78-46.6,25.78"/><path class="cls-1" d="M209.18,74c7,5.86,3.43,21.58-12.5,40.56s-45.19,28.18-45.19,28.18"/><path class="cls-1" d="M205.5,71.11c7.28,5.48,4.56,21.37-10.36,41.16s-43.65,30.51-43.65,30.51"/><path class="cls-1" d="M201.68,68.38c7.56,5.1,5.67,21.1-8.19,41.65s-42,32.75-42,32.75"/><path class="cls-1" d="M197.71,65.86c7.81,4.69,6.77,20.78-6,42s-40.22,34.9-40.22,34.9"/><path class="cls-1" d="M193.63,63.54c8,4.28,7.84,20.4-3.79,42.28s-38.34,37-38.34,37"/><path class="cls-1" d="M189.42,61.45c8.26,3.85,8.9,20-1.57,42.42s-36.35,38.91-36.35,38.91"/><path class="cls-1" d="M185.11,59.57C193.56,63,195,79,185.76,102s-34.27,40.76-34.27,40.76"/><path class="cls-1" d="M180.71,57.93c8.62,3,10.94,18.92,2.87,42.35s-32.09,42.5-32.09,42.5"/><path class="cls-1" d="M176.23,56.51C185,59,188.14,74.83,181.31,98.66s-29.82,44.12-29.82,44.12"/><path class="cls-1" d="M171.68,55.34c8.88,2,12.86,17.67,7.28,41.82s-27.47,45.62-27.47,45.62"/><path class="cls-1" d="M167.08,54.4c9,1.58,13.76,17,9.46,41.38s-25,47-25,47"/><path class="cls-1" d="M162.43,53.71c9,1.11,14.63,16.23,11.61,40.83s-22.55,48.24-22.55,48.24"/><path class="cls-1" d="M157.76,53.26c9.09.64,15.46,15.44,13.73,40.16s-20,49.36-20,49.36"/><path class="cls-1" d="M153.06,53.05c9.11.16,16.25,14.61,15.82,39.39s-17.38,50.34-17.38,50.34"/><path class="cls-1" d="M148.36,53.09c9.11-.32,17,13.74,17.86,38.51s-14.72,51.18-14.72,51.18"/><path class="cls-1" d="M143.67,53.38c9.08-.79,17.69,12.83,19.85,37.52s-12,51.88-12,51.88"/><path class="cls-2" d="M489,53.91c9-1.27,18.33,11.89,21.78,36.43s-9.29,52.44-9.29,52.44"/><path class="cls-2" d="M484.37,54.69C493.32,52.95,503.3,65.6,508,89.93s-6.54,52.85-6.54,52.85"/><path class="cls-2" d="M479.79,55.7c8.84-2.2,19.48,9.91,25.47,34s-3.76,53.12-3.76,53.12"/><path class="cls-2" d="M475.26,57c2.73-.84,5.71-.27,8.74,1.62,6.63,4.15,13.5,14.69,18.47,31,7.25,23.7-1,53.24-1,53.24"/><path class="cls-2" d="M470.8,58.45c8.56-3.12,20.41,7.82,28.88,31.1s1.81,53.22,1.81,53.22"/><path class="cls-2" d="M466.43,60.17c8.39-3.56,20.79,6.74,30.47,29.55s4.59,53.05,4.59,53.05"/><path class="cls-2" d="M462.16,62.12c8.19-4,21.11,5.64,32,27.92s7.36,52.74,7.36,52.74"/><path class="cls-2" d="M458,64.29c8-4.42,21.38,4.53,33.39,26.2s10.11,52.28,10.11,52.28"/><path class="cls-2" d="M453.94,66.67c7.73-4.83,21.59,3.4,34.72,24.42s12.84,51.68,12.84,51.68"/><path class="cls-2" d="M450,69.27C457.49,64,471.76,71.54,486,91.84s15.52,50.94,15.52,50.94"/><path class="cls-2" d="M446.25,72.06c7.18-5.61,21.82,1.13,37.08,20.66s18.17,50.06,18.17,50.06"/><path class="cls-2" d="M442.62,75.05c6.88-6,21.85,0,38.11,18.69s20.76,49,20.76,49"/><path class="cls-2" d="M439.16,78.22c6.56-6.33,21.82-1.16,39,16.67s23.3,47.88,23.3,47.88"/><path class="cls-2" d="M435.87,81.58c6.22-6.67,21.73-2.3,39.85,14.6s25.78,46.6,25.78,46.6"/><path class="cls-2" d="M432.75,85.09c5.86-7,21.58-3.43,40.56,12.5s28.18,45.19,28.18,45.19"/><path class="cls-2" d="M429.83,88.77c5.48-7.28,21.37-4.56,41.16,10.36s30.51,43.65,30.51,43.65"/><path class="cls-2" d="M427.1,92.6c5.1-7.56,21.1-5.67,41.65,8.19s32.75,42,32.75,42"/><path class="cls-2" d="M424.58,96.56c4.69-7.81,20.78-6.77,42,6s34.9,40.22,34.9,40.22"/><path class="cls-2" d="M422.26,100.65c4.28-8,20.4-7.84,42.28,3.79s37,38.34,37,38.34"/><path class="cls-2" d="M420.17,104.85c3.85-8.26,20-8.9,42.42,1.57s38.91,36.35,38.91,36.35"/><path class="cls-2" d="M418.29,109.16c3.41-8.45,19.46-9.93,42.44-.65s40.76,34.27,40.76,34.27"/><path class="cls-2" d="M416.65,113.56c3-8.62,18.92-10.94,42.35-2.87s42.5,32.09,42.5,32.09"/><path class="cls-2" d="M415.23,118c2.51-8.76,18.32-11.91,42.14-5.08s44.12,29.82,44.12,29.82"/><path class="cls-2" d="M414.06,122.59c2.05-8.88,17.67-12.86,41.82-7.28s45.62,27.47,45.62,27.47"/><path class="cls-2" d="M413.12,127.19c1.58-9,17-13.76,41.38-9.46s47,25,47,25"/><path class="cls-2" d="M412.43,131.84c1.11-9,16.23-14.63,40.83-11.61s48.24,22.55,48.24,22.55"/><path class="cls-2" d="M412,136.52c.64-9.09,15.44-15.46,40.16-13.73s49.36,20,49.36,20"/><path class="cls-2" d="M411.77,141.21c.16-9.11,14.61-16.25,39.39-15.82s50.34,17.38,50.34,17.38"/><path class="cls-2" d="M411.81,145.91c-.32-9.11,13.74-17,38.51-17.86s51.18,14.72,51.18,14.72"/><path class="cls-2" d="M412.1,150.6c-.79-9.08,12.83-17.69,37.52-19.85s51.88,12,51.88,12"/><path class="cls-2" d="M412.63,155.27c-1.27-9,11.89-18.33,36.43-21.78s52.44,9.29,52.44,9.29"/><path class="cls-2" d="M413.41,159.9c-1.74-8.95,10.91-18.93,35.24-23.66s52.85,6.54,52.85,6.54"/><path class="cls-2" d="M414.42,164.49c-2.2-8.84,9.91-19.48,34-25.47s53.12,3.76,53.12,3.76"/><path class="cls-2" d="M415.68,169c-2.66-8.72,8.88-20,32.57-27.21s53.24,1,53.24,1"/><path class="cls-2" d="M417.17,173.47c-3.12-8.56,7.82-20.41,31.1-28.88s53.22-1.81,53.22-1.81"/><path class="cls-2" d="M418.89,177.84c-3.56-8.39,6.74-20.79,29.55-30.47s53.05-4.59,53.05-4.59"/><path class="cls-2" d="M420.84,182.12c-4-8.19,5.64-21.11,27.92-32s52.74-7.36,52.74-7.36"/><path class="cls-2" d="M423,186.28c-4.42-8,4.53-21.38,26.2-33.39s52.28-10.11,52.28-10.11"/><path class="cls-2" d="M425.39,190.33c-4.83-7.73,3.41-21.59,24.42-34.72s51.68-12.84,51.68-12.84"/><path class="cls-2" d="M428,194.25c-5.23-7.47,2.27-21.73,22.57-35.95s50.94-15.52,50.94-15.52"/><path class="cls-2" d="M430.78,198c-5.61-7.18,1.13-21.82,20.66-37.08s50.06-18.17,50.06-18.17"/><path class="cls-2" d="M433.77,201.65c-6-6.88,0-21.85,18.69-38.11s49-20.76,49-20.76"/><path class="cls-2" d="M436.94,205.11c-6.33-6.56-1.16-21.82,16.67-39s47.88-23.3,47.88-23.3"/><path class="cls-2" d="M440.29,208.41c-6.67-6.22-2.3-21.73,14.6-39.85s46.6-25.78,46.6-25.78"/><path class="cls-2" d="M443.81,211.52c-7-5.86-3.43-21.58,12.5-40.56s45.19-28.18,45.19-28.18"/><path class="cls-2" d="M447.49,214.45c-7.28-5.48-4.56-21.37,10.36-41.16s43.65-30.51,43.65-30.51"/><path class="cls-2" d="M451.32,217.17c-7.56-5.1-5.67-21.1,8.19-41.65s42-32.75,42-32.75"/><path class="cls-2" d="M455.28,219.7c-7.81-4.69-6.77-20.78,6-42s40.22-34.9,40.22-34.9"/><path class="cls-2" d="M459.37,222c-8-4.28-7.84-20.4,3.79-42.28s38.34-37,38.34-37"/><path class="cls-2" d="M463.57,224.11c-8.26-3.85-8.9-20,1.57-42.42s36.35-38.91,36.35-38.91"/><path class="cls-2" d="M467.88,226c-8.45-3.41-9.93-19.46-.65-42.44s34.27-40.76,34.27-40.76"/><path class="cls-2" d="M472.28,227.63c-8.62-3-10.94-18.92-2.87-42.35s32.09-42.5,32.09-42.5"/><path class="cls-2" d="M476.76,229c-8.76-2.51-11.91-18.32-5.08-42.14s29.82-44.12,29.82-44.12"/><path class="cls-2" d="M481.31,230.22c-8.88-2.05-12.86-17.67-7.28-41.82s27.47-45.62,27.47-45.62"/><path class="cls-2" d="M485.91,231.15c-9-1.58-13.76-17-9.46-41.38s25-47,25-47"/><path class="cls-2" d="M490.56,231.85c-9-1.11-14.63-16.23-11.61-40.83s22.55-48.24,22.55-48.24"/><path class="cls-2" d="M495.24,232.3c-9.09-.64-15.46-15.44-13.73-40.16s20-49.36,20-49.36"/><path class="cls-2" d="M499.93,232.5c-9.11-.16-16.25-14.61-15.82-39.39s17.38-50.34,17.38-50.34"/><path class="cls-2" d="M504.63,232.46c-9.11.32-17-13.74-17.86-38.51s14.72-51.18,14.72-51.18"/><path class="cls-2" d="M509.32,232.17c-9.08.79-17.69-12.83-19.85-37.52s12-51.88,12-51.88"/><path class="cls-2" d="M514,231.64c-9,1.27-18.33-11.89-21.78-36.43s9.29-52.44,9.29-52.44"/><path class="cls-2" d="M518.62,230.87c-8.95,1.74-18.93-10.91-23.66-35.24s6.54-52.85,6.54-52.85"/><path class="cls-2" d="M523.21,229.85c-8.84,2.2-19.48-9.91-25.47-34s3.76-53.12,3.76-53.12"/><path class="cls-2" d="M527.73,228.59c-8.72,2.66-20-8.88-27.21-32.57s1-53.24,1-53.24"/><path class="cls-2" d="M532.19,227.1c-8.56,3.12-20.41-7.82-28.88-31.1s-1.81-53.22-1.81-53.22"/><path class="cls-2" d="M536.56,225.38c-8.39,3.56-20.79-6.74-30.47-29.55s-4.59-53.05-4.59-53.05"/><path class="cls-2" d="M540.83,223.43c-8.19,4-21.11-5.64-32-27.92s-7.36-52.74-7.36-52.74"/><path class="cls-2" d="M545,221.26c-8,4.42-21.38-4.53-33.39-26.2s-10.11-52.28-10.11-52.28"/><path class="cls-2" d="M549.05,218.88c-7.73,4.83-21.59-3.4-34.72-24.42s-12.84-51.68-12.84-51.68"/><path class="cls-2" d="M553,216.29c-7.47,5.23-21.73-2.27-35.95-22.57s-15.52-50.94-15.52-50.94"/><path class="cls-2" d="M556.74,213.49c-7.18,5.61-21.82-1.13-37.08-20.66s-18.17-50.06-18.17-50.06"/><path class="cls-2" d="M560.37,210.5c-6.88,6-21.85,0-38.11-18.69s-20.76-49-20.76-49"/><path class="cls-2" d="M563.83,207.33c-6.56,6.33-21.82,1.16-39-16.67s-23.3-47.88-23.3-47.88"/><path class="cls-2" d="M567.13,204c-6.22,6.67-21.73,2.3-39.85-14.6s-25.78-46.6-25.78-46.6"/><path class="cls-2" d="M570.24,200.46c-5.86,7-21.58,3.43-40.56-12.5s-28.18-45.19-28.18-45.19"/><path class="cls-2" d="M573.16,196.78c-5.48,7.28-21.37,4.56-41.16-10.36s-30.51-43.65-30.51-43.65"/><path class="cls-2" d="M575.89,193c-5.1,7.56-21.1,5.67-41.65-8.19s-32.75-42-32.75-42"/><path class="cls-2" d="M578.42,189c-4.69,7.81-20.78,6.77-42-6s-34.9-40.22-34.9-40.22"/><path class="cls-2" d="M580.73,184.91c-4.28,8-20.4,7.84-42.28-3.79s-37-38.34-37-38.34"/><path class="cls-2" d="M582.83,180.7c-3.85,8.26-20,8.9-42.42-1.57s-38.91-36.35-38.91-36.35"/><path class="cls-2" d="M584.7,176.39c-3.41,8.45-19.46,9.93-42.44.65s-40.76-34.27-40.76-34.27"/><path class="cls-2" d="M586.35,172c-3,8.62-18.92,10.94-42.35,2.87s-42.5-32.09-42.5-32.09"/><path class="cls-2" d="M587.76,167.51c-2.51,8.76-18.32,11.91-42.14,5.08s-44.12-29.82-44.12-29.82"/><path class="cls-2" d="M588.93,163c-2.05,8.88-17.67,12.86-41.82,7.28s-45.62-27.47-45.62-27.47"/><path class="cls-2" d="M589.87,158.36c-1.58,9-17,13.76-41.38,9.46s-47-25-47-25"/><path class="cls-2" d="M590.57,153.71c-1.11,9-16.23,14.63-40.83,11.61s-48.24-22.55-48.24-22.55"/><path class="cls-2" d="M591,149c-.64,9.09-15.44,15.46-40.16,13.73s-49.36-20-49.36-20"/><path class="cls-2" d="M591.22,144.34c-.16,9.11-14.61,16.25-39.39,15.82s-50.34-17.38-50.34-17.38"/><path class="cls-2" d="M591.18,139.64c.32,9.11-13.74,17-38.51,17.86s-51.18-14.72-51.18-14.72"/><path class="cls-2" d="M590.89,135c.79,9.08-12.83,17.69-37.52,19.85s-51.88-12-51.88-12"/><path class="cls-2" d="M590.36,130.29c1.27,9-11.89,18.33-36.43,21.78s-52.44-9.29-52.44-9.29"/><path class="cls-2" d="M589.59,125.65c1.74,8.95-10.91,18.93-35.24,23.66s-52.85-6.54-52.85-6.54"/><path class="cls-2" d="M588.57,121.07c2.2,8.84-9.91,19.48-34,25.47s-53.12-3.76-53.12-3.76"/><path class="cls-2" d="M587.31,116.54c2.66,8.72-8.88,20-32.57,27.21s-53.24-1-53.24-1"/><path class="cls-2" d="M585.82,112.08c3.12,8.56-7.82,20.41-31.1,28.88s-53.22,1.81-53.22,1.81"/><path class="cls-2" d="M584.1,107.71c3.56,8.39-6.74,20.79-29.55,30.47s-53.05,4.59-53.05,4.59"/><path class="cls-2" d="M582.15,103.44c4,8.19-5.64,21.11-27.92,32s-52.74,7.36-52.74,7.36"/><path class="cls-2" d="M580,99.27c4.42,8-4.53,21.38-26.2,33.39s-52.28,10.11-52.28,10.11"/><path class="cls-2" d="M577.6,95.22c4.83,7.73-3.4,21.59-24.42,34.72s-51.68,12.84-51.68,12.84"/><path class="cls-2" d="M575,91.31c5.23,7.47-2.27,21.73-22.57,35.95s-50.94,15.52-50.94,15.52"/><path class="cls-2" d="M572.21,87.53c5.61,7.18-1.13,21.82-20.66,37.08s-50.06,18.17-50.06,18.17"/><path class="cls-2" d="M569.22,83.9c6,6.88,0,21.85-18.69,38.11s-49,20.76-49,20.76"/><path class="cls-2" d="M566,80.44c6.33,6.56,1.16,21.82-16.67,39s-47.88,23.3-47.88,23.3"/><path class="cls-2" d="M562.7,77.15c6.66,6.22,2.3,21.73-14.6,39.85s-46.6,25.78-46.6,25.78"/><path class="cls-2" d="M559.18,74c7,5.86,3.43,21.58-12.5,40.56s-45.19,28.18-45.19,28.18"/><path class="cls-2" d="M555.5,71.11c7.28,5.48,4.56,21.37-10.36,41.16s-43.65,30.51-43.65,30.51"/><path class="cls-2" d="M551.68,68.38c7.56,5.1,5.67,21.1-8.19,41.65s-42,32.75-42,32.75"/><path class="cls-2" d="M547.71,65.86c7.81,4.69,6.77,20.78-6,42s-40.22,34.9-40.22,34.9"/><path class="cls-2" d="M543.63,63.54c8,4.28,7.84,20.4-3.79,42.28s-38.34,37-38.34,37"/><path class="cls-2" d="M539.42,61.45c8.26,3.85,8.9,20-1.57,42.42s-36.35,38.91-36.35,38.91"/><path class="cls-2" d="M535.11,59.57C543.56,63,545,79,535.76,102s-34.27,40.76-34.27,40.76"/><path class="cls-2" d="M530.71,57.93c8.62,3,10.94,18.92,2.87,42.35s-32.09,42.5-32.09,42.5"/><path class="cls-2" d="M526.23,56.51C535,59,538.14,74.83,531.31,98.66s-29.82,44.12-29.82,44.12"/><path class="cls-2" d="M521.68,55.34c8.88,2,12.86,17.67,7.28,41.82s-27.47,45.62-27.47,45.62"/><path class="cls-2" d="M517.08,54.4c9,1.58,13.76,17,9.46,41.38s-25,47-25,47"/><path class="cls-2" d="M512.43,53.71c9,1.11,14.63,16.23,11.61,40.83s-22.55,48.24-22.55,48.24"/><path class="cls-2" d="M507.76,53.26c9.09.64,15.46,15.44,13.73,40.16s-20,49.36-20,49.36"/><path class="cls-2" d="M503.06,53.05c9.11.16,16.25,14.61,15.82,39.39s-17.38,50.34-17.38,50.34"/><path class="cls-2" d="M498.36,53.09c9.11-.32,17,13.74,17.86,38.51s-14.72,51.18-14.72,51.18"/><path class="cls-2" d="M493.67,53.38c9.08-.79,17.69,12.83,19.85,37.52s-12,51.88-12,51.88"/><rect class="cls-3" width="668.68" height="294.27"/></svg>