<?xml version="1.0" encoding="utf-8"?>
<!-- Generator: Adobe Illustrator 21.0.0, SVG Export Plug-In . SVG Version: 6.00 Build 0)  -->
<svg version="1.1" xmlns="http://www.w3.org/2000/svg" xmlns:xlink="http://www.w3.org/1999/xlink" x="0px" y="0px"
	 viewBox="0 0 1406.9 1080" style="enable-background:new 0 0 1406.9 1080;" xml:space="preserve">
<style type="text/css">
	.st0{fill:none;stroke:#AFE5AA;stroke-width:5;stroke-miterlimit:10;}
	.st1{fill:none;stroke:#FF94C5;stroke-width:5;stroke-miterlimit:10;}
	.st2{fill:#FCFCFC;stroke:#A0D19A;stroke-miterlimit:10;}
	.st3{fill:#8EC987;}
	.st4{font-family:'CircularStd-Book';}
	.st5{font-size:14.5816px;}
	.st6{fill:#FCFCFC;stroke:#F268A8;stroke-miterlimit:10;}
	.st7{fill:#F268A8;}
	.st8{font-size:13px;}
	.st9{fill:none;}
</style>
<g id="F_Phil">
</g>
<g id="NF_Phil">
</g>
<g id="F_Bos">
</g>
<g id="NF_Bos">
</g>
<g id="F_Minne">
</g>
<g id="NF_Minne">
</g>
<g id="F_LA">
</g>
<g id="NF_LA">
</g>
<g id="F_DC">
</g>
<g id="NF_DC">
</g>
<g id="F_Aus">
</g>
<g id="NF_Aus">
</g>
<g id="F_Sea">
</g>
<g id="NF_Sea">
</g>
<g id="F_Chic">
</g>
<g id="NF_Chic">
</g>
<g id="F_SF">
</g>
<g id="NF_SF">
</g>
<g id="F_NY">
</g>
<g id="NF_NY">
</g>
<g id="Layer_21">
	<g>
		<g>
			<rect x="1221.8" y="644.5" class="st2" width="77.9" height="22.6"/>
		</g>
		<text transform="matrix(1 0 0 1 1230.5022 661.0445)" class="st3 st4 st5">32 Hours</text>
		<g>
			<rect x="1221.2" y="430.6" class="st2" width="77.9" height="22.6"/>
		</g>
		<text transform="matrix(1 0 0 1 1229.9022 447.1445)" class="st3 st4 st5">32 Hours</text>
		<g>
			<rect x="387.7" y="864.5" class="st6" width="79.3" height="22.6"/>
			<text transform="matrix(1 0 0 1 397.1496 881.1066)" class="st7 st4 st5">44 Hours</text>
		</g>
		<g>
			<rect x="796.6" y="212.9" class="st6" width="77.1" height="22.6"/>
			<text transform="matrix(1 0 0 1 803.821 229.4514)" class="st7 st4 st5">45 Hours</text>
		</g>
		<g>
			<rect x="180.2" y="430.6" class="st6" width="79.4" height="22.6"/>
			<text transform="matrix(1 0 0 1 188.8065 447.1445)" class="st7 st4 st5">45 Hours</text>
		</g>
		<g>
			<rect x="589.5" y="430.6" class="st6" width="79.9" height="22.6"/>
			<text transform="matrix(1 0 0 1 596.6862 447.1445)" class="st7 st4 st5">44 Hours</text>
		</g>
		<g>
			<rect x="1000.9" y="430.6" class="st6" width="78.1" height="22.6"/>
			<text transform="matrix(1 0 0 1 1008.9471 447.1445)" class="st7 st4 st5">44 Hours</text>
		</g>
		<g>
			<rect x="180.2" y="646.2" class="st6" width="80.2" height="22.6"/>
			<g>
				<text transform="matrix(1 0 0 1 187.6234 662.6061)" class="st7 st4 st5">45 Hours</text>
			</g>
		</g>
		<g>
			<rect x="589.5" y="646.2" class="st6" width="78.7" height="22.6"/>
			<text transform="matrix(1 0 0 1 597.2109 662.8154)" class="st7 st4 st5">43 Hours</text>
		</g>
		<g>
			<rect x="1000.9" y="646.2" class="st6" width="76" height="22.6"/>
			<text transform="matrix(1 0 0 1 1009.1946 662.8154)" class="st7 st4 st5">45 Hours</text>
		</g>
		<g>
			<rect x="796.6" y="863.3" class="st6" width="75.6" height="22.6"/>
			<text transform="matrix(1 0 0 1 803.8215 879.8824)" class="st7 st4 st5">44 Hours</text>
		</g>
		<g>
			<rect x="589.5" y="212.9" class="st2" width="74.2" height="22.9"/>
			<text transform="matrix(1 0 0 1 594.4431 229.4514)" class="st3 st4 st5">42 Hours</text>
		</g>
		<g>
			<rect x="589.5" y="863" class="st2" width="77.8" height="22.6"/>
			<text transform="matrix(1 0 0 1 596.6868 879.5834)" class="st3 st4 st5">34 Hours</text>
		</g>
		<g>
			<rect x="1000.9" y="212.9" class="st2" width="77.9" height="22.6"/>
			<text transform="matrix(1 0 0 1 1008.0724 229.4514)" class="st3 st4 st5">37 Hours</text>
		</g>
		<g>
			<rect x="387.7" y="430.6" class="st2" width="75.7" height="22.6"/>
			<text transform="matrix(1 0 0 1 397.3852 447.1445)" class="st3 st4 st5">35 Hours</text>
		</g>
		<g>
			<rect x="796.6" y="430.6" class="st2" width="76.4" height="22.6"/>
			<text transform="matrix(1 0 0 1 803.8218 447.1445)" class="st3 st4 st5">34 Hours</text>
		</g>
		<g>
			<rect x="796.6" y="646.2" class="st2" width="73.7" height="22.6"/>
			<text transform="matrix(1 0 0 1 803.3869 662.8154)" class="st3 st4 st5">39 Hours</text>
		</g>
		<g>
			<rect x="1000.9" y="861.8" class="st2" width="78.6" height="22.6"/>
			<text transform="matrix(1 0 0 1 1008.0731 878.3593)" class="st3 st4 st5">34 Hours</text>
		</g>
		<g>
			<rect x="387.7" y="646.2" class="st2" width="73.1" height="22.6"/>
			<text transform="matrix(1 0 0 1 394.5504 662.8154)" class="st3 st4 st5">37 Hours</text>
		</g>
		<g>
			<rect x="387.7" y="212.9" class="st6" width="76.7" height="22.6"/>
			<text transform="matrix(1 0 0 1 399.3653 228.2476)" class="st7 st4 st8">46 Hours</text>
		</g>
	</g>
	<rect class="st9" width="1406.9" height="1092.3"/>
</g>
</svg>
