<svg xmlns="http://www.w3.org/2000/svg" viewBox="0 0 668.68 294.27"><defs><style>.cls-1{isolation:isolate;}.cls-2,.cls-3,.cls-4,.cls-5,.cls-6,.cls-7,.cls-8{fill:none;}.cls-2{stroke:#ff33b6;}.cls-2,.cls-3,.cls-4,.cls-5{stroke-linecap:round;stroke-linejoin:round;}.cls-2,.cls-3,.cls-5,.cls-6{stroke-width:0.75px;}.cls-3{stroke:#00ad21;}.cls-4{stroke:#fff;stroke-width:1.25px;opacity:0;}.cls-5{stroke:#3a2cbf;}.cls-6{stroke:#0043a5;}.cls-6,.cls-7,.cls-8{stroke-miterlimit:10;}.cls-7{stroke:#ff94c5;}.cls-7,.cls-8{stroke-width:10.5px;mix-blend-mode:multiply;}.cls-8{stroke:#afe5aa;}</style></defs><title>hours</title><g class="cls-1"><g id="CITIIES"><path class="cls-2" d="M139,53.91c9-1.27,18.33,11.89,21.78,36.43s-9.29,52.44-9.29,52.44"/><path class="cls-2" d="M134.37,54.69C143.32,52.95,153.3,65.6,158,89.93s-6.54,52.85-6.54,52.85"/><path class="cls-2" d="M129.79,55.7c8.84-2.2,19.48,9.91,25.47,34s-3.76,53.12-3.76,53.12"/><path class="cls-2" d="M125.26,57c2.73-.84,5.71-.27,8.74,1.62,6.63,4.15,13.5,14.69,18.47,31,7.25,23.7-1,53.24-1,53.24"/><path class="cls-2" d="M120.8,58.45c8.56-3.12,20.41,7.82,28.88,31.1s1.81,53.22,1.81,53.22"/><path class="cls-2" d="M116.43,60.17c8.39-3.56,20.79,6.74,30.47,29.55s4.59,53.05,4.59,53.05"/><path class="cls-2" d="M112.16,62.12c8.19-4,21.11,5.64,32,27.92s7.36,52.74,7.36,52.74"/><path class="cls-2" d="M108,64.29c8-4.42,21.38,4.53,33.39,26.2s10.11,52.28,10.11,52.28"/><path class="cls-2" d="M103.94,66.67c7.73-4.83,21.59,3.4,34.72,24.42s12.84,51.68,12.84,51.68"/><path class="cls-2" d="M100,69.27C107.49,64,121.76,71.54,136,91.84s15.52,50.94,15.52,50.94"/><path class="cls-2" d="M96.25,72.06c7.18-5.61,21.82,1.13,37.08,20.66s18.17,50.06,18.17,50.06"/><path class="cls-2" d="M92.62,75.05c6.88-6,21.85,0,38.11,18.69s20.76,49,20.76,49"/><path class="cls-2" d="M89.16,78.22c6.56-6.33,21.82-1.16,39,16.67s23.3,47.88,23.3,47.88"/><path class="cls-2" d="M85.87,81.58c6.22-6.67,21.73-2.3,39.85,14.6s25.78,46.6,25.78,46.6"/><path class="cls-2" d="M82.75,85.09c5.86-7,21.58-3.43,40.56,12.5s28.18,45.19,28.18,45.19"/><path class="cls-2" d="M79.83,88.77c5.48-7.28,21.37-4.56,41.16,10.36s30.51,43.65,30.51,43.65"/><path class="cls-2" d="M77.1,92.6c5.1-7.56,21.1-5.67,41.65,8.19s32.75,42,32.75,42"/><path class="cls-2" d="M74.58,96.56c4.69-7.81,20.78-6.77,42,6s34.9,40.22,34.9,40.22"/><path class="cls-2" d="M72.26,100.65c4.28-8,20.4-7.84,42.28,3.79s37,38.34,37,38.34"/><path class="cls-2" d="M70.17,104.85c3.85-8.26,20-8.9,42.42,1.57s38.91,36.35,38.91,36.35"/><path class="cls-2" d="M68.29,109.16c3.41-8.45,19.46-9.93,42.44-.65s40.76,34.27,40.76,34.27"/><path class="cls-2" d="M66.65,113.56c3-8.62,18.92-10.94,42.35-2.87s42.5,32.09,42.5,32.09"/><path class="cls-2" d="M65.23,118c2.51-8.76,18.32-11.91,42.14-5.08s44.12,29.82,44.12,29.82"/><path class="cls-2" d="M64.06,122.59c2.05-8.88,17.67-12.86,41.82-7.28s45.62,27.47,45.62,27.47"/><path class="cls-2" d="M63.12,127.19c1.58-9,17-13.76,41.38-9.46s47,25,47,25"/><path class="cls-2" d="M62.43,131.84c1.11-9,16.23-14.63,40.83-11.61s48.24,22.55,48.24,22.55"/><path class="cls-2" d="M62,136.52c.64-9.09,15.44-15.46,40.16-13.73s49.36,20,49.36,20"/><path class="cls-2" d="M61.77,141.21c.16-9.11,14.61-16.25,39.39-15.82s50.34,17.38,50.34,17.38"/><path class="cls-2" d="M61.81,145.91c-.32-9.11,13.74-17,38.51-17.86s51.18,14.72,51.18,14.72"/><path class="cls-2" d="M62.1,150.6c-.79-9.08,12.83-17.69,37.52-19.85s51.88,12,51.88,12"/><path class="cls-2" d="M62.63,155.27c-1.27-9,11.89-18.33,36.43-21.78s52.44,9.29,52.44,9.29"/><path class="cls-2" d="M63.41,159.9C61.67,151,74.32,141,98.65,136.24s52.85,6.54,52.85,6.54"/><path class="cls-2" d="M64.42,164.49c-2.2-8.84,9.91-19.48,34-25.47s53.12,3.76,53.12,3.76"/><path class="cls-2" d="M65.68,169C63,160.3,74.55,149,98.25,141.8s53.24,1,53.24,1"/><path class="cls-2" d="M67.17,173.47c-3.12-8.56,7.82-20.41,31.1-28.88s53.22-1.81,53.22-1.81"/><path class="cls-2" d="M68.89,177.84c-3.56-8.39,6.74-20.79,29.55-30.47s53.05-4.59,53.05-4.59"/><path class="cls-2" d="M70.84,182.12c-4-8.19,5.64-21.11,27.92-32s52.74-7.36,52.74-7.36"/><path class="cls-2" d="M73,186.28c-4.42-8,4.53-21.38,26.2-33.39s52.28-10.11,52.28-10.11"/><path class="cls-2" d="M75.39,190.33c-4.83-7.73,3.41-21.59,24.42-34.72s51.68-12.84,51.68-12.84"/><path class="cls-2" d="M78,194.25c-5.23-7.47,2.27-21.73,22.57-35.95s50.94-15.52,50.94-15.52"/><path class="cls-2" d="M80.78,198c-5.61-7.18,1.13-21.82,20.66-37.08s50.06-18.17,50.06-18.17"/><path class="cls-2" d="M83.77,201.65c-6-6.88,0-21.85,18.69-38.11s49-20.76,49-20.76"/><path class="cls-2" d="M86.94,205.11c-6.33-6.56-1.16-21.82,16.67-39s47.88-23.3,47.88-23.3"/><path class="cls-2" d="M90.29,208.41c-6.67-6.22-2.3-21.73,14.6-39.85s46.6-25.78,46.6-25.78"/><path class="cls-2" d="M93.81,211.52c-7-5.86-3.43-21.58,12.5-40.56s45.19-28.18,45.19-28.18"/><path class="cls-2" d="M97.49,214.44c-7.28-5.48-4.56-21.37,10.36-41.16s43.65-30.51,43.65-30.51"/><path class="cls-2" d="M101.32,217.17c-7.56-5.1-5.67-21.1,8.19-41.65s42-32.75,42-32.75"/><path class="cls-2" d="M105.28,219.7c-7.81-4.69-6.77-20.78,6-42s40.22-34.9,40.22-34.9"/><path class="cls-2" d="M109.37,222c-8-4.28-7.84-20.4,3.79-42.28s38.34-37,38.34-37"/><path class="cls-2" d="M113.57,224.11c-8.26-3.85-8.9-20,1.57-42.42s36.35-38.91,36.35-38.91"/><path class="cls-2" d="M117.88,226c-8.45-3.41-9.93-19.46-.65-42.44s34.27-40.76,34.27-40.76"/><path class="cls-2" d="M122.28,227.63c-8.62-3-10.94-18.92-2.87-42.35s32.09-42.5,32.09-42.5"/><path class="cls-2" d="M126.76,229c-8.76-2.51-11.91-18.32-5.08-42.14s29.82-44.12,29.82-44.12"/><path class="cls-2" d="M131.31,230.22c-8.88-2.05-12.86-17.67-7.28-41.82s27.47-45.62,27.47-45.62"/><path class="cls-2" d="M135.91,231.15c-9-1.58-13.76-17-9.46-41.38s25-47,25-47"/><path class="cls-2" d="M140.56,231.85c-9-1.11-14.63-16.23-11.61-40.83s22.55-48.24,22.55-48.24"/><path class="cls-2" d="M145.24,232.3c-9.09-.64-15.46-15.44-13.73-40.16s20-49.36,20-49.36"/><path class="cls-2" d="M149.93,232.5c-9.11-.16-16.25-14.61-15.82-39.39s17.38-50.34,17.38-50.34"/><path class="cls-2" d="M154.63,232.46c-9.11.32-17-13.74-17.86-38.51s14.72-51.18,14.72-51.18"/><path class="cls-2" d="M159.32,232.17c-9.08.79-17.69-12.83-19.85-37.52s12-51.88,12-51.88"/><path class="cls-2" d="M164,231.64c-9,1.27-18.33-11.89-21.78-36.43s9.29-52.44,9.29-52.44"/><path class="cls-2" d="M168.62,230.87c-8.95,1.74-18.93-10.91-23.66-35.24s6.54-52.85,6.54-52.85"/><path class="cls-2" d="M173.21,229.85c-8.84,2.2-19.48-9.91-25.47-34s3.76-53.12,3.76-53.12"/><path class="cls-2" d="M177.73,228.59c-8.72,2.66-20-8.88-27.21-32.57s1-53.24,1-53.24"/><path class="cls-2" d="M182.19,227.1c-8.56,3.12-20.41-7.82-28.88-31.1s-1.81-53.22-1.81-53.22"/><path class="cls-2" d="M186.56,225.38c-8.39,3.56-20.79-6.74-30.47-29.55s-4.59-53.05-4.59-53.05"/><path class="cls-2" d="M190.83,223.43c-8.19,4-21.11-5.64-32-27.92s-7.36-52.74-7.36-52.74"/><path class="cls-2" d="M195,221.26c-8,4.42-21.38-4.53-33.39-26.2s-10.11-52.28-10.11-52.28"/><path class="cls-2" d="M199.05,218.88c-7.73,4.83-21.59-3.4-34.72-24.42s-12.84-51.68-12.84-51.68"/><path class="cls-2" d="M203,216.29c-7.47,5.23-21.73-2.27-35.95-22.57s-15.52-50.94-15.52-50.94"/><path class="cls-2" d="M206.74,213.49c-7.18,5.61-21.82-1.13-37.08-20.66s-18.17-50.06-18.17-50.06"/><path class="cls-2" d="M210.37,210.5c-6.88,6-21.85,0-38.11-18.69s-20.76-49-20.76-49"/><path class="cls-2" d="M213.83,207.33c-6.56,6.33-21.82,1.16-39-16.67s-23.3-47.88-23.3-47.88"/><path class="cls-2" d="M217.13,204c-6.22,6.67-21.73,2.3-39.85-14.6s-25.78-46.6-25.78-46.6"/><path class="cls-2" d="M220.24,200.46c-5.86,7-21.58,3.43-40.56-12.5s-28.18-45.19-28.18-45.19"/><path class="cls-2" d="M223.16,196.78c-5.48,7.28-21.37,4.56-41.16-10.36s-30.51-43.65-30.51-43.65"/><path class="cls-2" d="M225.89,193c-5.1,7.56-21.1,5.67-41.65-8.19s-32.75-42-32.75-42"/><path class="cls-2" d="M228.42,189c-4.69,7.81-20.78,6.77-42-6s-34.9-40.22-34.9-40.22"/><path class="cls-2" d="M230.73,184.91c-4.28,8-20.4,7.84-42.28-3.79s-37-38.34-37-38.34"/><path class="cls-2" d="M232.83,180.7c-3.85,8.26-20,8.9-42.42-1.57s-38.91-36.35-38.91-36.35"/><path class="cls-2" d="M234.7,176.39c-3.41,8.45-19.46,9.93-42.44.65s-40.76-34.27-40.76-34.27"/><path class="cls-2" d="M236.35,172c-3,8.62-18.92,10.94-42.35,2.87s-42.5-32.09-42.5-32.09"/><path class="cls-2" d="M237.76,167.51c-2.51,8.76-18.32,11.91-42.14,5.08s-44.12-29.82-44.12-29.82"/><path class="cls-2" d="M238.93,163c-2.05,8.88-17.67,12.86-41.82,7.28s-45.62-27.47-45.62-27.47"/><path class="cls-2" d="M239.87,158.36c-1.58,9-17,13.76-41.38,9.46s-47-25-47-25"/><path class="cls-2" d="M240.57,153.71c-1.11,9-16.23,14.63-40.83,11.61s-48.24-22.55-48.24-22.55"/><path class="cls-2" d="M241,149c-.64,9.09-15.44,15.46-40.16,13.73s-49.36-20-49.36-20"/><path class="cls-2" d="M241.22,144.34c-.16,9.11-14.61,16.25-39.39,15.82s-50.34-17.38-50.34-17.38"/><path class="cls-2" d="M241.18,139.64c.32,9.11-13.74,17-38.51,17.86s-51.18-14.72-51.18-14.72"/><path class="cls-2" d="M240.89,135c.79,9.08-12.83,17.69-37.52,19.85s-51.88-12-51.88-12"/><path class="cls-2" d="M240.36,130.29c1.27,9-11.89,18.33-36.43,21.78s-52.44-9.29-52.44-9.29"/><path class="cls-2" d="M239.59,125.65c1.74,8.95-10.91,18.93-35.24,23.66s-52.85-6.54-52.85-6.54"/><path class="cls-2" d="M238.57,121.07c2.2,8.84-9.91,19.48-34,25.47s-53.12-3.76-53.12-3.76"/><path class="cls-2" d="M237.31,116.54c2.66,8.72-8.88,20-32.57,27.21s-53.24-1-53.24-1"/><path class="cls-2" d="M235.82,112.08c3.12,8.56-7.82,20.41-31.1,28.88s-53.22,1.81-53.22,1.81"/><path class="cls-2" d="M234.1,107.71c3.56,8.39-6.74,20.79-29.55,30.47s-53.05,4.59-53.05,4.59"/><path class="cls-2" d="M232.15,103.44c4,8.19-5.64,21.11-27.92,32s-52.74,7.36-52.74,7.36"/><path class="cls-2" d="M230,99.27c4.42,8-4.53,21.38-26.2,33.39s-52.28,10.11-52.28,10.11"/><path class="cls-2" d="M227.6,95.22c4.83,7.73-3.4,21.59-24.42,34.72s-51.68,12.84-51.68,12.84"/><path class="cls-2" d="M225,91.3c5.23,7.47-2.27,21.73-22.57,35.95s-50.94,15.52-50.94,15.52"/><path class="cls-2" d="M222.21,87.53c5.61,7.18-1.13,21.82-20.66,37.08s-50.06,18.17-50.06,18.17"/><path class="cls-2" d="M219.22,83.9c6,6.88,0,21.85-18.69,38.11s-49,20.76-49,20.76"/><path class="cls-2" d="M216,80.44c6.33,6.56,1.16,21.82-16.67,39s-47.88,23.3-47.88,23.3"/><path class="cls-2" d="M212.7,77.15c6.66,6.22,2.3,21.73-14.6,39.85s-46.6,25.78-46.6,25.78"/><path class="cls-2" d="M209.18,74c7,5.86,3.43,21.58-12.5,40.56s-45.19,28.18-45.19,28.18"/><path class="cls-2" d="M205.5,71.11c7.28,5.48,4.56,21.37-10.36,41.16s-43.65,30.51-43.65,30.51"/><path class="cls-2" d="M201.68,68.38c7.56,5.1,5.67,21.1-8.19,41.65s-42,32.75-42,32.75"/><path class="cls-2" d="M197.71,65.86c7.81,4.69,6.77,20.78-6,42s-40.22,34.9-40.22,34.9"/><path class="cls-2" d="M193.63,63.54c8,4.28,7.84,20.4-3.79,42.28s-38.34,37-38.34,37"/><path class="cls-2" d="M189.42,61.45c8.26,3.85,8.9,20-1.57,42.42s-36.35,38.91-36.35,38.91"/><path class="cls-2" d="M185.11,59.57C193.56,63,195,79,185.76,102s-34.27,40.76-34.27,40.76"/><path class="cls-2" d="M180.71,57.93c8.62,3,10.94,18.92,2.87,42.35s-32.09,42.5-32.09,42.5"/><path class="cls-2" d="M176.23,56.51C185,59,188.14,74.83,181.31,98.66s-29.82,44.12-29.82,44.12"/><path class="cls-2" d="M171.68,55.34c8.88,2,12.86,17.67,7.28,41.82s-27.47,45.62-27.47,45.62"/><path class="cls-2" d="M167.08,54.4c9,1.58,13.76,17,9.46,41.38s-25,47-25,47"/><path class="cls-2" d="M162.43,53.71c9,1.11,14.63,16.23,11.61,40.83s-22.55,48.24-22.55,48.24"/><path class="cls-2" d="M157.76,53.26c9.09.64,15.46,15.44,13.73,40.16s-20,49.36-20,49.36"/><path class="cls-2" d="M153.06,53.05c9.11.16,16.25,14.61,15.82,39.39s-17.38,50.34-17.38,50.34"/><path class="cls-2" d="M148.36,53.09c9.11-.32,17,13.74,17.86,38.51s-14.72,51.18-14.72,51.18"/><path class="cls-2" d="M143.67,53.38c9.08-.79,17.69,12.83,19.85,37.52s-12,51.88-12,51.88"/><path class="cls-3" d="M489,53.91c9-1.27,18.33,11.89,21.78,36.43s-9.29,52.44-9.29,52.44"/><path class="cls-3" d="M484.37,54.69C493.32,52.95,503.3,65.6,508,89.93s-6.54,52.85-6.54,52.85"/><path class="cls-3" d="M479.79,55.7c8.84-2.2,19.48,9.91,25.47,34s-3.76,53.12-3.76,53.12"/><path class="cls-3" d="M475.26,57c2.73-.84,5.71-.27,8.74,1.62,6.63,4.15,13.5,14.69,18.47,31,7.25,23.7-1,53.24-1,53.24"/><path class="cls-3" d="M470.8,58.45c8.56-3.12,20.41,7.82,28.88,31.1s1.81,53.22,1.81,53.22"/><path class="cls-3" d="M466.43,60.17c8.39-3.56,20.79,6.74,30.47,29.55s4.59,53.05,4.59,53.05"/><path class="cls-3" d="M462.16,62.12c8.19-4,21.11,5.64,32,27.92s7.36,52.74,7.36,52.74"/><path class="cls-3" d="M458,64.29c8-4.42,21.38,4.53,33.39,26.2s10.11,52.28,10.11,52.28"/><path class="cls-3" d="M453.94,66.67c7.73-4.83,21.59,3.4,34.72,24.42s12.84,51.68,12.84,51.68"/><path class="cls-3" d="M450,69.27C457.49,64,471.76,71.54,486,91.84s15.52,50.94,15.52,50.94"/><path class="cls-3" d="M446.25,72.06c7.18-5.61,21.82,1.13,37.08,20.66s18.17,50.06,18.17,50.06"/><path class="cls-3" d="M442.62,75.05c6.88-6,21.85,0,38.11,18.69s20.76,49,20.76,49"/><path class="cls-3" d="M439.16,78.22c6.56-6.33,21.82-1.16,39,16.67s23.3,47.88,23.3,47.88"/><path class="cls-3" d="M435.87,81.58c6.22-6.67,21.73-2.3,39.85,14.6s25.78,46.6,25.78,46.6"/><path class="cls-3" d="M432.75,85.09c5.86-7,21.58-3.43,40.56,12.5s28.18,45.19,28.18,45.19"/><path class="cls-3" d="M429.83,88.77c5.48-7.28,21.37-4.56,41.16,10.36s30.51,43.65,30.51,43.65"/><path class="cls-3" d="M427.1,92.6c5.1-7.56,21.1-5.67,41.65,8.19s32.75,42,32.75,42"/><path class="cls-3" d="M424.58,96.56c4.69-7.81,20.78-6.77,42,6s34.9,40.22,34.9,40.22"/><path class="cls-3" d="M422.26,100.65c4.28-8,20.4-7.84,42.28,3.79s37,38.34,37,38.34"/><path class="cls-3" d="M420.17,104.85c3.85-8.26,20-8.9,42.42,1.57s38.91,36.35,38.91,36.35"/><path class="cls-3" d="M418.29,109.16c3.41-8.45,19.46-9.93,42.44-.65s40.76,34.27,40.76,34.27"/><path class="cls-3" d="M416.65,113.56c3-8.62,18.92-10.94,42.35-2.87s42.5,32.09,42.5,32.09"/><path class="cls-3" d="M415.23,118c2.51-8.76,18.32-11.91,42.14-5.08s44.12,29.82,44.12,29.82"/><path class="cls-3" d="M414.06,122.59c2.05-8.88,17.67-12.86,41.82-7.28s45.62,27.47,45.62,27.47"/><path class="cls-3" d="M413.12,127.19c1.58-9,17-13.76,41.38-9.46s47,25,47,25"/><path class="cls-3" d="M412.43,131.84c1.11-9,16.23-14.63,40.83-11.61s48.24,22.55,48.24,22.55"/><path class="cls-3" d="M412,136.52c.64-9.09,15.44-15.46,40.16-13.73s49.36,20,49.36,20"/><path class="cls-3" d="M411.77,141.21c.16-9.11,14.61-16.25,39.39-15.82s50.34,17.38,50.34,17.38"/><path class="cls-3" d="M411.81,145.91c-.32-9.11,13.74-17,38.51-17.86s51.18,14.72,51.18,14.72"/><path class="cls-3" d="M412.1,150.6c-.79-9.08,12.83-17.69,37.52-19.85s51.88,12,51.88,12"/><path class="cls-3" d="M412.63,155.27c-1.27-9,11.89-18.33,36.43-21.78s52.44,9.29,52.44,9.29"/><path class="cls-3" d="M413.41,159.9c-1.74-8.95,10.91-18.93,35.24-23.66s52.85,6.54,52.85,6.54"/><path class="cls-3" d="M414.42,164.49c-2.2-8.84,9.91-19.48,34-25.47s53.12,3.76,53.12,3.76"/><path class="cls-3" d="M415.68,169c-2.66-8.72,8.88-20,32.57-27.21s53.24,1,53.24,1"/><path class="cls-3" d="M417.17,173.47c-3.12-8.56,7.82-20.41,31.1-28.88s53.22-1.81,53.22-1.81"/><path class="cls-3" d="M418.89,177.84c-3.56-8.39,6.74-20.79,29.55-30.47s53.05-4.59,53.05-4.59"/><path class="cls-3" d="M420.84,182.12c-4-8.19,5.64-21.11,27.92-32s52.74-7.36,52.74-7.36"/><path class="cls-3" d="M423,186.28c-4.42-8,4.53-21.38,26.2-33.39s52.28-10.11,52.28-10.11"/><path class="cls-3" d="M425.39,190.33c-4.83-7.73,3.41-21.59,24.42-34.72s51.68-12.84,51.68-12.84"/><path class="cls-3" d="M428,194.25c-5.23-7.47,2.27-21.73,22.57-35.95s50.94-15.52,50.94-15.52"/><path class="cls-3" d="M430.78,198c-5.61-7.18,1.13-21.82,20.66-37.08s50.06-18.17,50.06-18.17"/><path class="cls-3" d="M433.77,201.65c-6-6.88,0-21.85,18.69-38.11s49-20.76,49-20.76"/><path class="cls-3" d="M436.94,205.11c-6.33-6.56-1.16-21.82,16.67-39s47.88-23.3,47.88-23.3"/><path class="cls-3" d="M440.29,208.41c-6.67-6.22-2.3-21.73,14.6-39.85s46.6-25.78,46.6-25.78"/><path class="cls-3" d="M443.81,211.52c-7-5.86-3.43-21.58,12.5-40.56s45.19-28.18,45.19-28.18"/><path class="cls-3" d="M447.49,214.45c-7.28-5.48-4.56-21.37,10.36-41.16s43.65-30.51,43.65-30.51"/><path class="cls-3" d="M451.32,217.17c-7.56-5.1-5.67-21.1,8.19-41.65s42-32.75,42-32.75"/><path class="cls-3" d="M455.28,219.7c-7.81-4.69-6.77-20.78,6-42s40.22-34.9,40.22-34.9"/><path class="cls-3" d="M459.37,222c-8-4.28-7.84-20.4,3.79-42.28s38.34-37,38.34-37"/><path class="cls-3" d="M463.57,224.11c-8.26-3.85-8.9-20,1.57-42.42s36.35-38.91,36.35-38.91"/><path class="cls-3" d="M467.88,226c-8.45-3.41-9.93-19.46-.65-42.44s34.27-40.76,34.27-40.76"/><path class="cls-3" d="M472.28,227.63c-8.62-3-10.94-18.92-2.87-42.35s32.09-42.5,32.09-42.5"/><path class="cls-3" d="M476.76,229c-8.76-2.51-11.91-18.32-5.08-42.14s29.82-44.12,29.82-44.12"/><path class="cls-3" d="M481.31,230.22c-8.88-2.05-12.86-17.67-7.28-41.82s27.47-45.62,27.47-45.62"/><path class="cls-3" d="M485.91,231.15c-9-1.58-13.76-17-9.46-41.38s25-47,25-47"/><path class="cls-3" d="M490.56,231.85c-9-1.11-14.63-16.23-11.61-40.83s22.55-48.24,22.55-48.24"/><path class="cls-3" d="M495.24,232.3c-9.09-.64-15.46-15.44-13.73-40.16s20-49.36,20-49.36"/><path class="cls-3" d="M499.93,232.5c-9.11-.16-16.25-14.61-15.82-39.39s17.38-50.34,17.38-50.34"/><path class="cls-3" d="M504.63,232.46c-9.11.32-17-13.74-17.86-38.51s14.72-51.18,14.72-51.18"/><path class="cls-3" d="M509.32,232.17c-9.08.79-17.69-12.83-19.85-37.52s12-51.88,12-51.88"/><path class="cls-3" d="M514,231.64c-9,1.27-18.33-11.89-21.78-36.43s9.29-52.44,9.29-52.44"/><path class="cls-3" d="M518.62,230.87c-8.95,1.74-18.93-10.91-23.66-35.24s6.54-52.85,6.54-52.85"/><path class="cls-3" d="M523.21,229.85c-8.84,2.2-19.48-9.91-25.47-34s3.76-53.12,3.76-53.12"/><path class="cls-3" d="M527.73,228.59c-8.72,2.66-20-8.88-27.21-32.57s1-53.24,1-53.24"/><path class="cls-3" d="M532.19,227.1c-8.56,3.12-20.41-7.82-28.88-31.1s-1.81-53.22-1.81-53.22"/><path class="cls-3" d="M536.56,225.38c-8.39,3.56-20.79-6.74-30.47-29.55s-4.59-53.05-4.59-53.05"/><path class="cls-3" d="M540.83,223.43c-8.19,4-21.11-5.64-32-27.92s-7.36-52.74-7.36-52.74"/><path class="cls-3" d="M545,221.26c-8,4.42-21.38-4.53-33.39-26.2s-10.11-52.28-10.11-52.28"/><path class="cls-3" d="M549.05,218.88c-7.73,4.83-21.59-3.4-34.72-24.42s-12.84-51.68-12.84-51.68"/><path class="cls-3" d="M553,216.29c-7.47,5.23-21.73-2.27-35.95-22.57s-15.52-50.94-15.52-50.94"/><path class="cls-3" d="M556.74,213.49c-7.18,5.61-21.82-1.13-37.08-20.66s-18.17-50.06-18.17-50.06"/><path class="cls-3" d="M560.37,210.5c-6.88,6-21.85,0-38.11-18.69s-20.76-49-20.76-49"/><path class="cls-3" d="M563.83,207.33c-6.56,6.33-21.82,1.16-39-16.67s-23.3-47.88-23.3-47.88"/><path class="cls-3" d="M567.13,204c-6.22,6.67-21.73,2.3-39.85-14.6s-25.78-46.6-25.78-46.6"/><path class="cls-3" d="M570.24,200.46c-5.86,7-21.58,3.43-40.56-12.5s-28.18-45.19-28.18-45.19"/><path class="cls-3" d="M573.16,196.78c-5.48,7.28-21.37,4.56-41.16-10.36s-30.51-43.65-30.51-43.65"/><path class="cls-3" d="M575.89,193c-5.1,7.56-21.1,5.67-41.65-8.19s-32.75-42-32.75-42"/><path class="cls-3" d="M578.42,189c-4.69,7.81-20.78,6.77-42-6s-34.9-40.22-34.9-40.22"/><path class="cls-3" d="M580.73,184.91c-4.28,8-20.4,7.84-42.28-3.79s-37-38.34-37-38.34"/><path class="cls-3" d="M582.83,180.7c-3.85,8.26-20,8.9-42.42-1.57s-38.91-36.35-38.91-36.35"/><path class="cls-3" d="M584.7,176.39c-3.41,8.45-19.46,9.93-42.44.65s-40.76-34.27-40.76-34.27"/><path class="cls-3" d="M586.35,172c-3,8.62-18.92,10.94-42.35,2.87s-42.5-32.09-42.5-32.09"/><path class="cls-3" d="M587.76,167.51c-2.51,8.76-18.32,11.91-42.14,5.08s-44.12-29.82-44.12-29.82"/><path class="cls-3" d="M588.93,163c-2.05,8.88-17.67,12.86-41.82,7.28s-45.62-27.47-45.62-27.47"/><path class="cls-3" d="M589.87,158.36c-1.58,9-17,13.76-41.38,9.46s-47-25-47-25"/><path class="cls-3" d="M590.57,153.71c-1.11,9-16.23,14.63-40.83,11.61s-48.24-22.55-48.24-22.55"/><path class="cls-3" d="M591,149c-.64,9.09-15.44,15.46-40.16,13.73s-49.36-20-49.36-20"/><path class="cls-3" d="M591.22,144.34c-.16,9.11-14.61,16.25-39.39,15.82s-50.34-17.38-50.34-17.38"/><path class="cls-3" d="M591.18,139.64c.32,9.11-13.74,17-38.51,17.86s-51.18-14.72-51.18-14.72"/><path class="cls-3" d="M590.89,135c.79,9.08-12.83,17.69-37.52,19.85s-51.88-12-51.88-12"/><path class="cls-3" d="M590.36,130.29c1.27,9-11.89,18.33-36.43,21.78s-52.44-9.29-52.44-9.29"/><path class="cls-3" d="M589.59,125.65c1.74,8.95-10.91,18.93-35.24,23.66s-52.85-6.54-52.85-6.54"/><path class="cls-3" d="M588.57,121.07c2.2,8.84-9.91,19.48-34,25.47s-53.12-3.76-53.12-3.76"/><path class="cls-3" d="M587.31,116.54c2.66,8.72-8.88,20-32.57,27.21s-53.24-1-53.24-1"/><path class="cls-3" d="M585.82,112.08c3.12,8.56-7.82,20.41-31.1,28.88s-53.22,1.81-53.22,1.81"/><path class="cls-3" d="M584.1,107.71c3.56,8.39-6.74,20.79-29.55,30.47s-53.05,4.59-53.05,4.59"/><path class="cls-3" d="M582.15,103.44c4,8.19-5.64,21.11-27.92,32s-52.74,7.36-52.74,7.36"/><path class="cls-3" d="M580,99.27c4.42,8-4.53,21.38-26.2,33.39s-52.28,10.11-52.28,10.11"/><path class="cls-3" d="M577.6,95.22c4.83,7.73-3.4,21.59-24.42,34.72s-51.68,12.84-51.68,12.84"/><path class="cls-3" d="M575,91.31c5.23,7.47-2.27,21.73-22.57,35.95s-50.94,15.52-50.94,15.52"/><path class="cls-3" d="M572.21,87.53c5.61,7.18-1.13,21.82-20.66,37.08s-50.06,18.17-50.06,18.17"/><path class="cls-3" d="M569.22,83.9c6,6.88,0,21.85-18.69,38.11s-49,20.76-49,20.76"/><path class="cls-3" d="M566,80.44c6.33,6.56,1.16,21.82-16.67,39s-47.88,23.3-47.88,23.3"/><path class="cls-3" d="M562.7,77.15c6.66,6.22,2.3,21.73-14.6,39.85s-46.6,25.78-46.6,25.78"/><path class="cls-3" d="M559.18,74c7,5.86,3.43,21.58-12.5,40.56s-45.19,28.18-45.19,28.18"/><path class="cls-3" d="M555.5,71.11c7.28,5.48,4.56,21.37-10.36,41.16s-43.65,30.51-43.65,30.51"/><path class="cls-3" d="M551.68,68.38c7.56,5.1,5.67,21.1-8.19,41.65s-42,32.75-42,32.75"/><path class="cls-3" d="M547.71,65.86c7.81,4.69,6.77,20.78-6,42s-40.22,34.9-40.22,34.9"/><path class="cls-3" d="M543.63,63.54c8,4.28,7.84,20.4-3.79,42.28s-38.34,37-38.34,37"/><path class="cls-3" d="M539.42,61.45c8.26,3.85,8.9,20-1.57,42.42s-36.35,38.91-36.35,38.91"/><path class="cls-3" d="M535.11,59.57C543.56,63,545,79,535.76,102s-34.27,40.76-34.27,40.76"/><path class="cls-3" d="M530.71,57.93c8.62,3,10.94,18.92,2.87,42.35s-32.09,42.5-32.09,42.5"/><path class="cls-3" d="M526.23,56.51C535,59,538.14,74.83,531.31,98.66s-29.82,44.12-29.82,44.12"/><path class="cls-3" d="M521.68,55.34c8.88,2,12.86,17.67,7.28,41.82s-27.47,45.62-27.47,45.62"/><path class="cls-3" d="M517.08,54.4c9,1.58,13.76,17,9.46,41.38s-25,47-25,47"/><path class="cls-3" d="M512.43,53.71c9,1.11,14.63,16.23,11.61,40.83s-22.55,48.24-22.55,48.24"/><path class="cls-3" d="M507.76,53.26c9.09.64,15.46,15.44,13.73,40.16s-20,49.36-20,49.36"/><path class="cls-3" d="M503.06,53.05c9.11.16,16.25,14.61,15.82,39.39s-17.38,50.34-17.38,50.34"/><path class="cls-3" d="M498.36,53.09c9.11-.32,17,13.74,17.86,38.51s-14.72,51.18-14.72,51.18"/><path class="cls-3" d="M493.67,53.38c9.08-.79,17.69,12.83,19.85,37.52s-12,51.88-12,51.88"/><rect class="cls-4" width="668.68" height="294.27"/></g><g id="satisfaction"><path class="cls-2" d="M139,53.91c9-1.27,18.33,11.89,21.78,36.43s-9.29,52.44-9.29,52.44"/><path class="cls-2" d="M134.37,54.69C143.32,52.95,153.3,65.6,158,89.93s-6.54,52.85-6.54,52.85"/><path class="cls-2" d="M129.79,55.7c8.84-2.2,19.48,9.91,25.47,34s-3.76,53.12-3.76,53.12"/><path class="cls-2" d="M125.26,57c2.73-.84,5.71-.27,8.74,1.62,6.63,4.15,13.5,14.69,18.47,31,7.25,23.7-1,53.24-1,53.24"/><path class="cls-2" d="M120.8,58.45c8.56-3.12,20.41,7.82,28.88,31.1s1.81,53.22,1.81,53.22"/><path class="cls-2" d="M116.43,60.17c8.39-3.56,20.79,6.74,30.47,29.55s4.59,53.05,4.59,53.05"/><path class="cls-2" d="M112.16,62.12c8.19-4,21.11,5.64,32,27.92s7.36,52.74,7.36,52.74"/><path class="cls-2" d="M108,64.29c8-4.42,21.38,4.53,33.39,26.2s10.11,52.28,10.11,52.28"/><path class="cls-2" d="M103.94,66.67c7.73-4.83,21.59,3.4,34.72,24.42s12.84,51.68,12.84,51.68"/><path class="cls-2" d="M100,69.27C107.49,64,121.76,71.54,136,91.84s15.52,50.94,15.52,50.94"/><path class="cls-2" d="M96.25,72.06c7.18-5.61,21.82,1.13,37.08,20.66s18.17,50.06,18.17,50.06"/><path class="cls-2" d="M92.62,75.05c6.88-6,21.85,0,38.11,18.69s20.76,49,20.76,49"/><path class="cls-2" d="M89.16,78.22c6.56-6.33,21.82-1.16,39,16.67s23.3,47.88,23.3,47.88"/><path class="cls-2" d="M85.87,81.58c6.22-6.67,21.73-2.3,39.85,14.6s25.78,46.6,25.78,46.6"/><path class="cls-2" d="M82.75,85.09c5.86-7,21.58-3.43,40.56,12.5s28.18,45.19,28.18,45.19"/><path class="cls-2" d="M79.83,88.77c5.48-7.28,21.37-4.56,41.16,10.36s30.51,43.65,30.51,43.65"/><path class="cls-2" d="M77.1,92.6c5.1-7.56,21.1-5.67,41.65,8.19s32.75,42,32.75,42"/><path class="cls-2" d="M74.58,96.56c4.69-7.81,20.78-6.77,42,6s34.9,40.22,34.9,40.22"/><path class="cls-2" d="M72.26,100.65c4.28-8,20.4-7.84,42.28,3.79s37,38.34,37,38.34"/><path class="cls-2" d="M70.17,104.85c3.85-8.26,20-8.9,42.42,1.57s38.91,36.35,38.91,36.35"/><path class="cls-2" d="M68.29,109.16c3.41-8.45,19.46-9.93,42.44-.65s40.76,34.27,40.76,34.27"/><path class="cls-2" d="M66.65,113.56c3-8.62,18.92-10.94,42.35-2.87s42.5,32.09,42.5,32.09"/><path class="cls-2" d="M65.23,118c2.51-8.76,18.32-11.91,42.14-5.08s44.12,29.82,44.12,29.82"/><path class="cls-2" d="M64.06,122.59c2.05-8.88,17.67-12.86,41.82-7.28s45.62,27.47,45.62,27.47"/><path class="cls-2" d="M63.12,127.19c1.58-9,17-13.76,41.38-9.46s47,25,47,25"/><path class="cls-2" d="M62.43,131.84c1.11-9,16.23-14.63,40.83-11.61s48.24,22.55,48.24,22.55"/><path class="cls-2" d="M62,136.52c.64-9.09,15.44-15.46,40.16-13.73s49.36,20,49.36,20"/><path class="cls-2" d="M61.77,141.21c.16-9.11,14.61-16.25,39.39-15.82s50.34,17.38,50.34,17.38"/><path class="cls-2" d="M61.81,145.91c-.32-9.11,13.74-17,38.51-17.86s51.18,14.72,51.18,14.72"/><path class="cls-2" d="M62.1,150.6c-.79-9.08,12.83-17.69,37.52-19.85s51.88,12,51.88,12"/><path class="cls-2" d="M62.63,155.27c-1.27-9,11.89-18.33,36.43-21.78s52.44,9.29,52.44,9.29"/><path class="cls-2" d="M63.41,159.9C61.67,151,74.32,141,98.65,136.24s52.85,6.54,52.85,6.54"/><path class="cls-2" d="M64.42,164.49c-2.2-8.84,9.91-19.48,34-25.47s53.12,3.76,53.12,3.76"/><path class="cls-2" d="M65.68,169C63,160.3,74.55,149,98.25,141.8s53.24,1,53.24,1"/><path class="cls-2" d="M67.17,173.47c-3.12-8.56,7.82-20.41,31.1-28.88s53.22-1.81,53.22-1.81"/><path class="cls-2" d="M68.89,177.84c-3.56-8.39,6.74-20.79,29.55-30.47s53.05-4.59,53.05-4.59"/><path class="cls-2" d="M70.84,182.12c-4-8.19,5.64-21.11,27.92-32s52.74-7.36,52.74-7.36"/><path class="cls-2" d="M73,186.28c-4.42-8,4.53-21.38,26.2-33.39s52.28-10.11,52.28-10.11"/><path class="cls-2" d="M75.39,190.33c-4.83-7.73,3.41-21.59,24.42-34.72s51.68-12.84,51.68-12.84"/><path class="cls-2" d="M78,194.25c-5.23-7.47,2.27-21.73,22.57-35.95s50.94-15.52,50.94-15.52"/><path class="cls-2" d="M80.78,198c-5.61-7.18,1.13-21.82,20.66-37.08s50.06-18.17,50.06-18.17"/><path class="cls-2" d="M83.77,201.65c-6-6.88,0-21.85,18.69-38.11s49-20.76,49-20.76"/><path class="cls-2" d="M86.94,205.11c-6.33-6.56-1.16-21.82,16.67-39s47.88-23.3,47.88-23.3"/><path class="cls-2" d="M90.29,208.41c-6.67-6.22-2.3-21.73,14.6-39.85s46.6-25.78,46.6-25.78"/><path class="cls-2" d="M93.81,211.52c-7-5.86-3.43-21.58,12.5-40.56s45.19-28.18,45.19-28.18"/><path class="cls-2" d="M97.49,214.45c-7.28-5.48-4.56-21.37,10.36-41.16s43.65-30.51,43.65-30.51"/><path class="cls-2" d="M101.32,217.17c-7.56-5.1-5.67-21.1,8.19-41.65s42-32.75,42-32.75"/><path class="cls-2" d="M105.28,219.7c-7.81-4.69-6.77-20.78,6-42s40.22-34.9,40.22-34.9"/><path class="cls-2" d="M109.37,222c-8-4.28-7.84-20.4,3.79-42.28s38.34-37,38.34-37"/><path class="cls-2" d="M113.57,224.11c-8.26-3.85-8.9-20,1.57-42.42s36.35-38.91,36.35-38.91"/><path class="cls-2" d="M117.88,226c-8.45-3.41-9.93-19.46-.65-42.44s34.27-40.76,34.27-40.76"/><path class="cls-2" d="M122.28,227.63c-8.62-3-10.94-18.92-2.87-42.35s32.09-42.5,32.09-42.5"/><path class="cls-2" d="M126.76,229c-8.76-2.51-11.91-18.32-5.08-42.14s29.82-44.12,29.82-44.12"/><path class="cls-2" d="M131.31,230.22c-8.88-2.05-12.86-17.67-7.28-41.82s27.47-45.62,27.47-45.62"/><path class="cls-2" d="M135.91,231.15c-9-1.58-13.76-17-9.46-41.38s25-47,25-47"/><path class="cls-2" d="M140.56,231.85c-9-1.11-14.63-16.23-11.61-40.83s22.55-48.24,22.55-48.24"/><path class="cls-2" d="M145.24,232.3c-9.09-.64-15.46-15.44-13.73-40.16s20-49.36,20-49.36"/><path class="cls-2" d="M149.93,232.5c-9.11-.16-16.25-14.61-15.82-39.39s17.38-50.34,17.38-50.34"/><path class="cls-2" d="M154.63,232.46c-9.11.32-17-13.74-17.86-38.51s14.72-51.18,14.72-51.18"/><path class="cls-2" d="M159.32,232.17c-9.08.79-17.69-12.83-19.85-37.52s12-51.88,12-51.88"/><path class="cls-2" d="M164,231.64c-9,1.27-18.33-11.89-21.78-36.43s9.29-52.44,9.29-52.44"/><path class="cls-2" d="M168.62,230.87c-8.95,1.74-18.93-10.91-23.66-35.24s6.54-52.85,6.54-52.85"/><path class="cls-2" d="M173.21,229.85c-8.84,2.2-19.48-9.91-25.47-34s3.76-53.12,3.76-53.12"/><path class="cls-2" d="M177.73,228.59c-8.72,2.66-20-8.88-27.21-32.57s1-53.24,1-53.24"/><path class="cls-2" d="M182.19,227.1c-8.56,3.12-20.41-7.82-28.88-31.1s-1.81-53.22-1.81-53.22"/><path class="cls-2" d="M186.56,225.38c-8.39,3.56-20.79-6.74-30.47-29.55s-4.59-53.05-4.59-53.05"/><path class="cls-2" d="M190.83,223.43c-8.19,4-21.11-5.64-32-27.92s-7.36-52.74-7.36-52.74"/><path class="cls-2" d="M195,221.26c-8,4.42-21.38-4.53-33.39-26.2s-10.11-52.28-10.11-52.28"/><path class="cls-2" d="M199.05,218.88c-7.73,4.83-21.59-3.4-34.72-24.42s-12.84-51.68-12.84-51.68"/><path class="cls-2" d="M203,216.29c-7.47,5.23-21.73-2.27-35.95-22.57s-15.52-50.94-15.52-50.94"/><path class="cls-2" d="M206.74,213.49c-7.18,5.61-21.82-1.13-37.08-20.66s-18.17-50.06-18.17-50.06"/><path class="cls-2" d="M210.37,210.5c-6.88,6-21.85,0-38.11-18.69s-20.76-49-20.76-49"/><path class="cls-2" d="M213.83,207.33c-6.56,6.33-21.82,1.16-39-16.67s-23.3-47.88-23.3-47.88"/><path class="cls-2" d="M217.13,204c-6.22,6.67-21.73,2.3-39.85-14.6s-25.78-46.6-25.78-46.6"/><path class="cls-2" d="M220.24,200.46c-5.86,7-21.58,3.43-40.56-12.5s-28.18-45.19-28.18-45.19"/><path class="cls-2" d="M223.16,196.78c-5.48,7.28-21.37,4.56-41.16-10.36s-30.51-43.65-30.51-43.65"/><path class="cls-2" d="M225.89,193c-5.1,7.56-21.1,5.67-41.65-8.19s-32.75-42-32.75-42"/><path class="cls-2" d="M228.42,189c-4.69,7.81-20.78,6.77-42-6s-34.9-40.22-34.9-40.22"/><path class="cls-2" d="M230.73,184.91c-4.28,8-20.4,7.84-42.28-3.79s-37-38.34-37-38.34"/><path class="cls-2" d="M232.83,180.7c-3.85,8.26-20,8.9-42.42-1.57s-38.91-36.35-38.91-36.35"/><path class="cls-2" d="M234.7,176.39c-3.41,8.45-19.46,9.93-42.44.65s-40.76-34.27-40.76-34.27"/><path class="cls-2" d="M236.35,172c-3,8.62-18.92,10.94-42.35,2.87s-42.5-32.09-42.5-32.09"/><path class="cls-2" d="M237.76,167.51c-2.51,8.76-18.32,11.91-42.14,5.08s-44.12-29.82-44.12-29.82"/><path class="cls-2" d="M238.93,163c-2.05,8.88-17.67,12.86-41.82,7.28s-45.62-27.47-45.62-27.47"/><path class="cls-2" d="M239.87,158.36c-1.58,9-17,13.76-41.38,9.46s-47-25-47-25"/><path class="cls-2" d="M240.57,153.71c-1.11,9-16.23,14.63-40.83,11.61s-48.24-22.55-48.24-22.55"/><path class="cls-2" d="M241,149c-.64,9.09-15.44,15.46-40.16,13.73s-49.36-20-49.36-20"/><path class="cls-2" d="M241.22,144.34c-.16,9.11-14.61,16.25-39.39,15.82s-50.34-17.38-50.34-17.38"/><path class="cls-2" d="M241.18,139.64c.32,9.11-13.74,17-38.51,17.86s-51.18-14.72-51.18-14.72"/><path class="cls-2" d="M240.89,135c.79,9.08-12.83,17.69-37.52,19.85s-51.88-12-51.88-12"/><path class="cls-2" d="M240.36,130.29c1.27,9-11.89,18.33-36.43,21.78s-52.44-9.29-52.44-9.29"/><path class="cls-2" d="M239.59,125.65c1.74,8.95-10.91,18.93-35.24,23.66s-52.85-6.54-52.85-6.54"/><path class="cls-2" d="M238.57,121.07c2.2,8.84-9.91,19.48-34,25.47s-53.12-3.76-53.12-3.76"/><path class="cls-2" d="M237.31,116.54c2.66,8.72-8.88,20-32.57,27.21s-53.24-1-53.24-1"/><path class="cls-2" d="M235.82,112.08c3.12,8.56-7.82,20.41-31.1,28.88s-53.22,1.81-53.22,1.81"/><path class="cls-2" d="M234.1,107.71c3.56,8.39-6.74,20.79-29.55,30.47s-53.05,4.59-53.05,4.59"/><path class="cls-2" d="M232.15,103.44c4,8.19-5.64,21.11-27.92,32s-52.74,7.36-52.74,7.36"/><path class="cls-2" d="M230,99.27c4.42,8-4.53,21.38-26.2,33.39s-52.28,10.11-52.28,10.11"/><path class="cls-2" d="M227.6,95.22c4.83,7.73-3.4,21.59-24.42,34.72s-51.68,12.84-51.68,12.84"/><path class="cls-2" d="M225,91.31c5.23,7.47-2.27,21.73-22.57,35.95s-50.94,15.52-50.94,15.52"/><path class="cls-2" d="M222.21,87.53c5.61,7.18-1.13,21.82-20.66,37.08s-50.06,18.17-50.06,18.17"/><path class="cls-2" d="M219.22,83.9c6,6.88,0,21.85-18.69,38.11s-49,20.76-49,20.76"/><path class="cls-2" d="M216,80.44c6.33,6.56,1.16,21.82-16.67,39s-47.88,23.3-47.88,23.3"/><path class="cls-2" d="M212.7,77.15c6.66,6.22,2.3,21.73-14.6,39.85s-46.6,25.78-46.6,25.78"/><path class="cls-2" d="M209.18,74c7,5.86,3.43,21.58-12.5,40.56s-45.19,28.18-45.19,28.18"/><path class="cls-2" d="M205.5,71.11c7.28,5.48,4.56,21.37-10.36,41.16s-43.65,30.51-43.65,30.51"/><path class="cls-2" d="M201.68,68.38c7.56,5.1,5.67,21.1-8.19,41.65s-42,32.75-42,32.75"/><path class="cls-2" d="M197.71,65.86c7.81,4.69,6.77,20.78-6,42s-40.22,34.9-40.22,34.9"/><path class="cls-2" d="M193.63,63.54c8,4.28,7.84,20.4-3.79,42.28s-38.34,37-38.34,37"/><path class="cls-2" d="M189.42,61.45c8.26,3.85,8.9,20-1.57,42.42s-36.35,38.91-36.35,38.91"/><path class="cls-2" d="M185.11,59.57C193.56,63,195,79,185.76,102s-34.27,40.76-34.27,40.76"/><path class="cls-2" d="M180.71,57.93c8.62,3,10.94,18.92,2.87,42.35s-32.09,42.5-32.09,42.5"/><path class="cls-2" d="M176.23,56.51C185,59,188.14,74.83,181.31,98.66s-29.82,44.12-29.82,44.12"/><path class="cls-2" d="M171.68,55.34c8.88,2,12.86,17.67,7.28,41.82s-27.47,45.62-27.47,45.62"/><path class="cls-2" d="M167.08,54.4c9,1.58,13.76,17,9.46,41.38s-25,47-25,47"/><path class="cls-2" d="M162.43,53.71c9,1.11,14.63,16.23,11.61,40.83s-22.55,48.24-22.55,48.24"/><path class="cls-2" d="M157.76,53.26c9.09.64,15.46,15.44,13.73,40.16s-20,49.36-20,49.36"/><path class="cls-2" d="M153.06,53.05c9.11.16,16.25,14.61,15.82,39.39s-17.38,50.34-17.38,50.34"/><path class="cls-2" d="M148.36,53.09c9.11-.32,17,13.74,17.86,38.51s-14.72,51.18-14.72,51.18"/><path class="cls-2" d="M143.67,53.38c9.08-.79,17.69,12.83,19.85,37.52s-12,51.88-12,51.88"/><path class="cls-5" d="M62.17,134.18C63,125.1,78,119.12,102.68,121.5s48.82,21.28,48.82,21.28"/><path class="cls-5" d="M62.74,129.51c1.35-9,16.61-14.2,41.12-10.54s47.64,23.8,47.64,23.8"/><path class="cls-5" d="M61.84,138.86c.4-9.1,15-15.86,39.79-14.78s49.86,18.69,49.86,18.69"/><path class="cls-5" d="M61.76,143.56c-.08-9.11,14.18-16.63,39-16.84s50.77,16.06,50.77,16.06"/><path class="cls-5" d="M61.93,148.26c-.56-9.1,13.29-17.35,38-18.86s51.54,13.38,51.54,13.38"/><path class="cls-5" d="M62.33,152.94c-1-9.05,12.37-18,37-20.82s52.17,10.66,52.17,10.66"/><path class="cls-5" d="M63,157.59c-1.5-9,11.41-18.64,35.85-22.73s52.66,7.92,52.66,7.92"/><path class="cls-5" d="M63.88,162.2c-2-8.9,10.41-19.21,34.61-24.57s53,5.15,53,5.15"/><path class="cls-5" d="M65,166.76C62.59,158,74.42,147,98.3,140.41s53.2,2.37,53.2,2.37"/><path class="cls-5" d="M66.39,171.25c-2.89-8.64,8.35-20.19,31.85-28.06s53.25-.42,53.25-.42"/><path class="cls-5" d="M68,175.67c-3.34-8.48,7.28-20.6,30.34-29.69s53.16-3.2,53.16-3.2"/><path class="cls-5" d="M69.84,180c-3.78-8.29,6.19-21,28.74-31.23s52.92-6,52.92-6"/><path class="cls-5" d="M71.9,184.21C67.69,176.13,77,163,99,151.52s52.53-8.74,52.53-8.74"/><path class="cls-5" d="M74.17,188.32c-4.63-7.85,4-21.49,25.32-34.07s52-11.48,52-11.48"/><path class="cls-5" d="M76.66,192.31c-5-7.6,2.84-21.67,23.5-35.34s51.33-14.19,51.33-14.19"/><path class="cls-5" d="M79.36,196.16c-5.42-7.33,1.7-21.79,21.62-36.53s50.52-16.85,50.52-16.85"/><path class="cls-5" d="M82.25,199.86c-5.8-7,.56-21.85,19.68-37.61s49.56-19.47,49.56-19.47"/><path class="cls-5" d="M85.33,203.4c-6.16-6.72-.59-21.84,17.68-38.59s48.48-22,48.48-22"/><path class="cls-5" d="M88.6,206.78c-6.5-6.39-1.73-21.78,15.64-39.46s47.26-24.55,47.26-24.55"/><path class="cls-5" d="M92,210c-6.83-6-2.87-21.66,13.55-40.22s45.91-27,45.91-27"/><path class="cls-5" d="M95.63,213c-7.13-5.67-4-21.48,11.43-40.88s44.43-29.35,44.43-29.35"/><path class="cls-5" d="M99.38,215.83c-7.42-5.29-5.11-21.25,9.28-41.42s42.84-31.64,42.84-31.64"/><path class="cls-5" d="M103.28,218.46c-7.69-4.9-6.22-20.95,7.1-41.85s41.12-33.84,41.12-33.84"/><path class="cls-5" d="M107.31,220.88c-7.93-4.49-7.31-20.59,4.9-42.16s39.29-35.94,39.29-35.94"/><path class="cls-5" d="M111.45,223.09c-8.16-4.07-8.38-20.18,2.68-42.36s37.36-37.95,37.36-37.95"/><path class="cls-5" d="M115.71,225.07c-8.36-3.63-9.42-19.72.46-42.44s35.32-39.85,35.32-39.85"/><path class="cls-5" d="M120.07,226.83c-8.54-3.19-10.44-19.2-1.76-42.41s33.19-41.65,33.19-41.65"/><path class="cls-5" d="M124.51,228.36c-8.69-2.74-11.43-18.63-4-42.26s31-43.33,31-43.33"/><path class="cls-5" d="M129,229.66c-8.82-2.28-12.39-18-6.18-42s28.65-44.89,28.65-44.89"/><path class="cls-5" d="M133.61,230.71c-8.93-1.82-13.31-17.33-8.37-41.61s26.26-46.33,26.26-46.33"/><path class="cls-5" d="M138.23,231.53c-9-1.35-14.2-16.61-10.54-41.12s23.8-47.64,23.8-47.64"/><path class="cls-5" d="M142.9,232.1c-9.07-.87-15.05-15.84-12.68-40.51s21.28-48.82,21.28-48.82"/><path class="cls-5" d="M147.58,232.43c-9.1-.4-15.86-15-14.78-39.79s18.69-49.86,18.69-49.86"/><path class="cls-5" d="M152.28,232.51c-9.11.08-16.63-14.18-16.84-39s16.06-50.77,16.06-50.77"/><path class="cls-5" d="M157,232.35c-9.1.56-17.34-13.29-18.86-38s13.38-51.54,13.38-51.54"/><path class="cls-5" d="M161.65,231.94c-9.05,1-18-12.37-20.82-37s10.66-52.17,10.66-52.17"/><path class="cls-5" d="M166.31,231.28c-9,1.5-18.64-11.41-22.73-35.85s7.92-52.66,7.92-52.66"/><path class="cls-5" d="M170.92,230.39c-8.9,2-19.21-10.42-24.57-34.61s5.15-53,5.15-53"/><path class="cls-5" d="M175.48,229.25c-8.78,2.44-19.73-9.4-26.35-33.27s2.37-53.2,2.37-53.2"/><path class="cls-5" d="M180,227.88c-8.64,2.89-20.19-8.35-28.06-31.85s-.42-53.25-.42-53.25"/><path class="cls-5" d="M184.39,226.27c-8.48,3.34-20.6-7.28-29.69-30.34s-3.2-53.16-3.2-53.16"/><path class="cls-5" d="M188.71,224.44c-8.29,3.78-21-6.19-31.23-28.74s-6-52.92-6-52.92"/><path class="cls-5" d="M192.93,222.38c-8.08,4.21-21.25-5.09-32.69-27.07s-8.74-52.53-8.74-52.53"/><path class="cls-5" d="M197,220.1c-7.85,4.63-21.49-4-34.07-25.32s-11.48-52-11.48-52"/><path class="cls-5" d="M201,217.61c-7.6,5-21.67-2.84-35.34-23.5s-14.19-51.33-14.19-51.33"/><path class="cls-5" d="M204.87,214.91c-7.33,5.42-21.79-1.7-36.53-21.62s-16.85-50.52-16.85-50.52"/><path class="cls-5" d="M208.58,212c-7,5.8-21.85-.56-37.61-19.68s-19.47-49.56-19.47-49.56"/><path class="cls-5" d="M212.12,208.94c-6.72,6.16-21.84.59-38.59-17.68s-22-48.48-22-48.48"/><path class="cls-5" d="M215.5,205.68c-6.39,6.5-21.78,1.73-39.46-15.64s-24.55-47.26-24.55-47.26"/><path class="cls-5" d="M218.71,202.24c-6,6.83-21.66,2.87-40.22-13.55s-27-45.91-27-45.91"/><path class="cls-5" d="M221.73,198.64c-5.67,7.13-21.48,4-40.88-11.43s-29.35-44.43-29.35-44.43"/><path class="cls-5" d="M224.55,194.89c-5.29,7.42-21.25,5.11-41.42-9.28s-31.64-42.84-31.64-42.84"/><path class="cls-5" d="M227.18,191c-4.9,7.69-20.95,6.22-41.85-7.09s-33.84-41.12-33.84-41.12"/><path class="cls-5" d="M229.6,187c-4.49,7.93-20.59,7.31-42.16-4.9s-35.94-39.29-35.94-39.29"/><path class="cls-5" d="M231.81,182.82c-4.07,8.16-20.18,8.38-42.36-2.68s-37.95-37.36-37.95-37.36"/><path class="cls-5" d="M233.79,178.56c-3.63,8.36-19.72,9.42-42.44-.46s-39.85-35.32-39.85-35.32"/><path class="cls-5" d="M235.55,174.2c-3.19,8.54-19.2,10.44-42.41,1.76s-41.65-33.19-41.65-33.19"/><path class="cls-5" d="M237.08,169.76c-2.74,8.69-18.63,11.43-42.26,4s-43.33-31-43.33-31"/><path class="cls-5" d="M238.38,165.25c-2.28,8.82-18,12.39-42,6.18s-44.89-28.65-44.89-28.65"/><path class="cls-5" d="M239.43,160.67C237.62,169.6,222.1,174,197.82,169s-46.33-26.26-46.33-26.26"/><path class="cls-5" d="M240.25,156c-1.35,9-16.61,14.2-41.12,10.54s-47.64-23.8-47.64-23.8"/><path class="cls-5" d="M240.82,151.38c-.87,9.07-15.84,15.05-40.51,12.68s-48.82-21.28-48.82-21.28"/><path class="cls-5" d="M241.15,146.69c-.4,9.1-15,15.86-39.79,14.78s-49.86-18.69-49.86-18.69"/><path class="cls-5" d="M241.23,142c.08,9.11-14.18,16.63-39,16.84s-50.77-16.06-50.77-16.06"/><path class="cls-5" d="M241.07,137.3c.56,9.1-13.29,17.34-38,18.86s-51.54-13.38-51.54-13.38"/><path class="cls-5" d="M240.66,132.62c1,9.05-12.37,18-37,20.82s-52.17-10.66-52.17-10.66"/><path class="cls-5" d="M240,128c1.5,9-11.41,18.64-35.85,22.73s-52.66-7.92-52.66-7.92"/><path class="cls-5" d="M239.11,123.35c2,8.9-10.42,19.21-34.61,24.57s-53-5.15-53-5.15"/><path class="cls-5" d="M238,118.8c2.44,8.78-9.4,19.73-33.27,26.35s-53.2-2.37-53.2-2.37"/><path class="cls-5" d="M236.6,114.3c2.89,8.64-8.35,20.19-31.85,28.06s-53.25.42-53.25.42"/><path class="cls-5" d="M235,109.89c3.34,8.48-7.28,20.6-30.34,29.69s-53.16,3.2-53.16,3.2"/><path class="cls-5" d="M233.15,105.56c3.78,8.29-6.19,21-28.74,31.23s-52.92,6-52.92,6"/><path class="cls-5" d="M231.09,101.34C235.3,109.42,226,122.59,204,134s-52.53,8.74-52.53,8.74"/><path class="cls-5" d="M228.82,97.23c4.63,7.85-4,21.49-25.32,34.07s-52,11.48-52,11.48"/><path class="cls-5" d="M226.33,93.25c5,7.6-2.84,21.67-23.5,35.34s-51.33,14.19-51.33,14.19"/><path class="cls-5" d="M223.63,89.4c5.42,7.33-1.7,21.79-21.62,36.53s-50.52,16.85-50.52,16.85"/><path class="cls-5" d="M220.74,85.7c5.8,7-.56,21.85-19.68,37.61s-49.56,19.47-49.56,19.47"/><path class="cls-5" d="M217.66,82.15c6.16,6.72.59,21.84-17.68,38.59s-48.48,22-48.48,22"/><path class="cls-5" d="M214.39,78.77c6.5,6.39,1.73,21.78-15.64,39.46s-47.26,24.55-47.26,24.55"/><path class="cls-5" d="M211,75.57c6.83,6,2.87,21.66-13.55,40.22s-45.91,27-45.91,27"/><path class="cls-5" d="M207.36,72.55c7.13,5.67,4,21.48-11.43,40.88s-44.43,29.35-44.43,29.35"/><path class="cls-5" d="M203.61,69.72C211,75,208.72,91,194.33,111.14s-42.84,31.64-42.84,31.64"/><path class="cls-5" d="M199.71,67.09c7.69,4.9,6.22,20.95-7.1,41.85s-41.12,33.84-41.12,33.84"/><path class="cls-5" d="M195.69,64.67c7.93,4.49,7.31,20.59-4.9,42.16s-39.29,35.94-39.29,35.94"/><path class="cls-5" d="M191.54,62.47c8.16,4.07,8.37,20.18-2.68,42.36s-37.36,37.95-37.36,37.95"/><path class="cls-5" d="M187.28,60.48c8.36,3.63,9.42,19.72-.46,42.44s-35.32,39.85-35.32,39.85"/><path class="cls-5" d="M182.92,58.72c8.54,3.19,10.44,19.2,1.76,42.41s-33.19,41.65-33.19,41.65"/><path class="cls-5" d="M178.48,57.19c8.69,2.74,11.43,18.63,4,42.26s-31,43.33-31,43.33"/><path class="cls-5" d="M174,55.9c8.82,2.28,12.39,18,6.18,42s-28.65,44.89-28.65,44.89"/><path class="cls-5" d="M169.39,54.84c8.93,1.82,13.31,17.33,8.37,41.61s-26.26,46.33-26.26,46.33"/><path class="cls-5" d="M164.76,54c9,1.35,14.2,16.61,10.54,41.12s-23.8,47.64-23.8,47.64"/><path class="cls-5" d="M160.1,53.45c9.07.87,15.05,15.84,12.68,40.51s-21.28,48.82-21.28,48.82"/><path class="cls-5" d="M155.41,53.12c9.1.4,15.86,15,14.78,39.79s-18.69,49.86-18.69,49.86"/><path class="cls-5" d="M150.71,53c9.11-.08,16.63,14.18,16.84,39s-16.06,50.77-16.06,50.77"/><path class="cls-3" d="M489,53.91c9-1.27,18.33,11.89,21.78,36.43s-9.29,52.44-9.29,52.44"/><path class="cls-3" d="M484.37,54.69C493.32,52.95,503.3,65.6,508,89.93s-6.54,52.85-6.54,52.85"/><path class="cls-3" d="M479.79,55.7c8.84-2.2,19.48,9.91,25.47,34s-3.76,53.12-3.76,53.12"/><path class="cls-3" d="M475.26,57c2.73-.84,5.71-.27,8.74,1.62,6.63,4.15,13.5,14.69,18.47,31,7.25,23.7-1,53.24-1,53.24"/><path class="cls-3" d="M470.8,58.45c8.56-3.12,20.41,7.82,28.88,31.1s1.81,53.22,1.81,53.22"/><path class="cls-3" d="M466.43,60.17c8.39-3.56,20.79,6.74,30.47,29.55s4.59,53.05,4.59,53.05"/><path class="cls-3" d="M462.16,62.12c8.19-4,21.11,5.64,32,27.92s7.36,52.74,7.36,52.74"/><path class="cls-3" d="M458,64.29c8-4.42,21.38,4.53,33.39,26.2s10.11,52.28,10.11,52.28"/><path class="cls-3" d="M453.94,66.67c7.73-4.83,21.59,3.4,34.72,24.42s12.84,51.68,12.84,51.68"/><path class="cls-3" d="M450,69.27C457.49,64,471.76,71.54,486,91.84s15.52,50.94,15.52,50.94"/><path class="cls-3" d="M446.25,72.06c7.18-5.61,21.82,1.13,37.08,20.66s18.17,50.06,18.17,50.06"/><path class="cls-3" d="M442.62,75.05c6.88-6,21.85,0,38.11,18.69s20.76,49,20.76,49"/><path class="cls-3" d="M439.16,78.22c6.56-6.33,21.82-1.16,39,16.67s23.3,47.88,23.3,47.88"/><path class="cls-3" d="M435.87,81.58c6.22-6.67,21.73-2.3,39.85,14.6s25.78,46.6,25.78,46.6"/><path class="cls-3" d="M432.75,85.09c5.86-7,21.58-3.43,40.56,12.5s28.18,45.19,28.18,45.19"/><path class="cls-3" d="M429.83,88.77c5.48-7.28,21.37-4.56,41.16,10.36s30.51,43.65,30.51,43.65"/><path class="cls-3" d="M427.1,92.6c5.1-7.56,21.1-5.67,41.65,8.19s32.75,42,32.75,42"/><path class="cls-3" d="M424.58,96.56c4.69-7.81,20.78-6.77,42,6s34.9,40.22,34.9,40.22"/><path class="cls-3" d="M422.26,100.65c4.28-8,20.4-7.84,42.28,3.79s37,38.34,37,38.34"/><path class="cls-3" d="M420.17,104.85c3.85-8.26,20-8.9,42.42,1.57s38.91,36.35,38.91,36.35"/><path class="cls-3" d="M418.29,109.16c3.41-8.45,19.46-9.93,42.44-.65s40.76,34.27,40.76,34.27"/><path class="cls-3" d="M416.65,113.56c3-8.62,18.92-10.94,42.35-2.87s42.5,32.09,42.5,32.09"/><path class="cls-3" d="M415.23,118c2.51-8.76,18.32-11.91,42.14-5.08s44.12,29.82,44.12,29.82"/><path class="cls-3" d="M414.06,122.59c2.05-8.88,17.67-12.86,41.82-7.28s45.62,27.47,45.62,27.47"/><path class="cls-3" d="M413.12,127.19c1.58-9,17-13.76,41.38-9.46s47,25,47,25"/><path class="cls-3" d="M412.43,131.84c1.11-9,16.23-14.63,40.83-11.61s48.24,22.55,48.24,22.55"/><path class="cls-3" d="M412,136.52c.64-9.09,15.44-15.46,40.16-13.73s49.36,20,49.36,20"/><path class="cls-3" d="M411.77,141.21c.16-9.11,14.61-16.25,39.39-15.82s50.34,17.38,50.34,17.38"/><path class="cls-3" d="M411.81,145.91c-.32-9.11,13.74-17,38.51-17.86s51.18,14.72,51.18,14.72"/><path class="cls-3" d="M412.1,150.6c-.79-9.08,12.83-17.69,37.52-19.85s51.88,12,51.88,12"/><path class="cls-3" d="M412.63,155.27c-1.27-9,11.89-18.33,36.43-21.78s52.44,9.29,52.44,9.29"/><path class="cls-3" d="M413.41,159.9c-1.74-8.95,10.91-18.93,35.24-23.66s52.85,6.54,52.85,6.54"/><path class="cls-3" d="M414.42,164.49c-2.2-8.84,9.91-19.48,34-25.47s53.12,3.76,53.12,3.76"/><path class="cls-3" d="M415.68,169c-2.66-8.72,8.88-20,32.57-27.21s53.24,1,53.24,1"/><path class="cls-3" d="M417.17,173.47c-3.12-8.56,7.82-20.41,31.1-28.88s53.22-1.81,53.22-1.81"/><path class="cls-3" d="M418.89,177.84c-3.56-8.39,6.74-20.79,29.55-30.47s53.05-4.59,53.05-4.59"/><path class="cls-3" d="M420.84,182.12c-4-8.19,5.64-21.11,27.92-32s52.74-7.36,52.74-7.36"/><path class="cls-3" d="M423,186.28c-4.42-8,4.53-21.38,26.2-33.39s52.28-10.11,52.28-10.11"/><path class="cls-3" d="M425.39,190.33c-4.83-7.73,3.41-21.59,24.42-34.72s51.68-12.84,51.68-12.84"/><path class="cls-3" d="M428,194.25c-5.23-7.47,2.27-21.73,22.57-35.95s50.94-15.52,50.94-15.52"/><path class="cls-3" d="M430.78,198c-5.61-7.18,1.13-21.82,20.66-37.08s50.06-18.17,50.06-18.17"/><path class="cls-3" d="M433.77,201.65c-6-6.88,0-21.85,18.69-38.11s49-20.76,49-20.76"/><path class="cls-3" d="M436.94,205.11c-6.33-6.56-1.16-21.82,16.67-39s47.88-23.3,47.88-23.3"/><path class="cls-3" d="M440.29,208.41c-6.67-6.22-2.3-21.73,14.6-39.85s46.6-25.78,46.6-25.78"/><path class="cls-3" d="M443.81,211.52c-7-5.86-3.43-21.58,12.5-40.56s45.19-28.18,45.19-28.18"/><path class="cls-3" d="M447.49,214.44c-7.28-5.48-4.56-21.37,10.36-41.16s43.65-30.51,43.65-30.51"/><path class="cls-3" d="M451.32,217.17c-7.56-5.1-5.67-21.1,8.19-41.65s42-32.75,42-32.75"/><path class="cls-3" d="M455.28,219.7c-7.81-4.69-6.77-20.78,6-42s40.22-34.9,40.22-34.9"/><path class="cls-3" d="M459.37,222c-8-4.28-7.84-20.4,3.79-42.28s38.34-37,38.34-37"/><path class="cls-3" d="M463.57,224.11c-8.26-3.85-8.9-20,1.57-42.42s36.35-38.91,36.35-38.91"/><path class="cls-3" d="M467.88,226c-8.45-3.41-9.93-19.46-.65-42.44s34.27-40.76,34.27-40.76"/><path class="cls-3" d="M472.28,227.63c-8.62-3-10.94-18.92-2.87-42.35s32.09-42.5,32.09-42.5"/><path class="cls-3" d="M476.76,229c-8.76-2.51-11.91-18.32-5.08-42.14s29.82-44.12,29.82-44.12"/><path class="cls-3" d="M481.31,230.22c-8.88-2.05-12.86-17.67-7.28-41.82s27.47-45.62,27.47-45.62"/><path class="cls-3" d="M485.91,231.15c-9-1.58-13.76-17-9.46-41.38s25-47,25-47"/><path class="cls-3" d="M490.56,231.85c-9-1.11-14.63-16.23-11.61-40.83s22.55-48.24,22.55-48.24"/><path class="cls-3" d="M495.24,232.3c-9.09-.64-15.46-15.44-13.73-40.16s20-49.36,20-49.36"/><path class="cls-3" d="M499.93,232.5c-9.11-.16-16.25-14.61-15.82-39.39s17.38-50.34,17.38-50.34"/><path class="cls-3" d="M504.63,232.46c-9.11.32-17-13.74-17.86-38.51s14.72-51.18,14.72-51.18"/><path class="cls-3" d="M509.32,232.17c-9.08.79-17.69-12.83-19.85-37.52s12-51.88,12-51.88"/><path class="cls-3" d="M514,231.64c-9,1.27-18.33-11.89-21.78-36.43s9.29-52.44,9.29-52.44"/><path class="cls-3" d="M518.62,230.87c-8.95,1.74-18.93-10.91-23.66-35.24s6.54-52.85,6.54-52.85"/><path class="cls-3" d="M523.21,229.85c-8.84,2.2-19.48-9.91-25.47-34s3.76-53.12,3.76-53.12"/><path class="cls-3" d="M527.73,228.59c-8.72,2.66-20-8.88-27.21-32.57s1-53.24,1-53.24"/><path class="cls-3" d="M532.19,227.1c-8.56,3.12-20.41-7.82-28.88-31.1s-1.81-53.22-1.81-53.22"/><path class="cls-3" d="M536.56,225.38c-8.39,3.56-20.79-6.74-30.47-29.55s-4.59-53.05-4.59-53.05"/><path class="cls-3" d="M540.83,223.43c-8.19,4-21.11-5.64-32-27.92s-7.36-52.74-7.36-52.74"/><path class="cls-3" d="M545,221.26c-8,4.42-21.38-4.53-33.39-26.2s-10.11-52.28-10.11-52.28"/><path class="cls-3" d="M549.05,218.88c-7.73,4.83-21.59-3.4-34.72-24.42s-12.84-51.68-12.84-51.68"/><path class="cls-3" d="M553,216.29c-7.47,5.23-21.73-2.27-35.95-22.57s-15.52-50.94-15.52-50.94"/><path class="cls-3" d="M556.74,213.49c-7.18,5.61-21.82-1.13-37.08-20.66s-18.17-50.06-18.17-50.06"/><path class="cls-3" d="M560.37,210.5c-6.88,6-21.85,0-38.11-18.69s-20.76-49-20.76-49"/><path class="cls-3" d="M563.83,207.33c-6.56,6.33-21.82,1.16-39-16.67s-23.3-47.88-23.3-47.88"/><path class="cls-3" d="M567.13,204c-6.22,6.67-21.73,2.3-39.85-14.6s-25.78-46.6-25.78-46.6"/><path class="cls-3" d="M570.24,200.46c-5.86,7-21.58,3.43-40.56-12.5s-28.18-45.19-28.18-45.19"/><path class="cls-3" d="M573.16,196.78c-5.48,7.28-21.37,4.56-41.16-10.36s-30.51-43.65-30.51-43.65"/><path class="cls-3" d="M575.89,193c-5.1,7.56-21.1,5.67-41.65-8.19s-32.75-42-32.75-42"/><path class="cls-3" d="M578.42,189c-4.69,7.81-20.78,6.77-42-6s-34.9-40.22-34.9-40.22"/><path class="cls-3" d="M580.73,184.91c-4.28,8-20.4,7.84-42.28-3.79s-37-38.34-37-38.34"/><path class="cls-3" d="M582.83,180.7c-3.85,8.26-20,8.9-42.42-1.57s-38.91-36.35-38.91-36.35"/><path class="cls-3" d="M584.7,176.39c-3.41,8.45-19.46,9.93-42.44.65s-40.76-34.27-40.76-34.27"/><path class="cls-3" d="M586.35,172c-3,8.62-18.92,10.94-42.35,2.87s-42.5-32.09-42.5-32.09"/><path class="cls-3" d="M587.76,167.51c-2.51,8.76-18.32,11.91-42.14,5.08s-44.12-29.82-44.12-29.82"/><path class="cls-3" d="M588.93,163c-2.05,8.88-17.67,12.86-41.82,7.28s-45.62-27.47-45.62-27.47"/><path class="cls-3" d="M589.87,158.36c-1.58,9-17,13.76-41.38,9.46s-47-25-47-25"/><path class="cls-3" d="M590.57,153.71c-1.11,9-16.23,14.63-40.83,11.61s-48.24-22.55-48.24-22.55"/><path class="cls-3" d="M591,149c-.64,9.09-15.44,15.46-40.16,13.73s-49.36-20-49.36-20"/><path class="cls-3" d="M591.22,144.34c-.16,9.11-14.61,16.25-39.39,15.82s-50.34-17.38-50.34-17.38"/><path class="cls-3" d="M591.18,139.64c.32,9.11-13.74,17-38.51,17.86s-51.18-14.72-51.18-14.72"/><path class="cls-3" d="M590.89,135c.79,9.08-12.83,17.69-37.52,19.85s-51.88-12-51.88-12"/><path class="cls-3" d="M590.36,130.29c1.27,9-11.89,18.33-36.43,21.78s-52.44-9.29-52.44-9.29"/><path class="cls-3" d="M589.59,125.65c1.74,8.95-10.91,18.93-35.24,23.66s-52.85-6.54-52.85-6.54"/><path class="cls-3" d="M588.57,121.07c2.2,8.84-9.91,19.48-34,25.47s-53.12-3.76-53.12-3.76"/><path class="cls-3" d="M587.31,116.54c2.66,8.72-8.88,20-32.57,27.21s-53.24-1-53.24-1"/><path class="cls-3" d="M585.82,112.08c3.12,8.56-7.82,20.41-31.1,28.88s-53.22,1.81-53.22,1.81"/><path class="cls-3" d="M584.1,107.71c3.56,8.39-6.74,20.79-29.55,30.47s-53.05,4.59-53.05,4.59"/><path class="cls-3" d="M582.15,103.44c4,8.19-5.64,21.11-27.92,32s-52.74,7.36-52.74,7.36"/><path class="cls-3" d="M580,99.27c4.42,8-4.53,21.38-26.2,33.39s-52.28,10.11-52.28,10.11"/><path class="cls-3" d="M577.6,95.22c4.83,7.73-3.4,21.59-24.42,34.72s-51.68,12.84-51.68,12.84"/><path class="cls-3" d="M575,91.3c5.23,7.47-2.27,21.73-22.57,35.95s-50.94,15.52-50.94,15.52"/><path class="cls-3" d="M572.21,87.53c5.61,7.18-1.13,21.82-20.66,37.08s-50.06,18.17-50.06,18.17"/><path class="cls-3" d="M569.22,83.9c6,6.88,0,21.85-18.69,38.11s-49,20.76-49,20.76"/><path class="cls-3" d="M566,80.44c6.33,6.56,1.16,21.82-16.67,39s-47.88,23.3-47.88,23.3"/><path class="cls-3" d="M562.7,77.15c6.66,6.22,2.3,21.73-14.6,39.85s-46.6,25.78-46.6,25.78"/><path class="cls-3" d="M559.18,74c7,5.86,3.43,21.58-12.5,40.56s-45.19,28.18-45.19,28.18"/><path class="cls-3" d="M555.5,71.11c7.28,5.48,4.56,21.37-10.36,41.16s-43.65,30.51-43.65,30.51"/><path class="cls-3" d="M551.68,68.38c7.56,5.1,5.67,21.1-8.19,41.65s-42,32.75-42,32.75"/><path class="cls-3" d="M547.71,65.86c7.81,4.69,6.77,20.78-6,42s-40.22,34.9-40.22,34.9"/><path class="cls-3" d="M543.63,63.54c8,4.28,7.84,20.4-3.79,42.28s-38.34,37-38.34,37"/><path class="cls-3" d="M539.42,61.45c8.26,3.85,8.9,20-1.57,42.42s-36.35,38.91-36.35,38.91"/><path class="cls-3" d="M535.11,59.57C543.56,63,545,79,535.76,102s-34.27,40.76-34.27,40.76"/><path class="cls-3" d="M530.71,57.93c8.62,3,10.94,18.92,2.87,42.35s-32.09,42.5-32.09,42.5"/><path class="cls-3" d="M526.23,56.51C535,59,538.14,74.83,531.31,98.66s-29.82,44.12-29.82,44.12"/><path class="cls-3" d="M521.68,55.34c8.88,2,12.86,17.67,7.28,41.82s-27.47,45.62-27.47,45.62"/><path class="cls-3" d="M517.08,54.4c9,1.58,13.76,17,9.46,41.38s-25,47-25,47"/><path class="cls-3" d="M512.43,53.71c9,1.11,14.63,16.23,11.61,40.83s-22.55,48.24-22.55,48.24"/><path class="cls-3" d="M507.76,53.26c9.09.64,15.46,15.44,13.73,40.16s-20,49.36-20,49.36"/><path class="cls-3" d="M503.06,53.05c9.11.16,16.25,14.61,15.82,39.39s-17.38,50.34-17.38,50.34"/><path class="cls-3" d="M498.36,53.09c9.11-.32,17,13.74,17.86,38.51s-14.72,51.18-14.72,51.18"/><path class="cls-3" d="M493.67,53.38c9.08-.79,17.69,12.83,19.85,37.52s-12,51.88-12,51.88"/><path class="cls-6" d="M414.91,166.76c-2.44-8.78,9.4-19.73,33.27-26.35s53.2,2.37,53.2,2.37"/><path class="cls-6" d="M413.78,162.2c-2-8.9,10.42-19.21,34.61-24.57s53,5.15,53,5.15"/><path class="cls-6" d="M416.29,171.25c-2.89-8.64,8.35-20.19,31.85-28.06s53.25-.42,53.25-.42"/><path class="cls-6" d="M417.89,175.67c-3.34-8.48,7.28-20.6,30.34-29.69s53.16-3.2,53.16-3.2"/><path class="cls-6" d="M419.73,180c-3.78-8.29,6.19-21,28.74-31.23s52.92-6,52.92-6"/><path class="cls-6" d="M421.79,184.21c-4.21-8.08,5.09-21.25,27.07-32.69s52.53-8.74,52.53-8.74"/><path class="cls-6" d="M424.07,188.32c-4.63-7.85,4-21.49,25.32-34.07s52-11.48,52-11.48"/><path class="cls-6" d="M426.55,192.31c-5-7.6,2.84-21.67,23.5-35.34s51.33-14.19,51.33-14.19"/><path class="cls-6" d="M429.25,196.16c-5.42-7.33,1.7-21.79,21.62-36.53s50.52-16.85,50.52-16.85"/><path class="cls-6" d="M432.14,199.86c-5.8-7,.56-21.85,19.68-37.61s49.56-19.47,49.56-19.47"/><path class="cls-6" d="M435.22,203.4c-6.16-6.72-.59-21.84,17.68-38.59s48.48-22,48.48-22"/><path class="cls-6" d="M438.49,206.78c-6.5-6.39-1.73-21.78,15.64-39.46s47.26-24.55,47.26-24.55"/><path class="cls-6" d="M441.92,210c-6.83-6-2.87-21.66,13.55-40.22s45.91-27,45.91-27"/><path class="cls-6" d="M445.52,213c-7.13-5.67-4-21.48,11.43-40.88s44.43-29.35,44.43-29.35"/><path class="cls-6" d="M449.27,215.83c-7.42-5.29-5.11-21.25,9.28-41.42s42.84-31.64,42.84-31.64"/><path class="cls-6" d="M453.17,218.46c-7.69-4.9-6.22-20.95,7.1-41.85s41.12-33.84,41.12-33.84"/><path class="cls-6" d="M457.2,220.88c-7.93-4.49-7.31-20.59,4.9-42.16s39.29-35.94,39.29-35.94"/><path class="cls-6" d="M461.35,223.09C453.19,219,453,202.9,464,180.73s37.36-37.95,37.36-37.95"/><path class="cls-6" d="M465.6,225.07c-8.36-3.63-9.42-19.72.46-42.44s35.32-39.85,35.32-39.85"/><path class="cls-6" d="M470,226.83c-8.54-3.19-10.44-19.2-1.76-42.41s33.19-41.65,33.19-41.65"/><path class="cls-6" d="M474.4,228.36c-8.69-2.74-11.43-18.63-4-42.26s31-43.33,31-43.33"/><path class="cls-6" d="M478.92,229.66c-8.82-2.28-12.39-18-6.18-42s28.65-44.89,28.65-44.89"/><path class="cls-6" d="M483.5,230.71c-8.93-1.82-13.31-17.33-8.37-41.61s26.26-46.33,26.26-46.33"/><path class="cls-6" d="M488.12,231.53c-9-1.35-14.2-16.61-10.54-41.12s23.8-47.64,23.8-47.64"/><path class="cls-6" d="M492.79,232.1c-9.07-.87-15.05-15.84-12.68-40.51s21.28-48.82,21.28-48.82"/><path class="cls-6" d="M497.47,232.43c-9.1-.4-15.86-15-14.78-39.79s18.69-49.86,18.69-49.86"/><path class="cls-6" d="M502.17,232.51c-9.11.08-16.63-14.18-16.84-39s16.06-50.77,16.06-50.77"/><path class="cls-6" d="M506.86,232.35c-9.1.56-17.34-13.29-18.86-38s13.38-51.54,13.38-51.54"/><path class="cls-6" d="M511.55,231.94c-9.05,1-18-12.37-20.82-37s10.66-52.17,10.66-52.17"/><path class="cls-6" d="M516.2,231.28c-9,1.5-18.64-11.41-22.73-35.85s7.92-52.66,7.92-52.66"/><path class="cls-6" d="M520.81,230.39c-8.9,2-19.21-10.42-24.57-34.61s5.15-53,5.15-53"/><path class="cls-6" d="M525.37,229.25c-8.78,2.44-19.73-9.4-26.35-33.27s2.37-53.2,2.37-53.2"/><path class="cls-6" d="M529.86,227.88c-8.64,2.89-20.19-8.35-28.06-31.85s-.42-53.25-.42-53.25"/><path class="cls-6" d="M534.28,226.27c-8.48,3.34-20.6-7.28-29.69-30.34s-3.2-53.16-3.2-53.16"/><path class="cls-6" d="M538.6,224.44c-8.29,3.78-21-6.19-31.23-28.74s-6-52.92-6-52.92"/><path class="cls-6" d="M542.82,222.38c-8.08,4.21-21.25-5.09-32.69-27.07s-8.74-52.53-8.74-52.53"/><path class="cls-6" d="M546.93,220.1c-7.85,4.63-21.49-4-34.07-25.32s-11.48-52-11.48-52"/><path class="cls-6" d="M550.92,217.61c-7.6,5-21.67-2.84-35.34-23.5s-14.19-51.33-14.19-51.33"/><path class="cls-6" d="M554.76,214.91c-7.33,5.42-21.79-1.7-36.53-21.62s-16.85-50.52-16.85-50.52"/><path class="cls-6" d="M558.47,212c-7,5.8-21.85-.56-37.61-19.68s-19.47-49.56-19.47-49.56"/><path class="cls-6" d="M562,208.94c-6.72,6.16-21.84.59-38.59-17.68s-22-48.48-22-48.48"/><path class="cls-6" d="M565.39,205.68c-6.39,6.5-21.78,1.73-39.46-15.64s-24.55-47.26-24.55-47.26"/><path class="cls-6" d="M568.6,202.24c-6,6.83-21.66,2.87-40.22-13.55s-27-45.91-27-45.91"/><path class="cls-6" d="M571.62,198.64c-5.67,7.13-21.48,4-40.88-11.43s-29.35-44.43-29.35-44.43"/><path class="cls-6" d="M574.44,194.89c-5.29,7.42-21.25,5.11-41.42-9.28s-31.64-42.84-31.64-42.84"/><path class="cls-6" d="M577.07,191c-4.9,7.69-20.95,6.22-41.85-7.09s-33.84-41.12-33.84-41.12"/><path class="cls-6" d="M579.49,187c-4.49,7.93-20.59,7.31-42.16-4.9s-35.94-39.29-35.94-39.29"/><path class="cls-6" d="M581.7,182.82c-4.07,8.16-20.18,8.38-42.36-2.68s-37.95-37.36-37.95-37.36"/><path class="cls-6" d="M583.68,178.56C580,186.92,564,188,541.24,178.1s-39.85-35.32-39.85-35.32"/><path class="cls-6" d="M585.44,174.2c-3.19,8.54-19.2,10.44-42.41,1.76s-41.65-33.19-41.65-33.19"/><path class="cls-6" d="M587,169.76c-2.74,8.69-18.63,11.43-42.26,4s-43.33-31-43.33-31"/><path class="cls-6" d="M588.27,165.25c-2.28,8.82-18,12.39-42,6.18s-44.89-28.65-44.89-28.65"/><path class="cls-6" d="M589.32,160.67C587.51,169.6,572,174,547.71,169s-46.33-26.26-46.33-26.26"/><path class="cls-6" d="M590.14,156c-1.35,9-16.61,14.2-41.12,10.54s-47.64-23.8-47.64-23.8"/><path class="cls-6" d="M590.71,151.38c-.87,9.07-15.84,15.05-40.51,12.68s-48.82-21.28-48.82-21.28"/><path class="cls-6" d="M591,146.69c-.4,9.1-15,15.86-39.79,14.78s-49.86-18.69-49.86-18.69"/><path class="cls-6" d="M591.12,142c.08,9.11-14.18,16.63-39,16.84s-50.77-16.06-50.77-16.06"/><path class="cls-6" d="M591,137.3c.56,9.1-13.29,17.34-38,18.86s-51.54-13.38-51.54-13.38"/><path class="cls-6" d="M590.55,132.62c1,9.05-12.37,18-37,20.82s-52.17-10.66-52.17-10.66"/><path class="cls-6" d="M589.89,128c1.5,9-11.41,18.64-35.85,22.73s-52.66-7.92-52.66-7.92"/><path class="cls-6" d="M589,123.35c2,8.9-10.42,19.21-34.61,24.57s-53-5.15-53-5.15"/><path class="cls-6" d="M587.86,118.8c2.44,8.78-9.4,19.73-33.27,26.35s-53.2-2.37-53.2-2.37"/><path class="cls-6" d="M586.49,114.3c2.89,8.64-8.35,20.19-31.85,28.06s-53.25.42-53.25.42"/><path class="cls-6" d="M584.88,109.89c3.34,8.48-7.28,20.6-30.34,29.69s-53.16,3.2-53.16,3.2"/><path class="cls-6" d="M583,105.56c3.78,8.29-6.19,21-28.74,31.23s-52.92,6-52.92,6"/><path class="cls-6" d="M581,101.34c4.21,8.08-5.09,21.25-27.07,32.69s-52.53,8.74-52.53,8.74"/><path class="cls-6" d="M578.71,97.23c4.63,7.85-4,21.49-25.32,34.07s-52,11.48-52,11.48"/><path class="cls-6" d="M576.22,93.25c5,7.6-2.84,21.67-23.5,35.34s-51.33,14.19-51.33,14.19"/><path class="cls-6" d="M573.52,89.4c5.42,7.33-1.7,21.79-21.62,36.53s-50.52,16.85-50.52,16.85"/><path class="cls-6" d="M570.63,85.7c5.8,7-.56,21.85-19.68,37.61s-49.56,19.47-49.56,19.47"/><path class="cls-6" d="M567.55,82.15c6.16,6.72.59,21.84-17.68,38.59s-48.48,22-48.48,22"/><path class="cls-6" d="M564.29,78.77c6.5,6.39,1.73,21.78-15.64,39.46s-47.26,24.55-47.26,24.55"/><path class="cls-6" d="M560.85,75.57c6.83,6,2.87,21.66-13.55,40.22s-45.91,27-45.91,27"/><path class="cls-6" d="M557.25,72.55c7.13,5.67,4,21.48-11.43,40.88s-44.43,29.35-44.43,29.35"/><path class="cls-6" d="M553.5,69.72c7.42,5.29,5.11,21.25-9.28,41.42s-42.84,31.64-42.84,31.64"/><path class="cls-6" d="M549.6,67.09c7.69,4.9,6.22,20.95-7.1,41.85s-41.12,33.84-41.12,33.84"/><path class="cls-6" d="M545.58,64.67c7.93,4.49,7.31,20.59-4.9,42.16s-39.29,35.94-39.29,35.94"/><path class="cls-6" d="M541.43,62.47c8.16,4.07,8.37,20.18-2.68,42.36s-37.36,37.95-37.36,37.95"/><path class="cls-6" d="M537.17,60.48c8.36,3.63,9.42,19.72-.46,42.44s-35.32,39.85-35.32,39.85"/><path class="cls-6" d="M532.81,58.72c8.54,3.19,10.44,19.2,1.76,42.41s-33.19,41.65-33.19,41.65"/><path class="cls-6" d="M528.37,57.19c8.69,2.74,11.43,18.63,4,42.26s-31,43.33-31,43.33"/><path class="cls-6" d="M523.86,55.9c8.82,2.28,12.39,18,6.18,42s-28.65,44.89-28.65,44.89"/><path class="cls-6" d="M519.28,54.84c8.93,1.82,13.31,17.33,8.37,41.61s-26.26,46.33-26.26,46.33"/><path class="cls-6" d="M514.65,54c9,1.35,14.2,16.61,10.54,41.12s-23.8,47.64-23.8,47.64"/><path class="cls-6" d="M510,53.45c9.07.87,15.05,15.84,12.68,40.51s-21.28,48.82-21.28,48.82"/><path class="cls-6" d="M505.3,53.12c9.1.4,15.86,15,14.78,39.79s-18.69,49.86-18.69,49.86"/><path class="cls-6" d="M500.6,53c9.11-.08,16.63,14.18,16.84,39s-16.06,50.77-16.06,50.77"/></g><g id="hours"><path class="cls-7" d="M151.5,48.08a94.7,94.7,0,1,1-94.7,94.7c0-25.1,8.32-46.23,25.44-64.59"/><path class="cls-8" d="M500.63,48a94.79,94.79,0,0,1,0,189.58c-46.07,0-84.26-31.48-93-76.7"/></g></g></svg>