<?xml version="1.0" encoding="utf-8"?>
<!-- Generator: Adobe Illustrator 21.0.0, SVG Export Plug-In . SVG Version: 6.00 Build 0)  -->
<svg version="1.1" xmlns="http://www.w3.org/2000/svg" xmlns:xlink="http://www.w3.org/1999/xlink" x="0px" y="0px"
	 viewBox="0 0 1397.1 1080" style="enable-background:new 0 0 1397.1 1080;" xml:space="preserve">
<style type="text/css">
	.st0{fill:none;stroke:#EC008C;stroke-width:0.4908;stroke-linecap:round;stroke-linejoin:round;stroke-miterlimit:10;}
	.st1{fill:#4B45CE;}
	.st2{fill:none;stroke:#000000;stroke-miterlimit:10;}
	.st3{stroke:#000000;stroke-width:0.5;stroke-miterlimit:10;}
	.st4{fill:none;stroke:#00AD21;stroke-width:0.5;stroke-linecap:round;stroke-linejoin:round;stroke-miterlimit:10;}
	.st5{fill:none;stroke:#FF33B6;stroke-width:0.5;stroke-linecap:round;stroke-linejoin:round;stroke-miterlimit:10;}
	.st6{fill:none;}
	.st7{fill:#FCFCFC;stroke:#FF33B6;stroke-miterlimit:10;}
	.st8{fill:#FF33B6;}
	.st9{font-family:'CircularStd-Book';}
	.st10{font-size:15.8556px;}
	.st11{fill:#FCFCFC;stroke:#00AD21;stroke-linecap:round;stroke-linejoin:round;stroke-miterlimit:10;}
	.st12{fill:#00AD21;}
</style>
<g id="population">
</g>
<g id="labels">
</g>
<g id="F_Phil">
</g>
<g id="NF_Phil">
</g>
<g id="F_Bos">
</g>
<g id="NF_Bos">
</g>
<g id="F_Minne">
</g>
<g id="NF_Minne">
</g>
<g id="F_LA">
</g>
<g id="NF_LA">
</g>
<g id="F_DC">
</g>
<g id="NF_DC">
</g>
<g id="F_Aus">
</g>
<g id="NF_Aus">
</g>
<g id="F_Sea">
</g>
<g id="NF_Sea">
</g>
<g id="F_Chic">
</g>
<g id="NF_Chic">
</g>
<g id="F_SF">
</g>
<g id="NF_SF">
</g>
<g id="F_NY">
</g>
<g id="NF_NY">
	<rect class="st6" width="1397.1" height="1080"/>
</g>
<g id="Layer_23">
	<g>
		<rect x="401.7" y="204.3" class="st7" width="103.3" height="24.6"/>
		<text transform="matrix(1 0 0 1 409.6635 222.2865)" class="st8 st9 st10">998 Industry </text>
	</g>
	<g>
		<rect x="401.7" y="855.9" class="st7" width="102.2" height="24.6"/>
		<text transform="matrix(1 0 0 1 412.103 873.942)" class="st8 st9 st10">118 Industry </text>
	</g>
	<g>
		<rect x="810.6" y="204.3" class="st7" width="107.4" height="24.6"/>
		<text transform="matrix(1 0 0 1 818.5783 222.2861)" class="st8 st9 st10">303 Industry </text>
	</g>
	<g>
		<rect x="194.2" y="422" class="st7" width="103.2" height="24.6"/>
		<text transform="matrix(1 0 0 1 202.1955 439.9797)" class="st8 st9 st10">273 Industry </text>
	</g>
	<g>
		<rect x="603.5" y="422" class="st7" width="104.9" height="24.6"/>
		<text transform="matrix(1 0 0 1 611.4438 439.9797)" class="st8 st9 st10">242 Industry </text>
	</g>
	<g>
		<rect x="1015" y="422" class="st7" width="105.6" height="24.6"/>
		<text transform="matrix(1 0 0 1 1022.8304 439.9797)" class="st8 st9 st10">200 Industry </text>
	</g>
	<g>
		<rect x="194.2" y="637.6" class="st7" width="104.1" height="24.6"/>
		<g>
			<text transform="matrix(1 0 0 1 202.3969 655.4229)" class="st8 st9 st10">153 Industry </text>
		</g>
	</g>
	<g>
		<rect x="603.5" y="637.6" class="st7" width="103.3" height="24.6"/>
		<text transform="matrix(1 0 0 1 611.4438 655.6504)" class="st8 st9 st10">129 Industry </text>
	</g>
	<g>
		<rect x="1015" y="637.6" class="st7" width="102.8" height="24.6"/>
		<text transform="matrix(1 0 0 1 1024.0491 655.6504)" class="st8 st9 st10">125 Industry </text>
	</g>
	<g>
		<rect x="810.6" y="854.7" class="st7" width="103.7" height="24.6"/>
		<text transform="matrix(1 0 0 1 818.5786 872.7175)" class="st8 st9 st10">103 Industry </text>
	</g>
	<g>
		<rect x="603.5" y="204.3" class="st11" width="107.4" height="24.6"/>
		<text transform="matrix(1 0 0 1 609.0045 222.2862)" class="st12 st9 st10">165 Freelance</text>
	</g>
	<g>
		<rect x="603.5" y="854.4" class="st11" width="104.9" height="24.6"/>
		<text transform="matrix(1 0 0 1 611.4439 872.4185)" class="st12 st9 st10">16 Freelance</text>
	</g>
	<g>
		<rect x="1015" y="204.3" class="st11" width="107.4" height="24.6"/>
		<text transform="matrix(1 0 0 1 1022.8298 222.2865)" class="st12 st9 st10">34 Freelance</text>
	</g>
	<g>
		<rect x="401.7" y="422" class="st11" width="107.9" height="24.6"/>
		<text transform="matrix(1 0 0 1 409.6637 439.9795)" class="st12 st9 st10">24 Freelance</text>
	</g>
	<g>
		<rect x="810.6" y="422" class="st11" width="107.1" height="24.6"/>
		<text transform="matrix(1 0 0 1 818.5784 439.9795)" class="st12 st9 st10">25 Freelance</text>
	</g>
	<g>
		<rect x="1235.8" y="422" class="st11" width="105.6" height="24.6"/>
		<text transform="matrix(1 0 0 1 1243.7253 439.9795)" class="st12 st9 st10">28 Freelance</text>
	</g>
	<g>
		<rect x="810.6" y="637.6" class="st11" width="103.3" height="24.6"/>
		<text transform="matrix(1 0 0 1 817.3586 655.6503)" class="st12 st9 st10">41 Freelance</text>
	</g>
	<g>
		<rect x="1235.8" y="635.9" class="st11" width="110.4" height="24.6"/>
		<text transform="matrix(1 0 0 1 1244.9452 653.8987)" class="st12 st9 st10">40 Freelance</text>
	</g>
	<g>
		<rect x="1015" y="853.2" class="st11" width="103.7" height="24.6"/>
		<text transform="matrix(1 0 0 1 1022.8301 871.1942)" class="st12 st9 st10">13 Freelance</text>
	</g>
	<g>
		<rect x="401.7" y="637.6" class="st11" width="104.1" height="24.6"/>
		<text transform="matrix(1 0 0 1 409.2765 655.6503)" class="st12 st9 st10">19 Freelance</text>
	</g>
</g>
</svg>
