<svg xmlns="http://www.w3.org/2000/svg" xmlns:xlink="http://www.w3.org/1999/xlink" viewBox="0 0 1280 843.47"><defs><style>.cls-1,.cls-10,.cls-11,.cls-13,.cls-15,.cls-4,.cls-5,.cls-6{fill:none;}.cls-2{isolation:isolate;}.cls-12,.cls-3,.cls-51,.cls-55,.cls-56,.cls-66{fill:#fff;}.cls-4,.cls-56,.cls-6{stroke:#ff33b6;}.cls-11,.cls-13,.cls-4,.cls-5,.cls-51,.cls-6{stroke-linecap:round;stroke-linejoin:round;}.cls-13,.cls-4,.cls-5,.cls-6{stroke-width:0.75px;}.cls-13,.cls-15,.cls-4,.cls-7{opacity:0.3;}.cls-13,.cls-5,.cls-51{stroke:#3a2cbf;}.cls-8{mix-blend-mode:multiply;}.cls-9{clip-path:url(#clip-path);}.cls-10,.cls-15{stroke:#ff94c5;stroke-width:10.5px;}.cls-10,.cls-15,.cls-55,.cls-56,.cls-66{stroke-miterlimit:10;}.cls-11,.cls-66{stroke:#dd4bbe;}.cls-11{stroke-width:1.35px;}.cls-12{opacity:0.8;}.cls-14{clip-path:url(#clip-path-2);}.cls-16,.cls-52,.cls-57,.cls-62{font-size:18px;}.cls-16,.cls-21,.cls-28,.cls-52{fill:#3a2cbf;}.cls-16,.cls-21{font-family:CircularStd-Bold, Circular Std;font-weight:700;}.cls-17{letter-spacing:-0.03em;}.cls-18{letter-spacing:0em;}.cls-19{letter-spacing:0em;}.cls-20{letter-spacing:0em;}.cls-21{font-size:36px;}.cls-22{letter-spacing:-0.01em;}.cls-23{letter-spacing:0em;}.cls-24{letter-spacing:-0.01em;}.cls-25{letter-spacing:0em;}.cls-26{letter-spacing:0em;}.cls-27{letter-spacing:-0.01em;}.cls-28,.cls-67{font-size:14px;}.cls-28,.cls-52,.cls-57,.cls-62,.cls-67{font-family:CircularStd-Book, Circular Std;}.cls-29{letter-spacing:-0.01em;}.cls-30{letter-spacing:0em;}.cls-31{letter-spacing:0.01em;}.cls-32{letter-spacing:0.01em;}.cls-33{letter-spacing:0.01em;}.cls-34{letter-spacing:0.01em;}.cls-35{letter-spacing:0em;}.cls-36{letter-spacing:-0.01em;}.cls-37{letter-spacing:0.02em;}.cls-38{letter-spacing:-0.01em;}.cls-39{letter-spacing:-0.01em;}.cls-40{letter-spacing:0em;}.cls-41{letter-spacing:-0.04em;}.cls-42{letter-spacing:0.03em;}.cls-43{letter-spacing:-0.04em;}.cls-44{letter-spacing:0em;}.cls-45{letter-spacing:-0.02em;}.cls-46{letter-spacing:-0.11em;}.cls-47{letter-spacing:-0.03em;}.cls-48{letter-spacing:0em;}.cls-49{letter-spacing:0.01em;}.cls-50{letter-spacing:0.02em;}.cls-51,.cls-55,.cls-56,.cls-66{stroke-width:1.5px;}.cls-53{letter-spacing:0.03em;}.cls-54{letter-spacing:0em;}.cls-55{stroke:#f268a8;}.cls-57{fill:#f268a8;}.cls-58{letter-spacing:0em;}.cls-59{letter-spacing:0.01em;}.cls-60{letter-spacing:0.02em;}.cls-61{letter-spacing:-0.03em;}.cls-62{fill:#ff33b6;}.cls-63{letter-spacing:0em;}.cls-64{letter-spacing:-0.01em;}.cls-65{letter-spacing:0.02em;}.cls-67{fill:#dd4bbe;}.cls-68{letter-spacing:0.03em;}.cls-69{letter-spacing:-0.01em;}.cls-70{letter-spacing:0em;}.cls-71{letter-spacing:-0.03em;}.cls-72{letter-spacing:-0.01em;}.cls-73{letter-spacing:0em;}.cls-74{letter-spacing:0em;}.cls-75{letter-spacing:-0.02em;}.cls-76{letter-spacing:0em;}.cls-77{letter-spacing:-0.02em;}</style><clipPath id="clip-path"><rect class="cls-1" x="59.84" y="504.26" width="215.54" height="215.54"/></clipPath><clipPath id="clip-path-2"><rect class="cls-1" x="653.06" y="502.09" width="215.81" height="215.82"/></clipPath></defs><title>popupppp</title><g class="cls-2"><g id="Layer_2" data-name="Layer 2"><g id="Layer_1-2" data-name="Layer 1"><rect class="cls-3" width="1280" height="843.47"/><path class="cls-4" d="M747.8,177.06c9.8-1.37,19.9,12.91,23.65,39.55s-10.09,56.92-10.09,56.92"/><path class="cls-4" d="M742.77,177.91c9.71-1.89,20.55,11.85,25.69,38.26s-7.1,57.37-7.1,57.37"/><path class="cls-4" d="M737.79,179c9.6-2.39,21.14,10.76,27.65,36.86s-4.08,57.66-4.08,57.66"/><path class="cls-4" d="M732.88,180.37c3-.91,6.2-.3,9.49,1.76,7.2,4.5,14.65,15.94,20.05,33.6,7.86,25.73-1.06,57.8-1.06,57.8"/><path class="cls-4" d="M728,182c9.29-3.38,22.15,8.49,31.35,33.77s2,57.77,2,57.77"/><path class="cls-4" d="M723.3,183.86c9.11-3.87,22.57,7.31,33.08,32.08s5,57.59,5,57.59"/><path class="cls-4" d="M718.66,186c8.89-4.34,22.92,6.13,34.71,30.3s8,57.25,8,57.25"/><path class="cls-4" d="M714.13,188.33c8.65-4.8,23.21,4.92,36.25,28.45s11,56.76,11,56.76"/><path class="cls-4" d="M709.74,190.92c8.39-5.24,23.43,3.7,37.69,26.51s13.93,56.1,13.93,56.1"/><path class="cls-4" d="M705.49,193.73c8.1-5.67,23.59,2.46,39,24.5s16.85,55.3,16.85,55.3"/><path class="cls-4" d="M701.39,196.77c7.8-6.09,23.69,1.23,40.25,22.42s19.72,54.34,19.72,54.34"/><path class="cls-4" d="M697.45,200c7.47-6.49,23.72,0,41.37,20.29s22.54,53.24,22.54,53.24"/><path class="cls-4" d="M693.69,203.46c7.12-6.87,23.69-1.25,42.38,18.09s25.3,52,25.3,52"/><path class="cls-4" d="M690.12,207.09c6.74-7.23,23.59-2.49,43.26,15.85s28,50.58,28,50.58"/><path class="cls-4" d="M686.74,210.91c6.36-7.58,23.43-3.73,44,13.57s30.59,49.05,30.59,49.05"/><path class="cls-4" d="M683.56,214.91c6-7.9,23.2-4.95,44.69,11.24s33.12,47.38,33.12,47.38"/><path class="cls-4" d="M680.6,219.06c5.53-8.2,22.91-6.15,45.21,8.89s35.55,45.58,35.55,45.58"/><path class="cls-4" d="M677.86,223.36c5.1-8.48,22.56-7.34,45.62,6.51s37.89,43.66,37.89,43.66"/><path class="cls-4" d="M675.35,227.8c4.64-8.73,22.14-8.52,45.89,4.12s40.12,41.62,40.12,41.62"/><path class="cls-4" d="M673.07,232.36c4.18-9,21.67-9.66,46,1.71s42.24,39.46,42.24,39.46"/><path class="cls-4" d="M671,237c3.71-9.17,21.13-10.78,46.07-.71s44.25,37.2,44.25,37.2"/><path class="cls-4" d="M669.25,241.82c3.22-9.35,20.54-11.87,46-3.12s46.14,34.83,46.14,34.83"/><path class="cls-4" d="M667.72,246.68c2.73-9.51,19.89-12.93,45.75-5.52s47.9,32.37,47.9,32.37"/><path class="cls-4" d="M666.44,251.62c2.23-9.64,19.18-14,45.39-7.9s49.52,29.82,49.52,29.82"/><path class="cls-4" d="M665.42,256.62c1.72-9.74,18.43-14.94,44.92-10.27s51,27.19,51,27.19"/><path class="cls-4" d="M664.67,261.66c1.21-9.82,17.62-15.88,44.32-12.61s52.37,24.48,52.37,24.48"/><path class="cls-4" d="M664.18,266.74c.69-9.87,16.76-16.78,43.6-14.91s53.58,21.7,53.58,21.7"/><path class="cls-4" d="M664,271.83c.17-9.89,15.86-17.64,42.76-17.17s54.64,18.87,54.64,18.87"/><path class="cls-4" d="M664,276.93c-.34-9.89,14.92-18.44,41.8-19.38s55.55,16,55.55,16"/><path class="cls-4" d="M664.32,282c-.86-9.86,13.93-19.2,40.73-21.55s56.31,13.05,56.31,13.05"/><path class="cls-4" d="M664.89,287.09c-1.38-9.8,12.91-19.9,39.55-23.65s56.92,10.09,56.92,10.09"/><path class="cls-4" d="M665.73,292.12c-1.89-9.71,11.85-20.55,38.26-25.68s57.37,7.09,57.37,7.09"/><path class="cls-4" d="M666.84,297.1c-2.39-9.6,10.76-21.14,36.86-27.65s57.66,4.08,57.66,4.08"/><path class="cls-4" d="M668.2,302c-2.89-9.46,9.64-21.68,35.36-29.54s57.8,1.06,57.8,1.06"/><path class="cls-4" d="M669.82,306.85c-3.38-9.3,8.49-22.15,33.77-31.35s57.77-2,57.77-2"/><path class="cls-4" d="M671.69,311.6c-3.87-9.11,7.32-22.57,32.08-33.08s57.59-5,57.59-5"/><path class="cls-4" d="M673.8,316.24c-4.34-8.89,6.13-22.92,30.3-34.71s57.25-8,57.25-8"/><path class="cls-4" d="M676.16,320.76c-4.8-8.65,4.92-23.21,28.45-36.25s56.76-11,56.76-11"/><path class="cls-4" d="M678.75,325.16c-5.24-8.39,3.7-23.43,26.51-37.69s56.1-13.94,56.1-13.94"/><path class="cls-4" d="M681.56,329.41c-5.67-8.1,2.46-23.59,24.5-39s55.3-16.85,55.3-16.85"/><path class="cls-4" d="M684.6,333.51c-6.09-7.8,1.23-23.69,22.42-40.25s54.34-19.72,54.34-19.72"/><path class="cls-4" d="M687.84,337.44c-6.49-7.47,0-23.72,20.29-41.37s53.23-22.54,53.23-22.54"/><path class="cls-4" d="M691.29,341.2c-6.87-7.12-1.26-23.69,18.09-42.38s52-25.3,52-25.3"/><path class="cls-4" d="M694.92,344.78c-7.24-6.75-2.5-23.59,15.85-43.27s50.59-28,50.59-28"/><path class="cls-4" d="M698.74,348.16c-7.58-6.36-3.73-23.43,13.57-44s49.05-30.59,49.05-30.59"/><path class="cls-4" d="M702.73,351.33c-7.9-6-4.95-23.2,11.24-44.68s47.38-33.12,47.38-33.12"/><path class="cls-4" d="M706.89,354.3c-8.2-5.53-6.15-22.91,8.89-45.21s45.59-35.55,45.59-35.55"/><path class="cls-4" d="M711.19,357c-8.48-5.1-7.34-22.56,6.51-45.61s43.66-37.89,43.66-37.89"/><path class="cls-4" d="M715.63,359.55c-8.73-4.64-8.51-22.14,4.12-45.89s41.62-40.12,41.62-40.12"/><path class="cls-4" d="M720.19,361.82c-9-4.18-9.66-21.67,1.71-46s39.46-42.24,39.46-42.24"/><path class="cls-4" d="M724.87,363.86c-9.17-3.71-10.78-21.13-.71-46.07s37.2-44.25,37.2-44.25"/><path class="cls-4" d="M729.65,365.64c-9.35-3.22-11.87-20.54-3.12-46s34.83-46.14,34.83-46.14"/><path class="cls-4" d="M734.51,367.18c-9.51-2.73-12.93-19.89-5.52-45.75s32.37-47.9,32.37-47.9"/><path class="cls-4" d="M739.45,368.45c-9.64-2.23-14-19.18-7.9-45.4s29.82-49.52,29.82-49.52"/><path class="cls-4" d="M744.45,369.47c-9.74-1.72-14.94-18.43-10.27-44.92s27.19-51,27.19-51"/><path class="cls-4" d="M749.49,370.22c-9.82-1.21-15.88-17.62-12.61-44.32s24.48-52.37,24.48-52.37"/><path class="cls-4" d="M754.57,370.71c-9.87-.69-16.79-16.76-14.91-43.6s21.71-53.58,21.71-53.58"/><path class="cls-4" d="M759.66,370.93c-9.89-.17-17.64-15.86-17.17-42.76s18.87-54.64,18.87-54.64"/><path class="cls-4" d="M764.76,370.89c-9.89.35-18.44-14.92-19.38-41.8s16-55.55,16-55.55"/><path class="cls-4" d="M769.85,370.58c-9.86.86-19.2-13.93-21.55-40.73s13.05-56.32,13.05-56.32"/><path class="cls-4" d="M774.92,370c-9.8,1.38-19.9-12.91-23.65-39.55s10.09-56.92,10.09-56.92"/><path class="cls-4" d="M779.95,369.16c-9.71,1.89-20.55-11.85-25.68-38.26s7.1-57.37,7.1-57.37"/><path class="cls-4" d="M784.93,368.06c-9.6,2.39-21.14-10.76-27.65-36.86s4.09-57.67,4.09-57.67"/><path class="cls-4" d="M789.84,366.69c-9.46,2.89-21.68-9.63-29.54-35.36s1.06-57.8,1.06-57.8"/><path class="cls-4" d="M794.68,365.07c-9.3,3.38-22.15-8.49-31.35-33.77s-2-57.77-2-57.77"/><path class="cls-4" d="M799.42,363.21c-9.11,3.86-22.56-7.32-33.08-32.08s-5-57.59-5-57.59"/><path class="cls-4" d="M804.07,361.09c-8.89,4.34-22.92-6.13-34.71-30.3s-8-57.25-8-57.25"/><path class="cls-4" d="M808.59,358.73c-8.65,4.79-23.21-4.92-36.25-28.44s-11-56.76-11-56.76"/><path class="cls-4" d="M813,356.15c-8.39,5.24-23.43-3.7-37.69-26.51s-13.93-56.11-13.93-56.11"/><path class="cls-4" d="M817.24,353.33c-8.1,5.67-23.6-2.46-39-24.5s-16.85-55.3-16.85-55.3"/><path class="cls-4" d="M821.34,350.3c-7.8,6.09-23.69-1.23-40.25-22.42s-19.72-54.34-19.72-54.34"/><path class="cls-4" d="M825.27,347.05c-7.47,6.49-23.72,0-41.37-20.29s-22.54-53.23-22.54-53.23"/><path class="cls-4" d="M829,343.61c-7.12,6.87-23.69,1.26-42.38-18.09s-25.3-52-25.3-52"/><path class="cls-4" d="M832.61,340c-6.75,7.24-23.59,2.5-43.27-15.85s-28-50.59-28-50.59"/><path class="cls-4" d="M836,336.15c-6.36,7.58-23.43,3.72-44-13.57s-30.59-49.05-30.59-49.05"/><path class="cls-4" d="M839.16,332.16c-6,7.9-23.2,4.95-44.68-11.24s-33.12-47.38-33.12-47.38"/><path class="cls-4" d="M842.12,328c-5.53,8.2-22.91,6.15-45.21-8.89s-35.55-45.59-35.55-45.59"/><path class="cls-4" d="M844.86,323.71c-5.1,8.48-22.56,7.34-45.61-6.51s-37.89-43.66-37.89-43.66"/><path class="cls-4" d="M847.38,319.27c-4.65,8.73-22.14,8.51-45.89-4.11s-40.12-41.62-40.12-41.62"/><path class="cls-4" d="M849.65,314.7c-4.18,9-21.67,9.66-46-1.71s-42.24-39.46-42.24-39.46"/><path class="cls-4" d="M851.68,310c-3.71,9.17-21.13,10.78-46.07.71s-44.25-37.2-44.25-37.2"/><path class="cls-4" d="M853.47,305.25c-3.22,9.35-20.54,11.87-46,3.12s-46.14-34.83-46.14-34.83"/><path class="cls-4" d="M855,300.38c-2.73,9.51-19.89,12.93-45.75,5.52s-47.9-32.37-47.9-32.37"/><path class="cls-4" d="M856.28,295.45c-2.23,9.64-19.18,14-45.4,7.91s-49.52-29.82-49.52-29.82"/><path class="cls-4" d="M857.3,290.45c-1.72,9.74-18.43,14.94-44.92,10.27s-51-27.19-51-27.19"/><path class="cls-4" d="M858.05,285.4c-1.21,9.82-17.62,15.89-44.32,12.61s-52.37-24.48-52.37-24.48"/><path class="cls-4" d="M858.54,280.33c-.69,9.87-16.76,16.79-43.6,14.91s-53.58-21.7-53.58-21.7"/><path class="cls-4" d="M858.76,275.23c-.17,9.89-15.86,17.64-42.76,17.17s-54.64-18.87-54.64-18.87"/><path class="cls-4" d="M858.72,270.13c.35,9.89-14.92,18.44-41.8,19.38s-55.56-16-55.56-16"/><path class="cls-4" d="M858.41,265c.86,9.86-13.93,19.2-40.73,21.54s-56.32-13.05-56.32-13.05"/><path class="cls-4" d="M857.83,260c1.38,9.8-12.91,19.9-39.54,23.65s-56.92-10.09-56.92-10.09"/><path class="cls-4" d="M857,254.94c1.89,9.71-11.85,20.55-38.25,25.69s-57.37-7.1-57.37-7.1"/><path class="cls-4" d="M855.88,250c2.39,9.6-10.76,21.14-36.86,27.65s-57.66-4.08-57.66-4.08"/><path class="cls-4" d="M854.52,245.05c2.89,9.46-9.63,21.68-35.36,29.54s-57.8-1.06-57.8-1.06"/><path class="cls-4" d="M852.9,240.21c3.38,9.3-8.49,22.15-33.77,31.35s-57.78,2-57.78,2"/><path class="cls-4" d="M851,235.47c3.87,9.11-7.32,22.57-32.08,33.08s-57.59,5-57.59,5"/><path class="cls-4" d="M848.92,230.83c4.34,8.89-6.13,22.92-30.3,34.71s-57.25,8-57.25,8"/><path class="cls-4" d="M846.56,226.31c4.8,8.65-4.92,23.21-28.45,36.25s-56.76,11-56.76,11"/><path class="cls-4" d="M844,221.91c5.24,8.39-3.7,23.43-26.51,37.69s-56.1,13.94-56.1,13.94"/><path class="cls-4" d="M841.16,217.66c5.67,8.1-2.47,23.59-24.5,39s-55.3,16.85-55.3,16.85"/><path class="cls-4" d="M838.13,213.56c6.09,7.79-1.23,23.69-22.42,40.25s-54.34,19.72-54.34,19.72"/><path class="cls-4" d="M834.88,209.62c6.49,7.47,0,23.72-20.29,41.37s-53.23,22.54-53.23,22.54"/><path class="cls-4" d="M831.44,205.86c6.87,7.12,1.26,23.69-18.09,42.37s-52,25.29-52,25.29"/><path class="cls-4" d="M827.8,202.29c7.24,6.75,2.5,23.59-15.85,43.26s-50.59,28-50.59,28"/><path class="cls-4" d="M824,198.91c7.58,6.36,3.73,23.43-13.56,44s-49.05,30.59-49.05,30.59"/><path class="cls-4" d="M820,195.73c7.9,6,4.95,23.2-11.24,44.68s-47.38,33.12-47.38,33.12"/><path class="cls-4" d="M815.83,192.77c8.2,5.53,6.15,22.91-8.89,45.21s-45.58,35.55-45.58,35.55"/><path class="cls-4" d="M811.53,190c8.48,5.1,7.34,22.56-6.51,45.61s-43.66,37.89-43.66,37.89"/><path class="cls-4" d="M807.1,187.52c8.73,4.65,8.51,22.14-4.11,45.89s-41.62,40.12-41.62,40.12"/><path class="cls-4" d="M802.53,185.24c9,4.18,9.66,21.66-1.71,46s-39.46,42.24-39.46,42.24"/><path class="cls-4" d="M797.85,183.21c9.17,3.71,10.78,21.13.71,46.07s-37.2,44.25-37.2,44.25"/><path class="cls-4" d="M793.08,181.42c9.36,3.22,11.87,20.54,3.12,46s-34.83,46.14-34.83,46.14"/><path class="cls-4" d="M788.21,179.89c9.51,2.73,12.93,19.89,5.52,45.75s-32.37,47.9-32.37,47.9"/><path class="cls-4" d="M783.28,178.61c9.64,2.23,14,19.18,7.9,45.4s-29.82,49.52-29.82,49.52"/><path class="cls-4" d="M778.28,177.6c9.74,1.72,14.94,18.43,10.27,44.92s-27.19,51-27.19,51"/><path class="cls-4" d="M773.23,176.84c9.82,1.21,15.88,17.62,12.6,44.32s-24.48,52.37-24.48,52.37"/><path class="cls-4" d="M768.16,176.35c9.87.69,16.78,16.76,14.91,43.6s-21.7,53.58-21.7,53.58"/><path class="cls-4" d="M763.06,176.13c9.89.17,17.64,15.86,17.17,42.76s-18.87,54.64-18.87,54.64"/><path class="cls-4" d="M758,176.18c9.89-.34,18.44,14.92,19.38,41.8s-16,55.55-16,55.55"/><path class="cls-4" d="M752.87,176.49c9.86-.86,19.2,13.93,21.55,40.73s-13.05,56.31-13.05,56.31"/><path class="cls-5" d="M664.39,264.2c.95-9.85,17.2-16.34,44-13.76s53,23.1,53,23.1"/><path class="cls-5" d="M665,259.13c1.46-9.79,18-15.42,44.63-11.44s51.71,25.84,51.71,25.84"/><path class="cls-5" d="M664,269.28c.43-9.88,16.32-17.22,43.19-16s54.13,20.29,54.13,20.29"/><path class="cls-5" d="M663.95,274.38c-.09-9.89,15.39-18,42.29-18.28s55.12,17.43,55.12,17.43"/><path class="cls-5" d="M664.13,279.48c-.61-9.87,14.43-18.83,41.28-20.47s56,14.53,56,14.53"/><path class="cls-5" d="M664.57,284.56C663.45,274.73,678,265,704.72,262s56.64,11.58,56.64,11.58"/><path class="cls-5" d="M665.28,289.61c-1.63-9.76,12.38-20.23,38.91-24.67s57.17,8.59,57.17,8.59"/><path class="cls-5" d="M666.25,294.62c-2.14-9.66,11.31-20.86,37.57-26.68s57.54,5.59,57.54,5.59"/><path class="cls-5" d="M667.49,299.57c-2.64-9.53,10.2-21.42,36.12-28.61s57.75,2.57,57.75,2.57"/><path class="cls-5" d="M669,304.44c-3.14-9.38,9.06-21.92,34.58-30.46s57.81-.45,57.81-.45"/><path class="cls-5" d="M670.72,309.24c-3.62-9.21,7.91-22.37,32.94-32.23s57.7-3.48,57.7-3.48"/><path class="cls-5" d="M672.72,313.93c-4.1-9,6.72-22.75,31.2-33.91s57.44-6.49,57.44-6.49"/><path class="cls-5" d="M675,318.52c-4.57-8.78,5.52-23.07,29.38-35.49s57-9.49,57-9.49"/><path class="cls-5" d="M677.42,323c-5-8.52,4.31-23.33,27.49-37s56.45-12.46,56.45-12.46"/><path class="cls-5" d="M680.13,327.3c-5.46-8.25,3.08-23.52,25.51-38.37s55.72-15.4,55.72-15.4"/><path class="cls-5" d="M683.05,331.48c-5.88-8,1.85-23.65,23.47-39.65s54.84-18.29,54.84-18.29"/><path class="cls-5" d="M686.19,335.5c-6.29-7.63.61-23.72,21.36-40.83s53.81-21.14,53.81-21.14"/><path class="cls-5" d="M689.54,339.35c-6.68-7.29-.63-23.71,19.2-41.89s52.63-23.92,52.63-23.92"/><path class="cls-5" d="M693.08,343c-7.06-6.94-1.87-23.65,17-42.84s51.3-26.65,51.3-26.65"/><path class="cls-5" d="M696.81,346.49c-7.41-6.56-3.11-23.52,14.71-43.66s49.84-29.3,49.84-29.3"/><path class="cls-5" d="M700.72,349.77c-7.74-6.16-4.34-23.32,12.41-44.37s48.23-31.86,48.23-31.86"/><path class="cls-5" d="M704.79,352.84c-8.06-5.74-5.55-23.06,10.07-45s46.5-34.34,46.5-34.34"/><path class="cls-5" d="M709,355.69c-8.34-5.32-6.75-22.74,7.7-45.43s44.64-36.73,44.64-36.73"/><path class="cls-5" d="M713.39,358.32c-8.61-4.87-7.93-22.36,5.31-45.77s42.66-39,42.66-39"/><path class="cls-5" d="M717.89,360.71c-8.85-4.41-9.09-21.91,2.91-46s40.55-41.2,40.55-41.2"/><path class="cls-5" d="M722.52,362.87c-9.07-3.95-10.22-21.41.5-46.07s38.34-43.26,38.34-43.26"/><path class="cls-5" d="M727.25,364.78c-9.27-3.46-11.33-20.84-1.91-46s36-45.21,36-45.21"/><path class="cls-5" d="M732.07,366.44c-9.44-3-12.41-20.22-4.32-45.87s33.61-47,33.61-47"/><path class="cls-5" d="M737,367.85c-9.58-2.48-13.45-19.54-6.71-45.59s31.1-48.73,31.1-48.73"/><path class="cls-5" d="M741.94,369c-9.7-2-14.45-18.81-9.09-45.17s28.51-50.29,28.51-50.29"/><path class="cls-5" d="M747,369.88c-9.78-1.46-15.42-18-11.44-44.63s25.84-51.71,25.84-51.71"/><path class="cls-5" d="M752,370.5c-9.85-.95-16.34-17.2-13.76-44s23.1-53,23.1-53"/><path class="cls-5" d="M757.11,370.86c-9.88-.43-17.22-16.32-16-43.19s20.3-54.13,20.3-54.13"/><path class="cls-5" d="M762.21,370.95c-9.89.09-18-15.4-18.28-42.29s17.43-55.12,17.43-55.12"/><path class="cls-5" d="M767.31,370.77c-9.87.6-18.83-14.43-20.47-41.28s14.52-56,14.52-56"/><path class="cls-5" d="M772.39,370.32c-9.83,1.12-19.56-13.42-22.6-40.15s11.58-56.64,11.58-56.64"/><path class="cls-5" d="M777.44,369.61c-9.76,1.63-20.23-12.38-24.67-38.92s8.6-57.17,8.6-57.17"/><path class="cls-5" d="M782.45,368.64c-9.66,2.14-20.85-11.31-26.68-37.57s5.59-57.54,5.59-57.54"/><path class="cls-5" d="M787.39,367.41c-9.53,2.64-21.42-10.2-28.61-36.12s2.57-57.75,2.57-57.75"/><path class="cls-5" d="M792.27,365.92c-9.38,3.14-21.92-9.06-30.46-34.58s-.45-57.81-.45-57.81"/><path class="cls-5" d="M797.06,364.17c-9.2,3.63-22.37-7.91-32.22-32.93s-3.48-57.7-3.48-57.7"/><path class="cls-5" d="M801.76,362.18c-9,4.1-22.75-6.72-33.91-31.2s-6.49-57.44-6.49-57.44"/><path class="cls-5" d="M806.34,359.94c-8.78,4.57-23.07-5.52-35.49-29.39s-9.49-57-9.49-57"/><path class="cls-5" d="M810.8,357.47c-8.52,5-23.33-4.31-37-27.49s-12.46-56.45-12.46-56.45"/><path class="cls-5" d="M815.13,354.77c-8.25,5.46-23.52-3.08-38.37-25.51s-15.4-55.72-15.4-55.72"/><path class="cls-5" d="M819.31,351.84c-8,5.88-23.65-1.85-39.65-23.47s-18.29-54.84-18.29-54.84"/><path class="cls-5" d="M823.33,348.7c-7.63,6.29-23.71-.61-40.83-21.36s-21.14-53.81-21.14-53.81"/><path class="cls-5" d="M827.17,345.36c-7.29,6.68-23.71.64-41.89-19.2s-23.93-52.63-23.93-52.63"/><path class="cls-5" d="M830.84,341.81c-6.93,7.06-23.65,1.88-42.83-17s-26.65-51.3-26.65-51.3"/><path class="cls-5" d="M834.32,338.08c-6.55,7.41-23.52,3.11-43.66-14.72s-29.3-49.83-29.3-49.83"/><path class="cls-5" d="M837.6,334.18c-6.16,7.74-23.32,4.34-44.37-12.41s-31.86-48.24-31.86-48.24"/><path class="cls-5" d="M840.67,330.1c-5.74,8.05-23.06,5.55-45-10.07s-34.34-46.5-34.34-46.5"/><path class="cls-5" d="M843.52,325.87c-5.32,8.34-22.74,6.75-45.43-7.7s-36.73-44.64-36.73-44.64"/><path class="cls-5" d="M846.15,321.5c-4.87,8.61-22.36,7.93-45.77-5.31s-39-42.66-39-42.66"/><path class="cls-5" d="M848.54,317c-4.41,8.85-21.91,9.09-46-2.91s-41.2-40.56-41.2-40.56"/><path class="cls-5" d="M850.7,312.38c-3.95,9.07-21.41,10.23-46.08-.5s-43.26-38.34-43.26-38.34"/><path class="cls-5" d="M852.61,307.65c-3.46,9.27-20.84,11.33-46,1.91s-45.21-36-45.21-36"/><path class="cls-5" d="M854.27,302.83c-3,9.43-20.22,12.41-45.87,4.32s-47-33.61-47-33.61"/><path class="cls-5" d="M855.68,297.92c-2.48,9.58-19.54,13.45-45.59,6.71s-48.73-31.1-48.73-31.1"/><path class="cls-5" d="M856.82,293c-2,9.69-18.81,14.45-45.17,9.09s-50.29-28.51-50.29-28.51"/><path class="cls-5" d="M857.71,287.93c-1.46,9.78-18,15.42-44.63,11.44s-51.71-25.84-51.71-25.84"/><path class="cls-5" d="M858.33,282.87c-.95,9.85-17.2,16.34-44,13.76s-53-23.1-53-23.1"/><path class="cls-5" d="M858.68,277.78c-.43,9.88-16.32,17.22-43.19,16s-54.13-20.29-54.13-20.29"/><path class="cls-5" d="M858.77,272.68c.09,9.89-15.39,18-42.29,18.28s-55.12-17.43-55.12-17.43"/><path class="cls-5" d="M858.59,267.58c.61,9.88-14.43,18.83-41.28,20.47s-56-14.53-56-14.53"/><path class="cls-5" d="M858.15,262.5c1.12,9.83-13.42,19.56-40.15,22.6s-56.64-11.58-56.64-11.58"/><path class="cls-5" d="M857.44,257.45c1.63,9.76-12.38,20.24-38.92,24.68s-57.17-8.6-57.17-8.6"/><path class="cls-5" d="M856.47,252.45c2.14,9.66-11.3,20.86-37.57,26.68s-57.54-5.59-57.54-5.59"/><path class="cls-5" d="M855.23,247.5c2.64,9.53-10.2,21.42-36.12,28.61s-57.75-2.57-57.75-2.57"/><path class="cls-5" d="M853.74,242.62c3.14,9.38-9.06,21.92-34.57,30.46s-57.81.45-57.81.45"/><path class="cls-5" d="M852,237.83c3.63,9.21-7.91,22.37-32.93,32.23s-57.71,3.48-57.71,3.48"/><path class="cls-5" d="M850,233.14c4.1,9-6.72,22.75-31.2,33.9s-57.44,6.49-57.44,6.49"/><path class="cls-5" d="M847.77,228.55c4.57,8.77-5.52,23.07-29.39,35.49s-57,9.49-57,9.49"/><path class="cls-5" d="M845.3,224.09c5,8.52-4.31,23.33-27.49,37s-56.45,12.46-56.45,12.46"/><path class="cls-5" d="M842.59,219.77c5.46,8.25-3.08,23.52-25.51,38.37s-55.72,15.4-55.72,15.4"/><path class="cls-5" d="M839.67,215.59c5.88,8-1.85,23.65-23.47,39.65s-54.84,18.29-54.84,18.29"/><path class="cls-5" d="M836.53,211.57c6.29,7.63-.61,23.71-21.36,40.83s-53.8,21.14-53.8,21.14"/><path class="cls-5" d="M833.18,207.72c6.68,7.29.64,23.71-19.2,41.89s-52.63,23.93-52.63,23.93"/><path class="cls-5" d="M829.64,204.05c7.06,6.93,1.88,23.65-17,42.83s-51.3,26.65-51.3,26.65"/><path class="cls-5" d="M825.91,200.57c7.41,6.56,3.11,23.52-14.71,43.66s-49.84,29.3-49.84,29.3"/><path class="cls-5" d="M822,197.3c7.74,6.16,4.34,23.32-12.41,44.37s-48.23,31.86-48.23,31.86"/><path class="cls-5" d="M817.93,194.23c8.05,5.75,5.55,23.06-10.07,45s-46.5,34.35-46.5,34.35"/><path class="cls-5" d="M813.7,191.37c8.34,5.32,6.75,22.74-7.7,45.43s-44.64,36.73-44.64,36.73"/><path class="cls-5" d="M809.33,188.75c8.61,4.87,7.93,22.36-5.32,45.77s-42.66,39-42.66,39"/><path class="cls-5" d="M804.83,186.35c8.85,4.41,9.09,21.91-2.91,46s-40.55,41.2-40.55,41.2"/><path class="cls-5" d="M800.21,184.2c9.07,3.95,10.23,21.41-.5,46.08s-38.34,43.26-38.34,43.26"/><path class="cls-5" d="M795.48,182.28c9.27,3.47,11.33,20.84,1.91,46s-36,45.21-36,45.21"/><path class="cls-5" d="M790.65,180.63c9.44,3,12.41,20.22,4.32,45.87s-33.61,47-33.61,47"/><path class="cls-5" d="M785.75,179.22c9.58,2.48,13.45,19.54,6.71,45.59s-31.1,48.73-31.1,48.73"/><path class="cls-5" d="M780.78,178.07c9.69,2,14.45,18.81,9.09,45.17s-28.51,50.29-28.51,50.29"/><path class="cls-5" d="M775.76,177.19c9.78,1.46,15.42,18,11.44,44.63s-25.84,51.71-25.84,51.71"/><path class="cls-5" d="M770.7,176.56c9.85.95,16.34,17.2,13.76,44s-23.1,53-23.1,53"/><path class="cls-5" d="M765.61,176.21c9.88.43,17.22,16.32,16,43.19s-20.29,54.13-20.29,54.13"/><path class="cls-5" d="M760.51,176.12c9.89-.09,18,15.4,18.28,42.3s-17.43,55.12-17.43,55.12"/><path class="cls-6" d="M152.58,174.36c9.8-1.38,19.9,12.91,23.65,39.55s-10.09,56.92-10.09,56.92"/><path class="cls-6" d="M147.55,175.2c9.71-1.89,20.55,11.85,25.69,38.25s-7.1,57.37-7.1,57.37"/><path class="cls-6" d="M142.57,176.31c9.6-2.39,21.14,10.76,27.65,36.86s-4.08,57.66-4.08,57.66"/><path class="cls-6" d="M137.66,177.67c3-.91,6.2-.3,9.49,1.76,7.2,4.5,14.65,15.94,20.05,33.6,7.86,25.73-1.06,57.8-1.06,57.8"/><path class="cls-6" d="M132.82,179.29c9.3-3.38,22.15,8.49,31.35,33.77s2,57.77,2,57.77"/><path class="cls-6" d="M128.08,181.16c9.11-3.87,22.57,7.32,33.08,32.08s5,57.59,5,57.59"/><path class="cls-6" d="M123.44,183.27c8.89-4.34,22.92,6.13,34.71,30.3s8,57.25,8,57.25"/><path class="cls-6" d="M118.91,185.63c8.65-4.8,23.21,4.92,36.25,28.45s11,56.76,11,56.76"/><path class="cls-6" d="M114.52,188.22c8.39-5.24,23.43,3.7,37.69,26.51s13.93,56.1,13.93,56.1"/><path class="cls-6" d="M110.26,191c8.11-5.67,23.6,2.46,39,24.5s16.85,55.3,16.85,55.3"/><path class="cls-6" d="M106.17,194.06c7.8-6.09,23.69,1.23,40.25,22.42s19.72,54.34,19.72,54.34"/><path class="cls-6" d="M102.23,197.31c7.47-6.49,23.72,0,41.37,20.29s22.54,53.23,22.54,53.23"/><path class="cls-6" d="M98.47,200.75c7.12-6.87,23.69-1.25,42.38,18.09s25.3,52,25.3,52"/><path class="cls-6" d="M94.9,204.39c6.75-7.24,23.59-2.5,43.26,15.85s28,50.58,28,50.58"/><path class="cls-6" d="M91.52,208.21c6.36-7.58,23.43-3.73,44,13.57s30.59,49.05,30.59,49.05"/><path class="cls-6" d="M88.34,212.2c6-7.9,23.2-4.95,44.69,11.24s33.12,47.38,33.12,47.38"/><path class="cls-6" d="M85.38,216.36c5.53-8.2,22.91-6.15,45.21,8.89s35.55,45.58,35.55,45.58"/><path class="cls-6" d="M82.64,220.66c5.1-8.48,22.56-7.34,45.62,6.51s37.89,43.66,37.89,43.66"/><path class="cls-6" d="M80.13,225.1c4.64-8.74,22.14-8.52,45.89,4.11s40.12,41.62,40.12,41.62"/><path class="cls-6" d="M77.85,229.66c4.18-9,21.67-9.66,46,1.71s42.24,39.46,42.24,39.46"/><path class="cls-6" d="M75.82,234.34c3.71-9.17,21.13-10.78,46.07-.71s44.25,37.2,44.25,37.2"/><path class="cls-6" d="M74,239.11c3.22-9.35,20.54-11.87,46-3.12s46.14,34.83,46.14,34.83"/><path class="cls-6" d="M72.5,244c2.73-9.51,19.89-12.93,45.75-5.52s47.9,32.37,47.9,32.37"/><path class="cls-6" d="M71.22,248.92c2.23-9.64,19.18-14,45.39-7.91s49.52,29.82,49.52,29.82"/><path class="cls-6" d="M70.2,253.91c1.72-9.74,18.43-14.94,44.92-10.27s51,27.19,51,27.19"/><path class="cls-6" d="M69.45,259c1.21-9.82,17.62-15.88,44.32-12.61s52.37,24.48,52.37,24.48"/><path class="cls-6" d="M69,264c.69-9.87,16.76-16.78,43.6-14.91s53.58,21.7,53.58,21.7"/><path class="cls-6" d="M68.74,269.13c.17-9.89,15.86-17.64,42.76-17.17s54.64,18.87,54.64,18.87"/><path class="cls-6" d="M68.78,274.23c-.35-9.89,14.92-18.44,41.8-19.38s55.55,16,55.55,16"/><path class="cls-6" d="M69.1,279.32c-.86-9.86,13.93-19.2,40.73-21.55s56.31,13.05,56.31,13.05"/><path class="cls-6" d="M69.67,284.39c-1.38-9.8,12.91-19.9,39.55-23.65s56.92,10.09,56.92,10.09"/><path class="cls-6" d="M70.51,289.42c-1.89-9.71,11.85-20.55,38.25-25.68s57.37,7.09,57.37,7.09"/><path class="cls-6" d="M71.62,294.4c-2.39-9.6,10.76-21.14,36.86-27.65s57.66,4.08,57.66,4.08"/><path class="cls-6" d="M73,299.31c-2.89-9.46,9.63-21.68,35.36-29.54s57.8,1.06,57.8,1.06"/><path class="cls-6" d="M74.6,304.15c-3.38-9.29,8.49-22.15,33.77-31.35s57.77-2,57.77-2"/><path class="cls-6" d="M76.47,308.89c-3.87-9.11,7.32-22.57,32.08-33.08s57.59-5,57.59-5"/><path class="cls-6" d="M78.58,313.53c-4.34-8.89,6.13-22.92,30.3-34.71s57.25-8,57.25-8"/><path class="cls-6" d="M80.94,318.06c-4.8-8.65,4.92-23.21,28.45-36.25s56.76-11,56.76-11"/><path class="cls-6" d="M83.53,322.45c-5.24-8.39,3.7-23.43,26.51-37.69s56.1-13.94,56.1-13.94"/><path class="cls-6" d="M86.34,326.71c-5.67-8.1,2.46-23.59,24.5-39s55.3-16.85,55.3-16.85"/><path class="cls-6" d="M89.38,330.81c-6.09-7.79,1.23-23.69,22.42-40.25s54.34-19.72,54.34-19.72"/><path class="cls-6" d="M92.62,334.74c-6.49-7.47,0-23.72,20.29-41.37s53.23-22.54,53.23-22.54"/><path class="cls-6" d="M96.07,338.5c-6.87-7.12-1.26-23.69,18.09-42.38s52-25.3,52-25.3"/><path class="cls-6" d="M99.7,342.08c-7.24-6.75-2.5-23.59,15.85-43.26s50.59-28,50.59-28"/><path class="cls-6" d="M103.52,345.46c-7.58-6.36-3.73-23.43,13.57-44s49.05-30.59,49.05-30.59"/><path class="cls-6" d="M107.51,348.63c-7.9-6-4.95-23.2,11.24-44.68s47.38-33.12,47.38-33.12"/><path class="cls-6" d="M111.67,351.59c-8.2-5.53-6.15-22.91,8.89-45.21s45.59-35.55,45.59-35.55"/><path class="cls-6" d="M116,354.33c-8.48-5.1-7.34-22.56,6.51-45.61s43.66-37.89,43.66-37.89"/><path class="cls-6" d="M120.41,356.84c-8.73-4.64-8.52-22.14,4.11-45.89s41.62-40.12,41.62-40.12"/><path class="cls-6" d="M125,359.12c-9-4.18-9.66-21.66,1.71-46s39.46-42.24,39.46-42.24"/><path class="cls-6" d="M129.65,361.15c-9.17-3.71-10.78-21.13-.71-46.07s37.2-44.25,37.2-44.25"/><path class="cls-6" d="M134.43,362.94c-9.35-3.22-11.87-20.54-3.12-46s34.83-46.14,34.83-46.14"/><path class="cls-6" d="M139.29,364.47c-9.51-2.73-12.93-19.89-5.52-45.75s32.37-47.9,32.37-47.9"/><path class="cls-6" d="M144.23,365.75c-9.64-2.23-14-19.18-7.91-45.39s29.82-49.53,29.82-49.53"/><path class="cls-6" d="M149.22,366.77c-9.74-1.72-14.94-18.43-10.27-44.92s27.19-51,27.19-51"/><path class="cls-6" d="M154.27,367.52c-9.82-1.21-15.89-17.62-12.61-44.32s24.48-52.37,24.48-52.37"/><path class="cls-6" d="M159.35,368c-9.87-.69-16.79-16.76-14.91-43.6s21.7-53.58,21.7-53.58"/><path class="cls-6" d="M164.44,368.23c-9.89-.17-17.64-15.86-17.17-42.76s18.87-54.64,18.87-54.64"/><path class="cls-6" d="M169.54,368.19c-9.89.35-18.45-14.92-19.38-41.8s16-55.55,16-55.55"/><path class="cls-6" d="M174.63,367.88c-9.86.86-19.2-13.93-21.55-40.73s13.05-56.32,13.05-56.32"/><path class="cls-6" d="M179.7,367.3c-9.8,1.38-19.9-12.91-23.65-39.55s10.09-56.92,10.09-56.92"/><path class="cls-6" d="M184.73,366.46C175,368.34,164.18,354.61,159,328.2s7.1-57.37,7.1-57.37"/><path class="cls-6" d="M189.71,365.35c-9.6,2.39-21.14-10.76-27.65-36.86s4.09-57.66,4.09-57.66"/><path class="cls-6" d="M194.62,364c-9.46,2.89-21.68-9.64-29.54-35.36s1.06-57.8,1.06-57.8"/><path class="cls-6" d="M199.46,362.37c-9.3,3.38-22.15-8.49-31.35-33.77s-2-57.77-2-57.77"/><path class="cls-6" d="M204.2,360.5c-9.11,3.87-22.57-7.32-33.08-32.08s-5-57.59-5-57.59"/><path class="cls-6" d="M208.85,358.39c-8.89,4.34-22.92-6.13-34.71-30.3s-8-57.25-8-57.25"/><path class="cls-6" d="M213.37,356c-8.65,4.79-23.21-4.92-36.25-28.45s-11-56.76-11-56.76"/><path class="cls-6" d="M217.76,353.44c-8.39,5.24-23.43-3.7-37.69-26.51s-13.94-56.11-13.94-56.11"/><path class="cls-6" d="M222,350.63c-8.1,5.67-23.59-2.46-39-24.5s-16.85-55.3-16.85-55.3"/><path class="cls-6" d="M226.12,347.6c-7.8,6.09-23.69-1.23-40.25-22.42s-19.72-54.34-19.72-54.34"/><path class="cls-6" d="M230.05,344.35c-7.47,6.49-23.72,0-41.37-20.29s-22.54-53.23-22.54-53.23"/><path class="cls-6" d="M233.81,340.91c-7.12,6.87-23.69,1.26-42.38-18.09s-25.3-52-25.3-52"/><path class="cls-6" d="M237.39,337.27c-6.75,7.23-23.59,2.49-43.27-15.85s-28-50.59-28-50.59"/><path class="cls-6" d="M240.77,333.45c-6.36,7.58-23.43,3.73-44-13.57s-30.59-49.05-30.59-49.05"/><path class="cls-6" d="M243.94,329.46c-6,7.9-23.2,4.95-44.68-11.24s-33.12-47.38-33.12-47.38"/><path class="cls-6" d="M246.9,325.31c-5.53,8.2-22.91,6.15-45.21-8.89s-35.55-45.59-35.55-45.59"/><path class="cls-6" d="M249.64,321c-5.1,8.48-22.56,7.34-45.61-6.51s-37.89-43.66-37.89-43.66"/><path class="cls-6" d="M252.15,316.56c-4.64,8.73-22.14,8.51-45.89-4.12s-40.12-41.62-40.12-41.62"/><path class="cls-6" d="M254.43,312c-4.18,9-21.66,9.66-46-1.71s-42.24-39.46-42.24-39.46"/><path class="cls-6" d="M256.46,307.32c-3.71,9.17-21.13,10.78-46.07.71s-44.25-37.2-44.25-37.2"/><path class="cls-6" d="M258.25,302.55c-3.22,9.35-20.54,11.87-46,3.12s-46.14-34.83-46.14-34.83"/><path class="cls-6" d="M259.78,297.68c-2.73,9.51-19.89,12.93-45.75,5.52s-47.9-32.37-47.9-32.37"/><path class="cls-6" d="M261.06,292.74c-2.23,9.64-19.18,14-45.4,7.9s-49.52-29.82-49.52-29.82"/><path class="cls-6" d="M262.08,287.75c-1.72,9.74-18.43,14.94-44.92,10.27s-51-27.19-51-27.19"/><path class="cls-6" d="M262.83,282.7c-1.21,9.82-17.62,15.89-44.32,12.61s-52.37-24.48-52.37-24.48"/><path class="cls-6" d="M263.32,277.62c-.69,9.87-16.76,16.79-43.6,14.91s-53.58-21.71-53.58-21.71"/><path class="cls-6" d="M263.54,272.53c-.17,9.89-15.86,17.64-42.76,17.17s-54.64-18.87-54.64-18.87"/><path class="cls-6" d="M263.5,267.43c.35,9.89-14.92,18.44-41.8,19.38s-55.56-16-55.56-16"/><path class="cls-6" d="M263.19,262.34c.86,9.86-13.93,19.2-40.73,21.54s-56.32-13.05-56.32-13.05"/><path class="cls-6" d="M262.61,257.27c1.38,9.8-12.91,19.9-39.55,23.65s-56.92-10.09-56.92-10.09"/><path class="cls-6" d="M261.77,252.24c1.89,9.71-11.85,20.55-38.25,25.68s-57.37-7.1-57.37-7.1"/><path class="cls-6" d="M260.66,247.26c2.39,9.6-10.76,21.14-36.86,27.65s-57.66-4.09-57.66-4.09"/><path class="cls-6" d="M259.3,242.35c2.89,9.46-9.63,21.68-35.36,29.54s-57.8-1.06-57.8-1.06"/><path class="cls-6" d="M257.68,237.51c3.38,9.3-8.49,22.15-33.77,31.36s-57.78,2-57.78,2"/><path class="cls-6" d="M255.81,232.77c3.87,9.11-7.32,22.57-32.08,33.08s-57.59,5-57.59,5"/><path class="cls-6" d="M253.7,228.12c4.34,8.89-6.13,22.92-30.3,34.71s-57.25,8-57.25,8"/><path class="cls-6" d="M251.34,223.6c4.8,8.65-4.92,23.21-28.45,36.25s-56.76,11-56.76,11"/><path class="cls-6" d="M248.75,219.21c5.24,8.39-3.7,23.43-26.51,37.69s-56.1,13.93-56.1,13.93"/><path class="cls-6" d="M245.94,215c5.67,8.1-2.47,23.59-24.5,39s-55.3,16.85-55.3,16.85"/><path class="cls-6" d="M242.91,210.85c6.09,7.79-1.23,23.69-22.42,40.25s-54.34,19.72-54.34,19.72"/><path class="cls-6" d="M239.66,206.92c6.49,7.47,0,23.72-20.29,41.37s-53.23,22.54-53.23,22.54"/><path class="cls-6" d="M236.22,203.16c6.87,7.12,1.26,23.69-18.09,42.38s-52,25.29-52,25.29"/><path class="cls-6" d="M232.58,199.58c7.23,6.75,2.49,23.59-15.85,43.27s-50.58,28-50.58,28"/><path class="cls-6" d="M228.76,196.21c7.58,6.36,3.73,23.43-13.57,44s-49.05,30.59-49.05,30.59"/><path class="cls-6" d="M224.77,193c7.9,6,4.95,23.2-11.24,44.69s-47.38,33.11-47.38,33.11"/><path class="cls-6" d="M220.61,190.07c8.2,5.53,6.15,22.91-8.89,45.21s-45.59,35.55-45.59,35.55"/><path class="cls-6" d="M216.31,187.33c8.48,5.1,7.34,22.56-6.51,45.62s-43.66,37.89-43.66,37.89"/><path class="cls-6" d="M211.88,184.82c8.73,4.65,8.51,22.14-4.11,45.89s-41.62,40.12-41.62,40.12"/><path class="cls-6" d="M207.31,182.54c9,4.18,9.66,21.67-1.71,46s-39.46,42.24-39.46,42.24"/><path class="cls-6" d="M202.63,180.51c9.17,3.71,10.78,21.13.71,46.07s-37.2,44.25-37.2,44.25"/><path class="cls-6" d="M197.86,178.72c9.35,3.22,11.87,20.54,3.12,46s-34.83,46.14-34.83,46.14"/><path class="cls-6" d="M193,177.19c9.51,2.73,12.93,19.89,5.52,45.75s-32.37,47.9-32.37,47.9"/><path class="cls-6" d="M188.05,175.91c9.64,2.23,14,19.18,7.9,45.4s-29.82,49.52-29.82,49.52"/><path class="cls-6" d="M183.06,174.89c9.74,1.72,14.94,18.43,10.27,44.92s-27.19,51-27.19,51"/><path class="cls-6" d="M178,174.14c9.82,1.21,15.88,17.62,12.6,44.32s-24.48,52.37-24.48,52.37"/><path class="cls-6" d="M172.94,173.65c9.87.69,16.78,16.76,14.91,43.6s-21.7,53.58-21.7,53.58"/><path class="cls-6" d="M167.84,173.43c9.89.17,17.64,15.86,17.17,42.76s-18.87,54.64-18.87,54.64"/><path class="cls-6" d="M162.74,173.47c9.89-.35,18.44,14.92,19.38,41.8s-16,55.55-16,55.55"/><path class="cls-6" d="M157.65,173.78c9.86-.86,19.2,13.93,21.55,40.73s-13.05,56.31-13.05,56.31"/><g class="cls-7"><path class="cls-6" d="M154,515.52c9.8-1.38,19.9,12.91,23.65,39.55S167.57,612,167.57,612"/><path class="cls-6" d="M149,516.36c9.71-1.89,20.55,11.85,25.69,38.26s-7.1,57.37-7.1,57.37"/><path class="cls-6" d="M144,517.46c9.6-2.39,21.14,10.75,27.65,36.86S167.57,612,167.57,612"/><path class="cls-6" d="M139.09,518.83c3-.91,6.2-.3,9.49,1.76,7.2,4.5,14.65,15.94,20.05,33.6,7.86,25.73-1.06,57.8-1.06,57.8"/><path class="cls-6" d="M134.25,520.44c9.3-3.38,22.15,8.49,31.35,33.77s2,57.78,2,57.78"/><path class="cls-6" d="M129.51,522.31c9.11-3.87,22.57,7.32,33.08,32.08s5,57.59,5,57.59"/><path class="cls-6" d="M124.87,524.43c8.89-4.34,22.92,6.12,34.71,30.3s8,57.25,8,57.25"/><path class="cls-6" d="M120.34,526.78c8.65-4.79,23.21,4.92,36.25,28.45s11,56.76,11,56.76"/><path class="cls-6" d="M115.95,529.37c8.39-5.24,23.43,3.7,37.69,26.51S167.57,612,167.57,612"/><path class="cls-6" d="M111.7,532.19c8.1-5.67,23.6,2.47,39,24.5S167.57,612,167.57,612"/><path class="cls-6" d="M107.6,535.22c7.8-6.09,23.69,1.23,40.25,22.42S167.57,612,167.57,612"/><path class="cls-6" d="M103.66,538.47c7.47-6.49,23.72,0,41.37,20.29S167.57,612,167.57,612"/><path class="cls-6" d="M99.9,541.91C107,535,123.59,540.65,142.28,560s25.3,52,25.3,52"/><path class="cls-6" d="M96.33,545.55c6.75-7.24,23.59-2.49,43.26,15.85s28,50.59,28,50.59"/><path class="cls-6" d="M92.95,549.37c6.36-7.58,23.43-3.73,44,13.57S167.57,612,167.57,612"/><path class="cls-6" d="M89.77,553.36c6-7.9,23.2-4.95,44.69,11.24S167.57,612,167.57,612"/><path class="cls-6" d="M86.81,557.51c5.53-8.2,22.91-6.15,45.21,8.89S167.57,612,167.57,612"/><path class="cls-6" d="M84.07,561.81c5.1-8.48,22.56-7.34,45.61,6.51S167.57,612,167.57,612"/><path class="cls-6" d="M81.56,566.25c4.64-8.74,22.14-8.51,45.89,4.11S167.57,612,167.57,612"/><path class="cls-6" d="M79.28,570.81c4.18-9,21.66-9.66,46,1.71S167.57,612,167.57,612"/><path class="cls-6" d="M77.25,575.49c3.71-9.17,21.13-10.78,46.07-.71S167.57,612,167.57,612"/><path class="cls-6" d="M75.46,580.27c3.22-9.35,20.54-11.87,46-3.12S167.57,612,167.57,612"/><path class="cls-6" d="M73.93,585.13c2.73-9.51,19.89-12.93,45.75-5.52S167.57,612,167.57,612"/><path class="cls-6" d="M72.65,590.07c2.23-9.64,19.18-14,45.39-7.9S167.57,612,167.57,612"/><path class="cls-6" d="M71.64,595.07c1.72-9.74,18.43-14.94,44.92-10.27s51,27.19,51,27.19"/><path class="cls-6" d="M70.88,600.11c1.21-9.82,17.62-15.88,44.32-12.6S167.57,612,167.57,612"/><path class="cls-6" d="M70.39,605.19c.69-9.87,16.76-16.79,43.6-14.91S167.57,612,167.57,612"/><path class="cls-6" d="M70.17,610.29c.17-9.89,15.86-17.64,42.76-17.17S167.57,612,167.57,612"/><path class="cls-6" d="M70.22,615.39C69.87,605.5,85.13,596.94,112,596s55.55,16,55.55,16"/><path class="cls-6" d="M70.53,620.48c-.86-9.86,13.93-19.2,40.73-21.55S167.57,612,167.57,612"/><path class="cls-6" d="M71.1,625.54c-1.38-9.8,12.91-19.9,39.55-23.65S167.57,612,167.57,612"/><path class="cls-6" d="M71.95,630.57c-1.89-9.71,11.85-20.55,38.25-25.68s57.37,7.1,57.37,7.1"/><path class="cls-6" d="M73,635.55c-2.39-9.6,10.76-21.14,36.86-27.65S167.57,612,167.57,612"/><path class="cls-6" d="M74.41,640.47C71.52,631,84,618.79,109.77,610.92s57.8,1.06,57.8,1.06"/><path class="cls-6" d="M76,645.3C72.65,636,84.52,623.15,109.8,614s57.77-2,57.77-2"/><path class="cls-6" d="M77.9,650C74,640.94,85.22,627.48,110,617s57.59-5,57.59-5"/><path class="cls-6" d="M80,654.69c-4.34-8.89,6.13-22.92,30.3-34.71s57.25-8,57.25-8"/><path class="cls-6" d="M82.37,659.21c-4.8-8.65,4.92-23.21,28.45-36.25s56.75-11,56.75-11"/><path class="cls-6" d="M85,663.61c-5.24-8.39,3.7-23.43,26.51-37.69S167.57,612,167.57,612"/><path class="cls-6" d="M87.77,667.86c-5.67-8.1,2.46-23.59,24.5-39S167.57,612,167.57,612"/><path class="cls-6" d="M90.81,672c-6.09-7.79,1.23-23.69,22.43-40.25S167.57,612,167.57,612"/><path class="cls-6" d="M94.05,675.9c-6.49-7.47,0-23.72,20.29-41.37S167.57,612,167.57,612"/><path class="cls-6" d="M97.5,679.66c-6.87-7.12-1.26-23.69,18.09-42.38s52-25.3,52-25.3"/><path class="cls-6" d="M101.13,683.23C93.9,676.48,98.64,659.64,117,640s50.59-28,50.59-28"/><path class="cls-6" d="M105,686.61c-7.58-6.36-3.73-23.43,13.57-44S167.57,612,167.57,612"/><path class="cls-6" d="M108.95,689.79c-7.9-6-4.95-23.2,11.24-44.69S167.57,612,167.57,612"/><path class="cls-6" d="M113.1,692.75c-8.2-5.53-6.15-22.91,8.89-45.21S167.57,612,167.57,612"/><path class="cls-6" d="M117.4,695.49c-8.48-5.1-7.34-22.56,6.51-45.61S167.57,612,167.57,612"/><path class="cls-6" d="M121.84,698c-8.73-4.64-8.52-22.14,4.11-45.89S167.57,612,167.57,612"/><path class="cls-6" d="M126.4,700.27c-9-4.18-9.66-21.66,1.71-46S167.57,612,167.57,612"/><path class="cls-6" d="M131.08,702.31c-9.17-3.71-10.78-21.13-.71-46.07S167.57,612,167.57,612"/><path class="cls-6" d="M135.86,704.09c-9.35-3.22-11.87-20.54-3.12-46S167.57,612,167.57,612"/><path class="cls-6" d="M140.72,705.63c-9.51-2.73-12.93-19.89-5.52-45.75S167.57,612,167.57,612"/><path class="cls-6" d="M145.66,706.91c-9.64-2.23-14-19.18-7.9-45.4S167.57,612,167.57,612"/><path class="cls-6" d="M150.66,707.92c-9.74-1.72-14.94-18.43-10.27-44.92s27.19-51,27.19-51"/><path class="cls-6" d="M155.7,708.68c-9.82-1.21-15.88-17.62-12.61-44.32S167.57,612,167.57,612"/><path class="cls-6" d="M160.78,709.16c-9.87-.69-16.79-16.76-14.91-43.6S167.57,612,167.57,612"/><path class="cls-6" d="M165.87,709.39c-9.89-.17-17.64-15.86-17.17-42.76S167.57,612,167.57,612"/><path class="cls-6" d="M171,709.34c-9.89.35-18.45-14.92-19.38-41.8s16-55.56,16-55.56"/><path class="cls-6" d="M176.06,709c-9.86.86-19.2-13.93-21.54-40.73S167.57,612,167.57,612"/><path class="cls-6" d="M181.13,708.45c-9.8,1.38-19.9-12.91-23.65-39.55S167.57,612,167.57,612"/><path class="cls-6" d="M186.16,707.61c-9.71,1.89-20.55-11.85-25.68-38.25s7.1-57.37,7.1-57.37"/><path class="cls-6" d="M191.14,706.51c-9.6,2.39-21.14-10.76-27.65-36.86S167.57,612,167.57,612"/><path class="cls-6" d="M196.05,705.14c-9.46,2.89-21.68-9.64-29.54-35.36s1.06-57.8,1.06-57.8"/><path class="cls-6" d="M200.89,703.53c-9.3,3.38-22.15-8.49-31.35-33.77s-2-57.77-2-57.77"/><path class="cls-6" d="M205.63,701.66c-9.11,3.87-22.57-7.32-33.08-32.08s-5-57.59-5-57.59"/><path class="cls-6" d="M210.28,699.54c-8.89,4.34-22.92-6.13-34.71-30.3s-8-57.25-8-57.25"/><path class="cls-6" d="M214.8,697.19c-8.65,4.8-23.21-4.92-36.25-28.45s-11-56.76-11-56.76"/><path class="cls-6" d="M219.19,694.6c-8.39,5.24-23.43-3.7-37.69-26.51S167.57,612,167.57,612"/><path class="cls-6" d="M223.45,691.78c-8.1,5.67-23.59-2.46-39-24.5S167.57,612,167.57,612"/><path class="cls-6" d="M227.55,688.75c-7.8,6.09-23.69-1.23-40.25-22.42S167.57,612,167.57,612"/><path class="cls-6" d="M231.48,685.51c-7.47,6.49-23.72,0-41.37-20.29S167.57,612,167.57,612"/><path class="cls-6" d="M235.24,682.06c-7.12,6.87-23.69,1.26-42.38-18.09s-25.29-52-25.29-52"/><path class="cls-6" d="M238.82,678.42c-6.75,7.24-23.59,2.49-43.27-15.85s-28-50.59-28-50.59"/><path class="cls-6" d="M242.2,674.6c-6.36,7.58-23.43,3.73-44-13.57S167.57,612,167.57,612"/><path class="cls-6" d="M245.37,670.61c-6,7.9-23.2,4.95-44.69-11.24S167.57,612,167.57,612"/><path class="cls-6" d="M248.33,666.46c-5.53,8.2-22.91,6.15-45.21-8.89S167.57,612,167.57,612"/><path class="cls-6" d="M251.07,662.16c-5.1,8.48-22.56,7.34-45.61-6.51S167.57,612,167.57,612"/><path class="cls-6" d="M253.59,657.72c-4.65,8.73-22.14,8.51-45.89-4.11S167.57,612,167.57,612"/><path class="cls-6" d="M255.86,653.16c-4.18,9-21.66,9.66-46-1.71S167.57,612,167.57,612"/><path class="cls-6" d="M257.89,648.48c-3.71,9.17-21.13,10.78-46.07.71S167.57,612,167.57,612"/><path class="cls-6" d="M259.68,643.7c-3.22,9.35-20.54,11.87-46,3.12S167.57,612,167.57,612"/><path class="cls-6" d="M261.21,638.84c-2.73,9.51-19.89,12.93-45.75,5.52S167.57,612,167.57,612"/><path class="cls-6" d="M262.49,633.9c-2.23,9.64-19.18,14-45.39,7.91S167.57,612,167.57,612"/><path class="cls-6" d="M263.51,628.9c-1.72,9.74-18.43,14.94-44.92,10.27s-51-27.19-51-27.19"/><path class="cls-6" d="M264.26,623.86c-1.2,9.82-17.62,15.88-44.32,12.61S167.57,612,167.57,612"/><path class="cls-6" d="M264.75,618.78c-.69,9.87-16.76,16.78-43.6,14.91S167.57,612,167.57,612"/><path class="cls-6" d="M265,613.69c-.17,9.89-15.86,17.64-42.76,17.17S167.57,612,167.57,612"/><path class="cls-6" d="M264.93,608.59c.34,9.89-14.92,18.44-41.8,19.38s-55.56-16-55.56-16"/><path class="cls-6" d="M264.62,603.5c.86,9.86-13.93,19.2-40.73,21.54S167.57,612,167.57,612"/><path class="cls-6" d="M264,598.43c1.38,9.79-12.91,19.9-39.55,23.64S167.57,612,167.57,612"/><path class="cls-6" d="M263.2,593.4c1.89,9.71-11.85,20.55-38.25,25.68S167.57,612,167.57,612"/><path class="cls-6" d="M262.09,588.42c2.39,9.6-10.76,21.14-36.86,27.65S167.57,612,167.57,612"/><path class="cls-6" d="M260.73,583.5c2.89,9.46-9.63,21.68-35.36,29.54s-57.8-1.06-57.8-1.06"/><path class="cls-6" d="M259.11,578.67c3.38,9.29-8.49,22.15-33.77,31.35s-57.78,2-57.78,2"/><path class="cls-6" d="M257.24,573.92c3.87,9.11-7.32,22.57-32.08,33.08s-57.59,5-57.59,5"/><path class="cls-6" d="M255.13,569.28c4.34,8.89-6.13,22.92-30.3,34.71s-57.25,8-57.25,8"/><path class="cls-6" d="M252.77,564.76c4.8,8.65-4.92,23.21-28.45,36.25s-56.76,11-56.76,11"/><path class="cls-6" d="M250.19,560.36c5.24,8.39-3.7,23.43-26.51,37.69S167.57,612,167.57,612"/><path class="cls-6" d="M247.37,556.11c5.67,8.1-2.47,23.59-24.5,39S167.57,612,167.57,612"/><path class="cls-6" d="M244.34,552c6.09,7.79-1.23,23.69-22.42,40.25S167.57,612,167.57,612"/><path class="cls-6" d="M241.09,548.08c6.49,7.47,0,23.72-20.29,41.37S167.57,612,167.57,612"/><path class="cls-6" d="M237.65,544.31c6.87,7.12,1.26,23.69-18.09,42.37s-52,25.3-52,25.3"/><path class="cls-6" d="M234,540.74c7.24,6.75,2.49,23.59-15.85,43.27s-50.59,28-50.59,28"/><path class="cls-6" d="M230.19,537.36c7.58,6.36,3.73,23.43-13.57,44S167.57,612,167.57,612"/><path class="cls-6" d="M226.2,534.19c7.9,6,4.95,23.2-11.24,44.68S167.57,612,167.57,612"/><path class="cls-6" d="M222,531.23c8.2,5.53,6.15,22.91-8.89,45.21S167.57,612,167.57,612"/><path class="cls-6" d="M217.74,528.48c8.48,5.1,7.34,22.56-6.51,45.62S167.57,612,167.57,612"/><path class="cls-6" d="M213.31,526c8.73,4.64,8.51,22.14-4.11,45.89S167.57,612,167.57,612"/><path class="cls-6" d="M208.74,523.7c9,4.18,9.66,21.66-1.71,46S167.57,612,167.57,612"/><path class="cls-6" d="M204.06,521.66c9.17,3.71,10.78,21.13.71,46.07S167.57,612,167.57,612"/><path class="cls-6" d="M199.29,519.88c9.35,3.22,11.87,20.54,3.12,46S167.57,612,167.57,612"/><path class="cls-6" d="M194.42,518.34c9.51,2.73,12.93,19.89,5.52,45.75S167.57,612,167.57,612"/><path class="cls-6" d="M189.49,517.07c9.64,2.22,14,19.18,7.9,45.39S167.57,612,167.57,612"/><path class="cls-6" d="M184.49,516.05c9.74,1.72,14.94,18.43,10.27,44.92s-27.19,51-27.19,51"/><path class="cls-6" d="M179.44,515.3c9.82,1.21,15.88,17.62,12.61,44.32S167.57,612,167.57,612"/><path class="cls-6" d="M174.37,514.81c9.87.69,16.78,16.76,14.91,43.6S167.57,612,167.57,612"/><path class="cls-6" d="M169.27,514.59c9.89.17,17.64,15.86,17.17,42.76S167.57,612,167.57,612"/><path class="cls-6" d="M164.17,514.63c9.89-.34,18.45,14.92,19.38,41.8s-16,55.55-16,55.55"/><path class="cls-6" d="M159.08,514.94c9.86-.86,19.2,13.93,21.55,40.73S167.57,612,167.57,612"/><path class="cls-5" d="M70.6,602.65c.95-9.85,17.2-16.34,44-13.76s53,23.1,53,23.1"/><path class="cls-5" d="M71.23,597.59c1.46-9.79,18-15.42,44.63-11.44S167.57,612,167.57,612"/><path class="cls-5" d="M70.25,607.74c.43-9.88,16.32-17.22,43.19-16S167.57,612,167.57,612"/><path class="cls-5" d="M70.16,612.84c-.09-9.89,15.39-18,42.29-18.28S167.57,612,167.57,612"/><path class="cls-5" d="M70.34,617.93c-.61-9.87,14.43-18.83,41.28-20.47s56,14.53,56,14.53"/><path class="cls-5" d="M70.78,623c-1.12-9.83,13.42-19.56,40.15-22.6S167.57,612,167.57,612"/><path class="cls-5" d="M71.49,628.06c-1.63-9.76,12.38-20.23,38.91-24.67s57.17,8.6,57.17,8.6"/><path class="cls-5" d="M72.46,633.07c-2.14-9.66,11.31-20.85,37.57-26.68S167.57,612,167.57,612"/><path class="cls-5" d="M73.7,638c-2.64-9.53,10.2-21.42,36.12-28.61S167.57,612,167.57,612"/><path class="cls-5" d="M75.19,642.9c-3.14-9.38,9.06-21.92,34.58-30.46s57.81-.45,57.81-.45"/><path class="cls-5" d="M76.93,647.69c-3.63-9.21,7.9-22.37,32.93-32.23s57.7-3.48,57.7-3.48"/><path class="cls-5" d="M78.93,652.38c-4.1-9,6.72-22.75,31.2-33.91S167.57,612,167.57,612"/><path class="cls-5" d="M81.16,657c-4.57-8.78,5.52-23.07,29.38-35.49s57-9.49,57-9.49"/><path class="cls-5" d="M83.64,661.43c-5-8.52,4.31-23.33,27.49-37S167.57,612,167.57,612"/><path class="cls-5" d="M86.34,665.75c-5.46-8.25,3.08-23.52,25.51-38.37S167.57,612,167.57,612"/><path class="cls-5" d="M89.26,669.93c-5.89-8,1.85-23.65,23.47-39.65S167.57,612,167.57,612"/><path class="cls-5" d="M92.4,674c-6.29-7.63.61-23.71,21.36-40.83S167.57,612,167.57,612"/><path class="cls-5" d="M95.75,677.8c-6.68-7.29-.64-23.71,19.2-41.89S167.57,612,167.57,612"/><path class="cls-5" d="M99.29,681.47c-7.06-6.93-1.87-23.65,17-42.83S167.57,612,167.57,612"/><path class="cls-5" d="M103,684.95c-7.41-6.55-3.11-23.52,14.71-43.66S167.57,612,167.57,612"/><path class="cls-5" d="M106.93,688.23c-7.74-6.16-4.34-23.32,12.41-44.37S167.57,612,167.57,612"/><path class="cls-5" d="M111,691.29c-8.05-5.75-5.55-23.06,10.07-45S167.57,612,167.57,612"/><path class="cls-5" d="M115.23,694.15c-8.34-5.32-6.75-22.74,7.7-45.43S167.57,612,167.57,612"/><path class="cls-5" d="M119.6,696.77c-8.61-4.87-7.93-22.36,5.31-45.77s42.65-39,42.65-39"/><path class="cls-5" d="M124.1,699.17c-8.85-4.41-9.09-21.91,2.91-46S167.57,612,167.57,612"/><path class="cls-5" d="M128.73,701.32c-9.07-3.95-10.23-21.41.5-46.07S167.57,612,167.57,612"/><path class="cls-5" d="M133.46,703.23c-9.27-3.46-11.33-20.84-1.91-46s36-45.21,36-45.21"/><path class="cls-5" d="M138.28,704.89c-9.44-3-12.41-20.22-4.32-45.87s33.61-47,33.61-47"/><path class="cls-5" d="M143.18,706.3c-9.58-2.48-13.45-19.54-6.71-45.59S167.57,612,167.57,612"/><path class="cls-5" d="M148.15,707.45c-9.69-2-14.45-18.81-9.09-45.17S167.57,612,167.57,612"/><path class="cls-5" d="M153.17,708.33c-9.78-1.46-15.42-18-11.44-44.63S167.57,612,167.57,612"/><path class="cls-5" d="M158.23,709c-9.85-.95-16.34-17.2-13.76-44s23.1-53,23.1-53"/><path class="cls-5" d="M163.32,709.31c-9.88-.43-17.22-16.32-16-43.19S167.57,612,167.57,612"/><path class="cls-5" d="M168.42,709.4c-9.89.09-18.05-15.4-18.28-42.29S167.57,612,167.57,612"/><path class="cls-5" d="M173.52,709.22c-9.88.6-18.83-14.43-20.47-41.28s14.52-56,14.52-56"/><path class="cls-5" d="M178.6,708.78c-9.83,1.12-19.56-13.43-22.6-40.15S167.57,612,167.57,612"/><path class="cls-5" d="M183.65,708.07c-9.76,1.63-20.23-12.38-24.67-38.91S167.57,612,167.57,612"/><path class="cls-5" d="M188.66,707.09C179,709.23,167.8,695.79,162,669.52S167.57,612,167.57,612"/><path class="cls-5" d="M193.6,705.86c-9.53,2.64-21.42-10.2-28.61-36.12S167.57,612,167.57,612"/><path class="cls-5" d="M198.48,704.37c-9.38,3.14-21.92-9.06-30.46-34.57s-.45-57.81-.45-57.81"/><path class="cls-5" d="M203.27,702.62c-9.21,3.63-22.37-7.91-32.23-32.93s-3.48-57.7-3.48-57.7"/><path class="cls-5" d="M208,700.63c-9,4.1-22.75-6.72-33.9-31.2S167.57,612,167.57,612"/><path class="cls-5" d="M212.55,698.39c-8.78,4.57-23.07-5.52-35.49-29.39s-9.49-57-9.49-57"/><path class="cls-5" d="M217,695.92c-8.52,5-23.33-4.31-37-27.49S167.57,612,167.57,612"/><path class="cls-5" d="M221.34,693.22c-8.25,5.46-23.52-3.08-38.37-25.51S167.57,612,167.57,612"/><path class="cls-5" d="M225.52,690.29c-8,5.88-23.65-1.85-39.65-23.47S167.57,612,167.57,612"/><path class="cls-5" d="M229.54,687.15c-7.63,6.29-23.71-.61-40.82-21.36S167.57,612,167.57,612"/><path class="cls-5" d="M233.38,683.81c-7.29,6.68-23.71.63-41.89-19.2S167.57,612,167.57,612"/><path class="cls-5" d="M237.05,680.27c-6.93,7.06-23.65,1.87-42.84-17S167.57,612,167.57,612"/><path class="cls-5" d="M240.53,676.54c-6.56,7.41-23.52,3.11-43.66-14.71S167.57,612,167.57,612"/><path class="cls-5" d="M243.81,672.63c-6.16,7.74-23.32,4.34-44.37-12.41S167.57,612,167.57,612"/><path class="cls-5" d="M246.88,668.56c-5.75,8.05-23.06,5.55-45-10.07S167.57,612,167.57,612"/><path class="cls-5" d="M249.73,664.33c-5.32,8.34-22.74,6.75-45.43-7.7S167.57,612,167.57,612"/><path class="cls-5" d="M252.36,660c-4.87,8.61-22.36,7.93-45.77-5.31s-39-42.66-39-42.66"/><path class="cls-5" d="M254.75,655.45c-4.41,8.85-21.91,9.09-46-2.91S167.57,612,167.57,612"/><path class="cls-5" d="M256.91,650.83c-3.95,9.07-21.41,10.23-46.07-.5S167.57,612,167.57,612"/><path class="cls-5" d="M258.82,646.1c-3.46,9.27-20.84,11.33-46,1.91s-45.21-36-45.21-36"/><path class="cls-5" d="M260.48,641.28c-3,9.44-20.22,12.41-45.87,4.32s-47-33.61-47-33.61"/><path class="cls-5" d="M261.89,636.38c-2.48,9.58-19.54,13.45-45.59,6.71S167.57,612,167.57,612"/><path class="cls-5" d="M263,631.41c-2,9.69-18.81,14.45-45.17,9.09S167.57,612,167.57,612"/><path class="cls-5" d="M263.92,626.38c-1.46,9.78-18,15.42-44.63,11.44S167.57,612,167.57,612"/><path class="cls-5" d="M264.54,621.32c-.95,9.85-17.2,16.34-44,13.76s-53-23.1-53-23.1"/><path class="cls-5" d="M264.89,616.23c-.43,9.88-16.32,17.22-43.19,16S167.57,612,167.57,612"/><path class="cls-5" d="M265,611.14c.09,9.89-15.4,18-42.3,18.28S167.57,612,167.57,612"/><path class="cls-5" d="M264.81,606c.6,9.87-14.43,18.83-41.28,20.47s-56-14.52-56-14.52"/><path class="cls-5" d="M264.36,601c1.12,9.83-13.42,19.56-40.15,22.6S167.57,612,167.57,612"/><path class="cls-5" d="M263.65,595.91c1.63,9.76-12.38,20.23-38.91,24.67s-57.17-8.6-57.17-8.6"/><path class="cls-5" d="M262.68,590.9c2.14,9.66-11.31,20.85-37.57,26.68S167.57,612,167.57,612"/><path class="cls-5" d="M261.44,586c2.64,9.53-10.2,21.42-36.12,28.6S167.57,612,167.57,612"/><path class="cls-5" d="M260,581.07c3.14,9.38-9.06,21.92-34.57,30.46s-57.81.45-57.81.45"/><path class="cls-5" d="M258.21,576.28c3.63,9.21-7.91,22.37-32.93,32.22S167.57,612,167.57,612"/><path class="cls-5" d="M256.22,571.59c4.1,9-6.72,22.75-31.2,33.91S167.57,612,167.57,612"/><path class="cls-5" d="M254,567c4.57,8.77-5.52,23.07-29.38,35.49s-57,9.49-57,9.49"/><path class="cls-5" d="M251.51,562.54c5,8.53-4.31,23.33-27.49,37S167.57,612,167.57,612"/><path class="cls-5" d="M248.8,558.22c5.46,8.25-3.08,23.52-25.51,38.37S167.57,612,167.57,612"/><path class="cls-5" d="M245.88,554c5.88,8-1.85,23.65-23.47,39.65S167.57,612,167.57,612"/><path class="cls-5" d="M242.74,550c6.29,7.63-.61,23.71-21.36,40.82S167.57,612,167.57,612"/><path class="cls-5" d="M239.39,546.17c6.68,7.29.64,23.71-19.2,41.89S167.57,612,167.57,612"/><path class="cls-5" d="M235.85,542.5c7.06,6.93,1.88,23.65-17,42.83S167.57,612,167.57,612"/><path class="cls-5" d="M232.12,539c7.41,6.55,3.11,23.52-14.71,43.66S167.57,612,167.57,612"/><path class="cls-5" d="M228.21,535.75c7.74,6.16,4.34,23.32-12.41,44.37S167.57,612,167.57,612"/><path class="cls-5" d="M224.14,532.68c8.05,5.74,5.55,23.06-10.07,45S167.57,612,167.57,612"/><path class="cls-5" d="M219.91,529.83c8.34,5.32,6.75,22.74-7.7,45.43S167.57,612,167.57,612"/><path class="cls-5" d="M215.54,527.2c8.61,4.87,7.93,22.36-5.32,45.77s-42.65,39-42.65,39"/><path class="cls-5" d="M211,524.81c8.85,4.41,9.09,21.91-2.91,46S167.57,612,167.57,612"/><path class="cls-5" d="M206.42,522.65c9.07,3.94,10.23,21.4-.5,46.07S167.57,612,167.57,612"/><path class="cls-5" d="M201.69,520.74c9.27,3.47,11.33,20.84,1.91,46s-36,45.21-36,45.21"/><path class="cls-5" d="M196.87,519.08c9.44,3,12.41,20.22,4.32,45.87s-33.61,47-33.61,47"/><path class="cls-5" d="M192,517.67c9.58,2.48,13.45,19.54,6.71,45.58S167.57,612,167.57,612"/><path class="cls-5" d="M187,516.53c9.69,2,14.45,18.81,9.09,45.17S167.57,612,167.57,612"/><path class="cls-5" d="M182,515.64c9.78,1.46,15.42,18,11.44,44.63S167.57,612,167.57,612"/><path class="cls-5" d="M176.91,515c9.85.95,16.34,17.2,13.76,44s-23.1,53-23.1,53"/><path class="cls-5" d="M171.82,514.66c9.88.43,17.22,16.32,16,43.19S167.57,612,167.57,612"/><path class="cls-5" d="M166.72,514.57c9.89-.09,18,15.4,18.28,42.29S167.57,612,167.57,612"/></g><g class="cls-8"><g class="cls-9"><path class="cls-10" d="M167.61,509.22A102.8,102.8,0,1,1,64.81,612c0-27.25,9-50.18,27.62-70.11"/></g></g><line class="cls-11" x1="760.85" y1="609.95" x2="760.85" y2="493.34"/><line class="cls-11" x1="760.85" y1="609.95" x2="766.95" y2="493.5"/><line class="cls-11" x1="760.85" y1="609.95" x2="776.08" y2="464.98"/><line class="cls-11" x1="760.85" y1="609.95" x2="783.65" y2="465.98"/><line class="cls-11" x1="760.85" y1="609.95" x2="791.15" y2="467.37"/><line class="cls-11" x1="760.85" y1="609.95" x2="798.57" y2="469.15"/><line class="cls-11" x1="760.85" y1="609.95" x2="805.89" y2="471.32"/><line class="cls-11" x1="760.85" y1="609.95" x2="813.09" y2="473.86"/><line class="cls-11" x1="760.85" y1="609.95" x2="820.13" y2="476.78"/><line class="cls-11" x1="760.85" y1="609.95" x2="827.02" y2="480.07"/><line class="cls-11" x1="760.85" y1="609.95" x2="833.73" y2="483.71"/><line class="cls-11" x1="760.85" y1="609.95" x2="840.24" y2="487.7"/><line class="cls-11" x1="760.85" y1="609.95" x2="846.53" y2="492.02"/><line class="cls-11" x1="760.85" y1="609.95" x2="852.58" y2="496.67"/><line class="cls-11" x1="760.85" y1="609.95" x2="858.38" y2="501.62"/><line class="cls-11" x1="760.85" y1="609.95" x2="863.92" y2="506.87"/><line class="cls-11" x1="760.85" y1="609.95" x2="869.17" y2="512.41"/><line class="cls-11" x1="760.85" y1="609.95" x2="897.01" y2="499.69"/><line class="cls-11" x1="760.85" y1="609.95" x2="902.59" y2="506.97"/><line class="cls-11" x1="760.85" y1="609.95" x2="907.78" y2="514.53"/><line class="cls-11" x1="760.85" y1="609.95" x2="912.58" y2="522.35"/><line class="cls-11" x1="760.85" y1="609.95" x2="916.96" y2="530.41"/><line class="cls-11" x1="760.85" y1="609.95" x2="920.9" y2="538.69"/><line class="cls-11" x1="760.85" y1="609.95" x2="924.41" y2="547.17"/><line class="cls-11" x1="760.85" y1="609.95" x2="927.47" y2="555.81"/><line class="cls-11" x1="760.85" y1="609.95" x2="930.08" y2="564.61"/><line class="cls-11" x1="760.85" y1="609.95" x2="932.22" y2="573.52"/><line class="cls-11" x1="760.85" y1="609.95" x2="933.89" y2="582.54"/><line class="cls-11" x1="760.85" y1="609.95" x2="935.09" y2="591.64"/><line class="cls-11" x1="760.85" y1="609.95" x2="935.81" y2="600.78"/><line class="cls-11" x1="760.85" y1="609.95" x2="936.05" y2="609.95"/><line class="cls-11" x1="760.85" y1="609.95" x2="935.81" y2="619.12"/><line class="cls-11" x1="760.85" y1="609.95" x2="935.09" y2="628.27"/><line class="cls-11" x1="760.85" y1="609.95" x2="933.89" y2="637.36"/><line class="cls-11" x1="760.85" y1="609.95" x2="932.22" y2="646.38"/><line class="cls-11" x1="760.85" y1="609.95" x2="930.08" y2="655.3"/><line class="cls-11" x1="760.85" y1="609.95" x2="927.47" y2="664.09"/><line class="cls-11" x1="760.85" y1="609.95" x2="924.41" y2="672.74"/><line class="cls-11" x1="760.85" y1="609.95" x2="920.9" y2="681.21"/><line class="cls-11" x1="760.85" y1="609.95" x2="916.96" y2="689.49"/><line class="cls-11" x1="760.85" y1="609.95" x2="912.58" y2="697.55"/><line class="cls-11" x1="760.85" y1="609.95" x2="907.78" y2="705.37"/><line class="cls-11" x1="760.85" y1="609.95" x2="902.59" y2="712.94"/><line class="cls-11" x1="760.85" y1="609.95" x2="897.01" y2="720.21"/><line class="cls-11" x1="760.85" y1="609.95" x2="891.05" y2="727.19"/><line class="cls-11" x1="760.85" y1="609.95" x2="884.73" y2="733.84"/><line class="cls-11" x1="760.85" y1="609.95" x2="878.08" y2="740.15"/><line class="cls-11" x1="760.85" y1="609.95" x2="871.11" y2="746.11"/><line class="cls-11" x1="760.85" y1="609.95" x2="863.83" y2="751.69"/><line class="cls-11" x1="760.85" y1="609.95" x2="856.27" y2="756.89"/><line class="cls-11" x1="760.85" y1="609.95" x2="848.45" y2="761.68"/><line class="cls-11" x1="760.85" y1="609.95" x2="840.38" y2="766.06"/><line class="cls-11" x1="760.85" y1="609.95" x2="832.11" y2="770.01"/><line class="cls-11" x1="760.85" y1="609.95" x2="823.63" y2="773.52"/><line class="cls-11" x1="760.85" y1="609.95" x2="811.92" y2="767.13"/><line class="cls-11" x1="760.85" y1="609.95" x2="803.62" y2="769.59"/><line class="cls-11" x1="760.85" y1="609.95" x2="795.21" y2="771.61"/><line class="cls-11" x1="760.85" y1="609.95" x2="786.7" y2="773.19"/><line class="cls-11" x1="760.85" y1="609.95" x2="778.12" y2="774.31"/><line class="cls-11" x1="760.85" y1="609.95" x2="769.5" y2="774.99"/><line class="cls-11" x1="760.85" y1="609.95" x2="760.85" y2="775.22"/><line class="cls-11" x1="760.85" y1="609.95" x2="752.2" y2="774.99"/><line class="cls-11" x1="760.85" y1="609.95" x2="743.57" y2="774.31"/><line class="cls-11" x1="760.85" y1="609.95" x2="734.99" y2="773.19"/><line class="cls-11" x1="760.85" y1="609.95" x2="726.49" y2="771.61"/><line class="cls-11" x1="760.85" y1="609.95" x2="718.07" y2="769.59"/><line class="cls-11" x1="760.85" y1="609.95" x2="709.77" y2="767.13"/><line class="cls-11" x1="760.85" y1="609.95" x2="701.62" y2="764.24"/><line class="cls-11" x1="760.85" y1="609.95" x2="693.63" y2="760.93"/><line class="cls-11" x1="760.85" y1="609.95" x2="685.82" y2="757.2"/><line class="cls-11" x1="760.85" y1="609.95" x2="678.21" y2="753.08"/><line class="cls-11" x1="760.85" y1="609.95" x2="670.84" y2="748.56"/><line class="cls-11" x1="760.85" y1="609.95" x2="663.7" y2="743.65"/><line class="cls-11" x1="760.85" y1="609.95" x2="656.84" y2="738.39"/><line class="cls-11" x1="760.85" y1="609.95" x2="650.26" y2="732.77"/><line class="cls-11" x1="760.85" y1="609.95" x2="643.99" y2="726.81"/><line class="cls-11" x1="760.85" y1="609.95" x2="638.03" y2="720.54"/><line class="cls-11" x1="760.85" y1="609.95" x2="632.41" y2="713.96"/><line class="cls-11" x1="760.85" y1="609.95" x2="627.14" y2="707.09"/><line class="cls-11" x1="760.85" y1="609.95" x2="622.24" y2="699.96"/><line class="cls-11" x1="760.85" y1="609.95" x2="617.72" y2="692.58"/><line class="cls-11" x1="760.85" y1="609.95" x2="613.59" y2="684.98"/><line class="cls-11" x1="760.85" y1="609.95" x2="609.87" y2="677.17"/><line class="cls-11" x1="760.85" y1="609.95" x2="606.56" y2="669.18"/><line class="cls-11" x1="760.85" y1="609.95" x2="603.67" y2="661.02"/><line class="cls-11" x1="760.85" y1="609.95" x2="610.51" y2="650.23"/><line class="cls-11" x1="760.85" y1="609.95" x2="608.61" y2="642.31"/><line class="cls-11" x1="760.85" y1="609.95" x2="607.13" y2="634.3"/><line class="cls-11" x1="760.85" y1="609.95" x2="606.06" y2="626.22"/><line class="cls-11" x1="760.85" y1="609.95" x2="605.42" y2="618.1"/><line class="cls-11" x1="760.85" y1="609.95" x2="605.21" y2="609.95"/><line class="cls-11" x1="760.85" y1="609.95" x2="605.42" y2="601.81"/><line class="cls-11" x1="760.85" y1="609.95" x2="606.06" y2="593.68"/><line class="cls-11" x1="760.85" y1="609.95" x2="607.13" y2="585.61"/><line class="cls-11" x1="760.85" y1="609.95" x2="608.61" y2="577.59"/><line class="cls-11" x1="760.85" y1="609.95" x2="610.51" y2="569.67"/><line class="cls-11" x1="760.85" y1="609.95" x2="612.82" y2="561.86"/><line class="cls-11" x1="760.85" y1="609.95" x2="615.55" y2="554.18"/><line class="cls-11" x1="760.85" y1="609.95" x2="618.66" y2="546.65"/><line class="cls-11" x1="760.85" y1="609.95" x2="622.17" y2="539.29"/><line class="cls-11" x1="760.85" y1="609.95" x2="626.06" y2="532.13"/><line class="cls-11" x1="760.85" y1="609.95" x2="630.32" y2="525.19"/><line class="cls-11" x1="760.85" y1="609.95" x2="634.93" y2="518.47"/><line class="cls-11" x1="760.85" y1="609.95" x2="639.89" y2="512.01"/><line class="cls-11" x1="760.85" y1="609.95" x2="645.18" y2="505.81"/><line class="cls-11" x1="760.85" y1="609.95" x2="650.79" y2="499.9"/><line class="cls-11" x1="760.85" y1="609.95" x2="656.71" y2="494.29"/><line class="cls-11" x1="760.85" y1="609.95" x2="662.9" y2="489"/><line class="cls-11" x1="760.85" y1="609.95" x2="669.37" y2="484.04"/><line class="cls-11" x1="760.85" y1="609.95" x2="676.12" y2="479.49"/><line class="cls-11" x1="760.85" y1="609.95" x2="683.05" y2="475.21"/><line class="cls-11" x1="760.85" y1="609.95" x2="698.84" y2="488.26"/><line class="cls-11" x1="760.85" y1="609.95" x2="705.29" y2="485.18"/><line class="cls-11" x1="760.85" y1="609.95" x2="711.9" y2="482.45"/><line class="cls-11" x1="760.85" y1="609.95" x2="718.64" y2="480.06"/><line class="cls-11" x1="760.85" y1="609.95" x2="725.5" y2="478.03"/><line class="cls-11" x1="760.85" y1="609.95" x2="732.45" y2="476.36"/><line class="cls-11" x1="760.85" y1="609.95" x2="739.48" y2="475.06"/><line class="cls-11" x1="760.85" y1="609.95" x2="747.64" y2="484.31"/><line class="cls-11" x1="760.85" y1="609.95" x2="754.24" y2="483.78"/><circle class="cls-12" cx="760.46" cy="610.08" r="97.56"/><path class="cls-4" d="M747.35,513.36C757.16,512,767.28,526.28,771,553s-10.1,57-10.1,57"/><path class="cls-4" d="M742.31,514.21c9.72-1.89,20.58,11.86,25.72,38.3s-7.11,57.44-7.11,57.44"/><path class="cls-4" d="M737.33,515.31c9.61-2.4,21.17,10.77,27.69,36.91s-4.09,57.73-4.09,57.73"/><path class="cls-4" d="M732.41,516.67c3-.91,6.21-.29,9.5,1.76,7.21,4.51,14.67,16,20.07,33.65,7.88,25.76-1.06,57.87-1.06,57.87"/><path class="cls-4" d="M727.56,518.29c9.31-3.39,22.18,8.5,31.39,33.81s2,57.85,2,57.85"/><path class="cls-4" d="M722.81,520.17c9.12-3.87,22.59,7.33,33.12,32.12s5,57.66,5,57.66"/><path class="cls-4" d="M718.17,522.28c8.9-4.34,22.95,6.13,34.75,30.34s8,57.32,8,57.32"/><path class="cls-4" d="M713.64,524.64c8.66-4.8,23.24,4.92,36.29,28.48s11,56.83,11,56.83"/><path class="cls-4" d="M709.24,527.23c8.4-5.25,23.46,3.7,37.73,26.54s14,56.17,14,56.17"/><path class="cls-4" d="M705,530.05c8.12-5.68,23.62,2.47,39.07,24.53s16.87,55.36,16.87,55.36"/><path class="cls-4" d="M700.88,533.09c7.8-6.1,23.72,1.23,40.3,22.45s19.75,54.41,19.75,54.41"/><path class="cls-4" d="M696.93,536.34c7.47-6.5,23.75,0,41.42,20.32s22.57,53.3,22.57,53.3"/><path class="cls-4" d="M693.17,539.79c7.13-6.88,23.72-1.26,42.43,18.12s25.32,52,25.32,52"/><path class="cls-4" d="M689.59,543.43c6.75-7.25,23.62-2.5,43.32,15.87s28,50.65,28,50.65"/><path class="cls-4" d="M686.21,547.25c6.37-7.59,23.46-3.73,44.09,13.58s30.63,49.11,30.63,49.11"/><path class="cls-4" d="M683,551.25c6-7.91,23.23-5,44.74,11.26s33.16,47.44,33.16,47.44"/><path class="cls-4" d="M680.06,555.41c5.54-8.21,22.94-6.16,45.27,8.9s35.59,45.64,35.59,45.64"/><path class="cls-4" d="M677.32,559.71c5.11-8.49,22.59-7.35,45.67,6.52s37.93,43.72,37.93,43.72"/><path class="cls-4" d="M674.8,564.16c4.65-8.75,22.17-8.53,46,4.12s40.17,41.67,40.17,41.67"/><path class="cls-4" d="M672.53,568.73c4.18-9,21.69-9.67,46.1,1.71s42.3,39.51,42.3,39.51"/><path class="cls-4" d="M670.49,573.41c3.71-9.19,21.16-10.79,46.13-.71s44.31,37.24,44.31,37.24"/><path class="cls-4" d="M668.7,578.19c3.22-9.36,20.56-11.88,46-3.12s46.2,34.87,46.2,34.87"/><path class="cls-4" d="M667.16,583.06c2.73-9.52,19.91-12.95,45.8-5.53s48,32.41,48,32.41"/><path class="cls-4" d="M665.89,588c2.23-9.65,19.21-14,45.45-7.91s49.59,29.85,49.59,29.85"/><path class="cls-4" d="M664.87,593c1.72-9.76,18.45-15,45-10.28s51.08,27.22,51.08,27.22"/><path class="cls-4" d="M664.11,598.06c1.21-9.83,17.64-15.9,44.38-12.62s52.44,24.51,52.44,24.51"/><path class="cls-4" d="M663.62,603.15c.69-9.88,16.78-16.8,43.65-14.93s53.65,21.73,53.65,21.73"/><path class="cls-4" d="M663.4,608.25c.17-9.9,15.88-17.66,42.81-17.19s54.71,18.89,54.71,18.89"/><path class="cls-4" d="M663.45,613.35c-.34-9.9,14.93-18.47,41.85-19.41s55.63,16,55.63,16"/><path class="cls-4" d="M663.76,618.45c-.86-9.86,13.95-19.22,40.78-21.57s56.38,13.07,56.38,13.07"/><path class="cls-4" d="M664.33,623.52c-1.38-9.81,12.92-19.92,39.6-23.67s57,10.1,57,10.1"/><path class="cls-4" d="M665.18,628.56c-1.89-9.73,11.86-20.58,38.3-25.72s57.44,7.1,57.44,7.1"/><path class="cls-4" d="M666.28,633.55c-2.39-9.61,10.77-21.17,36.91-27.69s57.74,4.09,57.74,4.09"/><path class="cls-4" d="M667.65,638.47c-2.9-9.47,9.64-21.7,35.41-29.58s57.87,1.06,57.87,1.06"/><path class="cls-4" d="M669.27,643.31c-3.39-9.3,8.5-22.18,33.81-31.39s57.85-2,57.85-2"/><path class="cls-4" d="M671.14,648.06c-3.87-9.12,7.33-22.59,32.12-33.12s57.67-5,57.67-5"/><path class="cls-4" d="M673.26,652.71c-4.35-8.9,6.13-22.95,30.34-34.76s57.32-8,57.32-8"/><path class="cls-4" d="M675.62,657.24c-4.8-8.67,4.92-23.23,28.48-36.29s56.83-11,56.83-11"/><path class="cls-4" d="M678.21,661.64c-5.25-8.4,3.7-23.46,26.54-37.73s56.18-14,56.18-14"/><path class="cls-4" d="M681,665.9c-5.68-8.11,2.47-23.62,24.53-39.07s55.37-16.88,55.37-16.88"/><path class="cls-4" d="M684.06,670c-6.1-7.81,1.23-23.72,22.45-40.3s54.41-19.75,54.41-19.75"/><path class="cls-4" d="M687.31,673.94c-6.5-7.47,0-23.75,20.31-41.42s53.3-22.57,53.3-22.57"/><path class="cls-4" d="M690.76,677.71c-6.88-7.13-1.26-23.72,18.12-42.43s52-25.33,52-25.33"/><path class="cls-4" d="M694.4,681.28c-7.24-6.75-2.5-23.62,15.87-43.32s50.65-28,50.65-28"/><path class="cls-4" d="M698.23,684.67c-7.58-6.37-3.73-23.46,13.58-44.09s49.12-30.63,49.12-30.63"/><path class="cls-4" d="M702.22,687.85c-7.91-6-5-23.23,11.26-44.74s47.44-33.16,47.44-33.16"/><path class="cls-4" d="M706.38,690.81c-8.21-5.54-6.16-22.94,8.9-45.27s45.64-35.59,45.64-35.59"/><path class="cls-4" d="M710.69,693.56c-8.49-5.1-7.35-22.58,6.52-45.67s43.72-37.94,43.72-37.94"/><path class="cls-4" d="M715.13,696.07c-8.74-4.65-8.52-22.17,4.12-45.95s41.67-40.17,41.67-40.17"/><path class="cls-4" d="M719.71,698.35c-9-4.19-9.67-21.69,1.71-46.1s39.51-42.3,39.51-42.3"/><path class="cls-4" d="M724.38,700.39c-9.18-3.71-10.8-21.16-.71-46.13s37.25-44.31,37.25-44.31"/><path class="cls-4" d="M729.17,702.18c-9.37-3.23-11.89-20.56-3.12-46s34.88-46.2,34.88-46.2"/><path class="cls-4" d="M734,703.71c-9.52-2.73-12.95-19.91-5.52-45.8s32.41-48,32.41-48"/><path class="cls-4" d="M739,705c-9.65-2.23-14-19.21-7.91-45.45s29.85-49.59,29.85-49.59"/><path class="cls-4" d="M744,706c-9.75-1.72-15-18.45-10.28-45s27.22-51.08,27.22-51.08"/><path class="cls-4" d="M749,706.76c-9.83-1.2-15.9-17.64-12.62-44.37s24.51-52.44,24.51-52.44"/><path class="cls-4" d="M754.12,707.25c-9.88-.69-16.8-16.78-14.92-43.65s21.73-53.65,21.73-53.65"/><path class="cls-4" d="M759.22,707.47c-9.91-.17-17.66-15.88-17.19-42.81s18.9-54.71,18.9-54.71"/><path class="cls-4" d="M764.33,707.43c-9.9.35-18.47-14.94-19.41-41.85s16-55.62,16-55.62"/><path class="cls-4" d="M769.42,707.12c-9.87.86-19.22-13.95-21.57-40.78s13.07-56.39,13.07-56.39"/><path class="cls-4" d="M774.5,706.54c-9.81,1.38-19.93-12.92-23.68-39.6s10.1-57,10.1-57"/><path class="cls-4" d="M779.54,705.7c-9.73,1.89-20.58-11.87-25.72-38.3s7.11-57.45,7.11-57.45"/><path class="cls-4" d="M784.52,704.59c-9.61,2.39-21.17-10.77-27.68-36.91s4.09-57.74,4.09-57.74"/><path class="cls-4" d="M789.44,703.23c-9.47,2.9-21.71-9.65-29.58-35.4s1.06-57.88,1.06-57.88"/><path class="cls-4" d="M794.28,701.61c-9.31,3.39-22.18-8.5-31.39-33.81s-2-57.85-2-57.85"/><path class="cls-4" d="M799,699.73c-9.12,3.87-22.59-7.32-33.12-32.12s-5-57.67-5-57.67"/><path class="cls-4" d="M803.68,697.62c-8.91,4.34-22.95-6.13-34.75-30.34s-8-57.32-8-57.32"/><path class="cls-4" d="M808.21,695.26c-8.66,4.8-23.23-4.92-36.29-28.48s-11-56.83-11-56.83"/><path class="cls-4" d="M812.61,692.67c-8.4,5.25-23.46-3.7-37.74-26.54s-13.95-56.18-13.95-56.18"/><path class="cls-4" d="M816.87,689.85c-8.12,5.68-23.62-2.47-39.07-24.53s-16.87-55.37-16.87-55.37"/><path class="cls-4" d="M821,686.81c-7.8,6.1-23.72-1.23-40.3-22.46s-19.75-54.41-19.75-54.41"/><path class="cls-4" d="M824.92,683.56c-7.48,6.5-23.76,0-41.43-20.31s-22.57-53.3-22.57-53.3"/><path class="cls-4" d="M828.68,680.11C821.56,687,805,681.37,786.25,662s-25.33-52-25.33-52"/><path class="cls-4" d="M832.26,676.47c-6.76,7.24-23.62,2.5-43.32-15.87s-28-50.65-28-50.65"/><path class="cls-4" d="M835.65,672.65c-6.37,7.59-23.46,3.73-44.09-13.59s-30.63-49.11-30.63-49.11"/><path class="cls-4" d="M838.83,668.65c-6,7.91-23.23,5-44.74-11.26s-33.16-47.44-33.16-47.44"/><path class="cls-4" d="M841.79,664.49c-5.54,8.21-22.94,6.16-45.27-8.9s-35.59-45.65-35.59-45.65"/><path class="cls-4" d="M844.53,660.19c-5.1,8.49-22.59,7.36-45.67-6.51s-37.94-43.72-37.94-43.72"/><path class="cls-4" d="M847,655.74c-4.65,8.75-22.17,8.52-45.95-4.12s-40.17-41.67-40.17-41.67"/><path class="cls-4" d="M849.32,651.17c-4.19,9-21.69,9.68-46.1-1.71s-42.3-39.51-42.3-39.51"/><path class="cls-4" d="M851.36,646.49c-3.71,9.19-21.16,10.8-46.13.71s-44.31-37.25-44.31-37.25"/><path class="cls-4" d="M853.15,641.71c-3.22,9.37-20.56,11.89-46,3.12s-46.19-34.87-46.19-34.87"/><path class="cls-4" d="M854.68,636.84c-2.73,9.53-19.91,12.95-45.8,5.52s-48-32.41-48-32.41"/><path class="cls-4" d="M856,631.89c-2.22,9.65-19.21,14-45.45,7.91s-49.59-29.86-49.59-29.86"/><path class="cls-4" d="M857,626.89c-1.72,9.75-18.45,15-45,10.28s-51.08-27.22-51.08-27.22"/><path class="cls-4" d="M857.74,621.84c-1.21,9.83-17.64,15.91-44.38,12.62s-52.43-24.51-52.43-24.51"/><path class="cls-4" d="M858.22,616.76c-.69,9.88-16.78,16.8-43.65,14.93s-53.65-21.73-53.65-21.73"/><path class="cls-4" d="M858.45,611.65c-.17,9.91-15.88,17.66-42.81,17.2s-54.71-18.9-54.71-18.9"/><path class="cls-4" d="M858.41,606.54c.35,9.9-14.94,18.47-41.86,19.41s-55.62-16-55.62-16"/><path class="cls-4" d="M858.09,601.45c.86,9.87-14,19.22-40.78,21.57s-56.39-13.07-56.39-13.07"/><path class="cls-4" d="M857.51,596.38c1.38,9.81-12.92,19.93-39.6,23.68s-57-10.1-57-10.1"/><path class="cls-4" d="M856.67,591.34c1.89,9.72-11.86,20.58-38.3,25.72s-57.44-7.11-57.44-7.11"/><path class="cls-4" d="M855.56,586.35C858,596,844.8,607.52,818.66,614s-57.73-4.09-57.73-4.09"/><path class="cls-4" d="M854.2,581.43c2.89,9.47-9.65,21.71-35.41,29.58s-57.87-1.06-57.87-1.06"/><path class="cls-4" d="M852.58,576.59c3.39,9.31-8.5,22.18-33.8,31.39s-57.85,2-57.85,2"/><path class="cls-4" d="M850.71,571.84c3.87,9.12-7.32,22.59-32.12,33.12s-57.67,5-57.67,5"/><path class="cls-4" d="M848.59,567.19c4.34,8.91-6.13,22.95-30.34,34.75s-57.33,8-57.33,8"/><path class="cls-4" d="M846.23,562.66c4.8,8.66-4.92,23.23-28.48,36.29s-56.83,11-56.83,11"/><path class="cls-4" d="M843.64,558.26c5.25,8.4-3.7,23.46-26.55,37.74s-56.17,13.95-56.17,13.95"/><path class="cls-4" d="M840.82,554c5.68,8.11-2.47,23.62-24.53,39.07s-55.37,16.87-55.37,16.87"/><path class="cls-4" d="M837.79,549.9c6.1,7.81-1.23,23.72-22.45,40.3s-54.41,19.75-54.41,19.75"/><path class="cls-4" d="M834.54,546c6.5,7.47,0,23.75-20.31,41.42s-53.3,22.57-53.3,22.57"/><path class="cls-4" d="M831.09,542.2c6.88,7.12,1.25,23.72-18.12,42.43s-52,25.33-52,25.33"/><path class="cls-4" d="M827.45,538.62c7.24,6.76,2.5,23.62-15.87,43.32s-50.65,28-50.65,28"/><path class="cls-4" d="M823.62,535.23c7.59,6.37,3.73,23.46-13.58,44.09s-49.11,30.63-49.11,30.63"/><path class="cls-4" d="M819.63,532.05c7.91,6,5,23.23-11.25,44.74s-47.45,33.16-47.45,33.16"/><path class="cls-4" d="M815.47,529.09c8.21,5.54,6.16,22.94-8.9,45.27s-45.64,35.59-45.64,35.59"/><path class="cls-4" d="M811.16,526.34c8.49,5.1,7.36,22.58-6.51,45.67s-43.72,37.93-43.72,37.93"/><path class="cls-4" d="M806.72,523.83c8.75,4.65,8.53,22.17-4.12,46s-41.67,40.17-41.67,40.17"/><path class="cls-4" d="M802.15,521.55c9,4.18,9.68,21.69-1.71,46.1s-39.51,42.29-39.51,42.29"/><path class="cls-4" d="M797.46,519.52c9.18,3.71,10.8,21.15.71,46.13s-37.25,44.31-37.25,44.31"/><path class="cls-4" d="M792.68,517.73c9.36,3.22,11.88,20.56,3.12,46s-34.87,46.2-34.87,46.2"/><path class="cls-4" d="M787.81,516.19c9.52,2.73,12.95,19.92,5.52,45.81s-32.41,48-32.41,48"/><path class="cls-4" d="M782.86,514.91c9.65,2.23,14,19.21,7.92,45.45s-29.86,49.59-29.86,49.59"/><path class="cls-4" d="M777.86,513.89c9.75,1.72,15,18.45,10.28,45s-27.22,51.08-27.22,51.08"/><path class="cls-4" d="M772.81,513.14c9.83,1.21,15.91,17.64,12.62,44.38s-24.51,52.44-24.51,52.44"/><path class="cls-4" d="M767.73,512.65c9.88.69,16.81,16.79,14.93,43.66s-21.73,53.65-21.73,53.65"/><path class="cls-4" d="M762.63,512.43c9.91.17,17.66,15.88,17.19,42.81s-18.89,54.71-18.89,54.71"/><path class="cls-4" d="M757.52,512.47c9.9-.34,18.47,14.94,19.41,41.85s-16,55.62-16,55.62"/><path class="cls-4" d="M752.42,512.78c9.87-.86,19.23,14,21.57,40.78s-13.07,56.38-13.07,56.38"/><path class="cls-13" d="M663.83,600.6c.95-9.86,17.22-16.35,44-13.78s53.06,23.13,53.06,23.13"/><path class="cls-13" d="M664.46,595.53c1.46-9.8,18.05-15.43,44.69-11.46s51.78,25.87,51.78,25.87"/><path class="cls-13" d="M663.48,605.7c.44-9.9,16.34-17.24,43.25-16.06s54.2,20.32,54.2,20.32"/><path class="cls-13" d="M663.39,610.8c-.09-9.91,15.41-18.07,42.35-18.3s55.19,17.45,55.19,17.45"/><path class="cls-13" d="M663.57,615.91C663,606,678,597.05,704.9,595.41s56,14.54,56,14.54"/><path class="cls-13" d="M664,621c-1.12-9.84,13.44-19.58,40.2-22.63s56.71,11.59,56.71,11.59"/><path class="cls-13" d="M664.72,626c-1.63-9.77,12.4-20.26,39-24.7s57.24,8.61,57.24,8.61"/><path class="cls-13" d="M665.7,631.06c-2.14-9.67,11.32-20.88,37.62-26.71s57.61,5.6,57.61,5.6"/><path class="cls-13" d="M666.94,636c-2.65-9.55,10.21-21.44,36.16-28.64s57.82,2.58,57.82,2.58"/><path class="cls-13" d="M668.43,640.9c-3.14-9.39,9.08-21.95,34.62-30.5s57.88-.45,57.88-.45"/><path class="cls-13" d="M670.17,645.7c-3.63-9.21,7.92-22.4,33-32.27s57.78-3.48,57.78-3.48"/><path class="cls-13" d="M672.17,650.4c-4.11-9,6.73-22.78,31.24-33.95s57.51-6.5,57.51-6.5"/><path class="cls-13" d="M674.41,655c-4.58-8.79,5.53-23.1,29.42-35.54s57.09-9.5,57.09-9.5"/><path class="cls-13" d="M676.88,659.46c-5-8.53,4.32-23.36,27.52-37s56.52-12.48,56.52-12.48"/><path class="cls-13" d="M679.59,663.78c-5.47-8.26,3.08-23.55,25.55-38.42s55.79-15.42,55.79-15.42"/><path class="cls-13" d="M682.52,668c-5.89-8,1.85-23.68,23.5-39.7s54.9-18.32,54.9-18.32"/><path class="cls-13" d="M685.66,672c-6.3-7.65.61-23.75,21.39-40.88s53.87-21.17,53.87-21.17"/><path class="cls-13" d="M689,675.85c-6.69-7.3-.64-23.74,19.22-41.94s52.69-24,52.69-24"/><path class="cls-13" d="M692.56,679.52c-7.06-6.94-1.88-23.68,17-42.89s51.37-26.68,51.37-26.68"/><path class="cls-13" d="M696.29,683c-7.42-6.56-3.11-23.54,14.73-43.72s49.9-29.33,49.9-29.33"/><path class="cls-13" d="M700.21,686.29c-7.75-6.17-4.34-23.35,12.42-44.43s48.29-31.9,48.29-31.9"/><path class="cls-13" d="M704.28,689.36c-8.07-5.75-5.56-23.09,10.08-45s46.56-34.39,46.56-34.39"/><path class="cls-13" d="M708.52,692.21c-8.36-5.32-6.76-22.77,7.71-45.49s44.69-36.78,44.69-36.78"/><path class="cls-13" d="M712.9,694.85C704.27,690,705,672.46,718.21,649s42.71-39.07,42.71-39.07"/><path class="cls-13" d="M717.4,697.24c-8.86-4.42-9.1-21.94,2.92-46s40.61-41.25,40.61-41.25"/><path class="cls-13" d="M722,699.4c-9.08-3.95-10.24-21.43.5-46.13s38.4-43.32,38.4-43.32"/><path class="cls-13" d="M726.77,701.31c-9.28-3.47-11.35-20.87-1.91-46.1s36.07-45.27,36.07-45.27"/><path class="cls-13" d="M731.59,703c-9.45-3-12.42-20.24-4.32-45.93s33.66-47.09,33.66-47.09"/><path class="cls-13" d="M736.5,704.38c-9.59-2.48-13.46-19.57-6.72-45.64s31.15-48.79,31.15-48.79"/><path class="cls-13" d="M741.48,705.53c-9.71-2-14.47-18.83-9.1-45.23s28.55-50.35,28.55-50.35"/><path class="cls-13" d="M746.51,706.42c-9.8-1.47-15.44-18.05-11.46-44.69s25.87-51.78,25.87-51.78"/><path class="cls-13" d="M751.58,707c-9.86-1-16.36-17.21-13.78-44s23.13-53.06,23.13-53.06"/><path class="cls-13" d="M756.67,707.4c-9.9-.43-17.24-16.34-16.06-43.25s20.32-54.2,20.32-54.2"/><path class="cls-13" d="M761.78,707.49c-9.91.09-18.07-15.42-18.31-42.35s17.46-55.19,17.46-55.19"/><path class="cls-13" d="M766.88,707.31c-9.89.61-18.85-14.44-20.5-41.33s14.54-56,14.54-56"/><path class="cls-13" d="M772,706.86c-9.84,1.12-19.59-13.44-22.63-40.2s11.59-56.71,11.59-56.71"/><path class="cls-13" d="M777,706.15c-9.77,1.64-20.26-12.4-24.7-39s8.61-57.24,8.61-57.24"/><path class="cls-13" d="M782,705.18c-9.67,2.14-20.88-11.32-26.71-37.62s5.6-57.61,5.6-57.61"/><path class="cls-13" d="M787,703.94c-9.55,2.65-21.44-10.21-28.64-36.17s2.57-57.82,2.57-57.82"/><path class="cls-13" d="M791.87,702.45c-9.39,3.15-21.95-9.08-30.5-34.62s-.45-57.88-.45-57.88"/><path class="cls-13" d="M796.67,700.7c-9.21,3.63-22.39-7.91-32.27-33s-3.48-57.78-3.48-57.78"/><path class="cls-13" d="M801.37,698.71c-9,4.11-22.78-6.73-33.95-31.24s-6.5-57.52-6.5-57.52"/><path class="cls-13" d="M806,696.47c-8.79,4.58-23.1-5.52-35.54-29.42s-9.5-57.1-9.5-57.1"/><path class="cls-13" d="M810.43,694c-8.53,5-23.36-4.32-37-27.52s-12.48-56.52-12.48-56.52"/><path class="cls-13" d="M814.76,691.29c-8.26,5.47-23.55-3.09-38.41-25.55s-15.42-55.79-15.42-55.79"/><path class="cls-13" d="M818.94,688.36c-8,5.89-23.68-1.85-39.7-23.5s-18.32-54.91-18.32-54.91"/><path class="cls-13" d="M823,685.21c-7.64,6.3-23.74-.6-40.87-21.39s-21.17-53.87-21.17-53.87"/><path class="cls-13" d="M826.82,681.86c-7.3,6.69-23.74.64-41.94-19.22s-24-52.69-24-52.69"/><path class="cls-13" d="M830.49,678.32c-6.94,7.06-23.68,1.88-42.89-17s-26.68-51.37-26.68-51.37"/><path class="cls-13" d="M834,674.58c-6.57,7.42-23.55,3.12-43.72-14.73s-29.34-49.9-29.34-49.9"/><path class="cls-13" d="M837.26,670.67c-6.17,7.75-23.35,4.34-44.43-12.42s-31.9-48.3-31.9-48.3"/><path class="cls-13" d="M840.33,666.59c-5.75,8.06-23.09,5.56-45-10.08s-34.39-46.56-34.39-46.56"/><path class="cls-13" d="M843.19,662.36c-5.33,8.35-22.77,6.76-45.49-7.71s-36.78-44.7-36.78-44.7"/><path class="cls-13" d="M845.82,658c-4.88,8.62-22.39,7.94-45.83-5.32s-39.07-42.71-39.07-42.71"/><path class="cls-13" d="M848.22,653.47c-4.42,8.87-21.94,9.1-46-2.92s-41.25-40.61-41.25-40.61"/><path class="cls-13" d="M850.37,648.84c-4,9.08-21.43,10.24-46.13-.5s-43.32-38.39-43.32-38.39"/><path class="cls-13" d="M852.28,644.11c-3.47,9.28-20.86,11.35-46.1,1.92s-45.26-36.08-45.26-36.08"/><path class="cls-13" d="M853.95,639.28c-3,9.45-20.24,12.42-45.93,4.32s-47.09-33.66-47.09-33.66"/><path class="cls-13" d="M855.35,634.37c-2.48,9.59-19.57,13.47-45.64,6.73s-48.79-31.15-48.79-31.15"/><path class="cls-13" d="M856.5,629.4c-2,9.7-18.83,14.47-45.23,9.1s-50.35-28.55-50.35-28.55"/><path class="cls-13" d="M857.39,624.37c-1.47,9.8-18.05,15.44-44.69,11.46s-51.78-25.87-51.78-25.87"/><path class="cls-13" d="M858,619.3c-.95,9.86-17.22,16.36-44,13.78s-53.06-23.13-53.06-23.13"/><path class="cls-13" d="M858.37,614.2c-.44,9.9-16.34,17.24-43.25,16.07s-54.2-20.32-54.2-20.32"/><path class="cls-13" d="M858.46,609.1c.09,9.91-15.41,18.07-42.35,18.31s-55.18-17.46-55.18-17.46"/><path class="cls-13" d="M858.28,604c.6,9.89-14.45,18.85-41.33,20.5s-56-14.54-56-14.54"/><path class="cls-13" d="M857.83,598.91c1.12,9.84-13.44,19.58-40.2,22.63s-56.71-11.59-56.71-11.59"/><path class="cls-13" d="M857.13,593.85c1.63,9.77-12.4,20.26-39,24.7s-57.24-8.61-57.24-8.61"/><path class="cls-13" d="M856.15,588.84c2.14,9.67-11.32,20.88-37.61,26.71s-57.61-5.6-57.61-5.6"/><path class="cls-13" d="M854.92,583.88c2.64,9.55-10.21,21.44-36.17,28.64s-57.82-2.58-57.82-2.58"/><path class="cls-13" d="M853.42,579c3.14,9.39-9.08,22-34.62,30.5s-57.88.45-57.88.45"/><path class="cls-13" d="M851.67,574.2c3.63,9.22-7.91,22.39-33,32.27s-57.77,3.48-57.77,3.48"/><path class="cls-13" d="M849.68,569.5c4.11,9-6.73,22.78-31.24,33.95s-57.51,6.5-57.51,6.5"/><path class="cls-13" d="M847.44,564.91C852,573.7,841.91,588,818,600.45s-57.1,9.5-57.1,9.5"/><path class="cls-13" d="M845,560.45c5,8.54-4.32,23.36-27.52,37s-56.52,12.47-56.52,12.47"/><path class="cls-13" d="M842.26,556.11c5.46,8.26-3.09,23.55-25.55,38.42s-55.79,15.42-55.79,15.42"/><path class="cls-13" d="M839.33,551.93c5.9,8-1.85,23.68-23.5,39.7s-54.9,18.32-54.9,18.32"/><path class="cls-13" d="M836.19,547.91c6.3,7.64-.6,23.75-21.39,40.88s-53.87,21.17-53.87,21.17"/><path class="cls-13" d="M832.84,544.05c6.69,7.31.64,23.75-19.22,41.94s-52.69,24-52.69,24"/><path class="cls-13" d="M829.29,540.38c7.07,6.95,1.88,23.68-17,42.89s-51.36,26.68-51.36,26.68"/><path class="cls-13" d="M825.56,536.9c7.42,6.56,3.12,23.55-14.73,43.72s-49.9,29.33-49.9,29.33"/><path class="cls-13" d="M821.65,533.62C829.39,539.78,826,557,809.22,578s-48.3,31.9-48.3,31.9"/><path class="cls-13" d="M817.57,530.55c8.06,5.75,5.55,23.09-10.08,45s-46.56,34.38-46.56,34.38"/><path class="cls-13" d="M813.33,527.69c8.36,5.33,6.76,22.77-7.71,45.49s-44.7,36.77-44.7,36.77"/><path class="cls-13" d="M809,525.06c8.62,4.88,7.94,22.38-5.32,45.83s-42.71,39.06-42.71,39.06"/><path class="cls-13" d="M804.44,522.66c8.87,4.42,9.11,21.94-2.91,46s-40.6,41.25-40.6,41.25"/><path class="cls-13" d="M799.82,520.5c9.08,4,10.24,21.43-.5,46.13s-38.39,43.31-38.39,43.31"/><path class="cls-13" d="M795.08,518.59c9.28,3.47,11.35,20.87,1.91,46.09s-36.07,45.27-36.07,45.27"/><path class="cls-13" d="M790.25,516.93c9.45,3,12.42,20.24,4.33,45.93s-33.66,47.09-33.66,47.09"/><path class="cls-13" d="M785.34,515.52c9.59,2.48,13.47,19.57,6.72,45.65s-31.14,48.79-31.14,48.79"/><path class="cls-13" d="M780.37,514.37c9.7,2,14.47,18.84,9.1,45.23s-28.54,50.35-28.54,50.35"/><path class="cls-13" d="M775.34,513.48c9.8,1.47,15.44,18.05,11.46,44.69s-25.87,51.78-25.87,51.78"/><path class="cls-13" d="M770.27,512.86c9.86,1,16.36,17.22,13.77,44s-23.12,53.05-23.12,53.05"/><path class="cls-13" d="M765.18,512.5c9.9.43,17.24,16.34,16.07,43.25s-20.32,54.19-20.32,54.19"/><path class="cls-13" d="M760.07,512.42c9.91-.08,18.07,15.42,18.31,42.35s-17.46,55.19-17.46,55.19"/><g class="cls-8"><g class="cls-14"><path class="cls-15" d="M761,507.06A102.93,102.93,0,1,1,658,610c0-27.29,9-50.24,27.65-70.2"/></g></g><text class="cls-16" transform="translate(326.01 187.88)"><tspan class="cls-17">P</tspan><tspan x="10.35" y="0">o</tspan><tspan class="cls-18" x="20.86" y="0">p</tspan><tspan x="31.84" y="0">u</tspan><tspan class="cls-19" x="42.39" y="0">la</tspan><tspan class="cls-20" x="56.93" y="0">t</tspan><tspan x="63.7" y="0">ion</tspan></text><text class="cls-21" transform="translate(65.93 76.52)"><tspan class="cls-19">H</tspan><tspan class="cls-22" x="26.82" y="0">o</tspan><tspan x="47.38" y="0">w </tspan><tspan class="cls-23" x="86.18" y="0">D</tspan><tspan x="112.36" y="0">o I </tspan><tspan class="cls-24" x="162.03" y="0">R</tspan><tspan x="184.03" y="0">e</tspan><tspan class="cls-25" x="203.94" y="0">a</tspan><tspan x="223.27" y="0">d </tspan><tspan class="cls-26" x="254.23" y="0">T</tspan><tspan x="276.62" y="0">hi</tspan><tspan class="cls-27" x="307.54" y="0">s</tspan><tspan x="323.92" y="0">?</tspan></text><text class="cls-28" transform="translate(326.01 215.17)"><tspan class="cls-29">E</tspan><tspan x="7.92" y="0">ach ci</tspan><tspan class="cls-30" x="45" y="0">r</tspan><tspan x="50.06" y="0">cle en</tspan><tspan class="cls-30" x="87.58" y="0">c</tspan><tspan x="94.93" y="0">ompas</tspan><tspan class="cls-30" x="136.89" y="0">s</tspan><tspan x="143.15" y="0">es a </tspan><tspan class="cls-31" x="0" y="16.8">po</tspan><tspan class="cls-32" x="16.59" y="16.8">p</tspan><tspan class="cls-31" x="24.96" y="16.8">ulation </tspan><tspan class="cls-33" x="72.77" y="16.8">of </tspan><tspan class="cls-34" x="89.42" y="16.8">designers</tspan><tspan x="151.51" y="16.8">. The </tspan><tspan x="0" y="33.6">ci</tspan><tspan class="cls-30" x="10.96" y="33.6">r</tspan><tspan x="16.03" y="33.6">cles </tspan><tspan class="cls-30" x="44.42" y="33.6">sc</tspan><tspan x="58.03" y="33.6">ale </tspan><tspan class="cls-35" x="80" y="33.6">p</tspan><tspan class="cls-36" x="88.26" y="33.6">r</tspan><tspan class="cls-35" x="93.28" y="33.6">opo</tspan><tspan class="cls-37" x="117.47" y="33.6">r</tspan><tspan class="cls-35" x="122.92" y="33.6">tionally</tspan><tspan x="168.73" y="33.6"> </tspan><tspan class="cls-30" x="172.23" y="33.6">t</tspan><tspan x="177.13" y="33.6">o </tspan><tspan x="0" y="50.4">the </tspan><tspan class="cls-35" x="23.93" y="50.4">po</tspan><tspan class="cls-36" x="40.15" y="50.4">p</tspan><tspan class="cls-35" x="48.34" y="50.4">ulation sizes.</tspan></text><text class="cls-28" transform="translate(326.01 557.68)">The ring indi<tspan class="cls-30" x="78.57" y="0">c</tspan><tspan x="85.92" y="0">a</tspan><tspan class="cls-30" x="93.24" y="0">t</tspan><tspan x="98.14" y="0">es a higher </tspan><tspan class="cls-38" x="0" y="16.8">n</tspan><tspan x="7.73" y="16.8">umber of </tspan><tspan class="cls-39" x="68.49" y="16.8">w</tspan><tspan x="79.45" y="16.8">ork h</tspan><tspan class="cls-30" x="111.31" y="16.8">o</tspan><tspan x="119.25" y="16.8">urs m</tspan><tspan class="cls-29" x="154.14" y="16.8">o</tspan><tspan x="161.94" y="16.8">ving </tspan><tspan x="0" y="33.6">clockwi</tspan><tspan class="cls-30" x="48.4" y="33.6">s</tspan><tspan class="cls-29" x="54.66" y="33.6">e</tspan><tspan x="62.03" y="33.6">. </tspan><tspan class="cls-30" x="69.44" y="33.6">R</tspan><tspan x="78.04" y="33.6">ather than </tspan><tspan class="cls-40" x="145.95" y="33.6">1</tspan><tspan x="150.96" y="33.6">2:</tspan><tspan class="cls-30" x="162.43" y="33.6">0</tspan><tspan class="cls-41" x="170.95" y="33.6">0</tspan><tspan x="178.99" y="33.6">, </tspan><tspan x="0" y="50.4">this ci</tspan><tspan class="cls-30" x="37.17" y="50.4">r</tspan><tspan x="42.24" y="50.4">cle sta</tspan><tspan class="cls-42" x="82.92" y="50.4">r</tspan><tspan class="cls-40" x="88.41" y="50.4">t</tspan><tspan x="93.45" y="50.4">s at 20 h</tspan><tspan class="cls-30" x="146.44" y="50.4">o</tspan><tspan x="154.38" y="50.4">urs a </tspan><tspan class="cls-38" x="0" y="67.2">w</tspan><tspan x="10.96" y="67.2">eek and ends at 5</tspan><tspan class="cls-43" x="120.89" y="67.2">0</tspan><tspan x="128.93" y="67.2">.</tspan></text><text class="cls-28" transform="translate(994.1 215.17)">The b<tspan class="cls-30" x="35.55" y="0">lu</tspan><tspan x="46.89" y="0">e a</tspan><tspan class="cls-30" x="65.3" y="0">r</tspan><tspan x="70.36" y="0">ea sh</tspan><tspan class="cls-38" x="102.97" y="0">o</tspan><tspan x="110.84" y="0">ws the </tspan><tspan x="0" y="16.8">pe</tspan><tspan class="cls-30" x="15.89" y="16.8">rc</tspan><tspan x="28.31" y="16.8">entage of designers in </tspan><tspan class="cls-44"><tspan x="0" y="33.6">the </tspan><tspan class="cls-35" x="23.7" y="33.6">po</tspan><tspan class="cls-36" x="39.93" y="33.6">p</tspan><tspan class="cls-35" x="48.12" y="33.6">ulation that decla</tspan><tspan class="cls-36" x="156.8" y="33.6">r</tspan><tspan class="cls-35" x="161.82" y="33.6">ed </tspan></tspan><tspan x="0" y="50.4">them</tspan><tspan class="cls-30" x="32.42" y="50.4">s</tspan><tspan x="38.68" y="50.4">el</tspan><tspan class="cls-29" x="49.83" y="50.4">v</tspan><tspan x="56.64" y="50.4">es hap</tspan><tspan class="cls-45" x="97.55" y="50.4">p</tspan><tspan class="cls-46" x="105.57" y="50.4">y</tspan><tspan x="111.36" y="50.4">.</tspan></text><text class="cls-28" transform="translate(994.1 557.68)"><tspan class="cls-29">E</tspan><tspan x="7.92" y="0">ach </tspan><tspan class="cls-38" x="34.03" y="0">w</tspan><tspan x="45" y="0">edge </tspan><tspan class="cls-30" x="80" y="0">r</tspan><tspan x="85.06" y="0">ep</tspan><tspan class="cls-30" x="100.95" y="0">r</tspan><tspan x="106.02" y="0">e</tspan><tspan class="cls-30" x="113.61" y="0">s</tspan><tspan x="119.87" y="0">en</tspan><tspan class="cls-40" x="135.32" y="0">t</tspan><tspan x="140.36" y="0">s an </tspan><tspan x="0" y="16.8">in</tspan><tspan class="cls-30" x="11.41" y="16.8">c</tspan><tspan x="18.76" y="16.8">ome brac</tspan><tspan class="cls-47" x="78.04" y="16.8">k</tspan><tspan x="85.04" y="16.8">et, and i</tspan><tspan class="cls-40" x="135.67" y="16.8">t</tspan><tspan x="140.71" y="16.8">s width </tspan><tspan x="0" y="33.6">indi</tspan><tspan class="cls-30" x="23.18" y="33.6">c</tspan><tspan x="30.53" y="33.6">a</tspan><tspan class="cls-30" x="37.86" y="33.6">t</tspan><tspan x="42.76" y="33.6">es the pe</tspan><tspan class="cls-30" x="99.99" y="33.6">rc</tspan><tspan x="112.41" y="33.6">entage of </tspan><tspan x="0" y="50.4">designers who</tspan><tspan class="cls-30" x="91.18" y="50.4">s</tspan><tspan x="97.44" y="50.4">e </tspan><tspan class="cls-38" x="108.53" y="50.4">s</tspan><tspan x="114.72" y="50.4">alaries </tspan><tspan class="cls-29" x="159.01" y="50.4">f</tspan><tspan x="163.6" y="50.4">all </tspan><tspan x="0" y="67.2">within it.</tspan></text><text class="cls-16" transform="translate(994.1 187.88)"><tspan class="cls-18">S</tspan><tspan class="cls-19" x="10.84" y="0">a</tspan><tspan class="cls-26" x="20.48" y="0">t</tspan><tspan x="27.25" y="0">is</tspan><tspan class="cls-27" x="40.5" y="0">f</tspan><tspan class="cls-48" x="46.8" y="0">a</tspan><tspan x="56.46" y="0">c</tspan><tspan class="cls-26" x="66.36" y="0">t</tspan><tspan x="73.13" y="0">ion</tspan></text><text class="cls-16" transform="translate(326.01 528.96)"><tspan class="cls-19">H</tspan><tspan class="cls-18" x="13.41" y="0">o</tspan><tspan x="23.89" y="0">u</tspan><tspan class="cls-49" x="34.43" y="0">r</tspan><tspan x="41.58" y="0">s</tspan></text><text class="cls-16" transform="translate(994.1 528.96)"><tspan class="cls-18">S</tspan><tspan x="10.84" y="0">a</tspan><tspan class="cls-19" x="20.54" y="0">l</tspan><tspan x="25.43" y="0">a</tspan><tspan class="cls-50" x="35.13" y="0">r</tspan><tspan x="42.6" y="0">y</tspan></text><rect class="cls-51" x="794.71" y="301.96" width="132.77" height="35.11"/><text class="cls-52" transform="translate(807.76 325.23)"><tspan class="cls-53">7</tspan><tspan x="9.23" y="0">7% </tspan><tspan class="cls-54" x="37.13" y="0">S</tspan><tspan x="47.72" y="0">atisfied</tspan></text><rect class="cls-55" x="189.91" y="650.75" width="149.22" height="35.11"/><rect class="cls-56" x="199.06" y="307.75" width="204.66" height="35.11"/><text class="cls-57" transform="translate(201.39 674.02)"><tspan class="cls-54">4</tspan><tspan class="cls-58" x="10.24" y="0">7 H</tspan><tspan class="cls-54" x="36.72" y="0">o</tspan><tspan x="46.93" y="0">ur</tspan><tspan class="cls-59" x="63.72" y="0">s</tspan><tspan class="cls-60" x="72.04" y="0">/</tspan><tspan class="cls-61" x="80.21" y="0">W</tspan><tspan x="97.65" y="0">eek</tspan></text><text class="cls-62" transform="translate(208.14 331.59)">9<tspan class="cls-54" x="10.46" y="0">9</tspan><tspan x="20.83" y="0">8 In</tspan><tspan class="cls-54" x="50.56" y="0">d</tspan><tspan class="cls-63" x="61.06" y="0">us</tspan><tspan class="cls-64" x="79.38" y="0">t</tspan><tspan class="cls-65" x="85.59" y="0">r</tspan><tspan x="92.47" y="0">y Designers</tspan></text><rect class="cls-66" x="756.94" y="512.05" width="45.45" height="40.16"/><text class="cls-67" transform="translate(765.3 529.13)"><tspan class="cls-68">&lt;</tspan><tspan x="7.17" y="0">25k</tspan><tspan class="cls-69"><tspan x="0" y="16.8">1</tspan><tspan class="cls-70" x="4.8" y="16.8">%</tspan></tspan></text><rect class="cls-66" x="717.75" y="418.57" width="45.45" height="42.14"/><text class="cls-67" transform="translate(724.39 436.19)">&gt;50k<tspan x="0" y="16.8">2%</tspan></text><rect class="cls-66" x="812.32" y="452.26" width="56.45" height="45.59"/><text class="cls-67" transform="translate(818.99 470.79)">25<tspan class="cls-69" x="15.08" y="0">-</tspan><tspan x="19.99" y="0">50k</tspan><tspan x="0" y="16.8">1</tspan><tspan class="cls-69" x="4.94" y="16.8">3</tspan><tspan x="12.54" y="16.8">%</tspan></text><rect class="cls-66" x="900.86" y="650.02" width="56.45" height="44.11"/><text class="cls-67" transform="translate(907.44 668.94)">50<tspan class="cls-71" x="16.27" y="0">-</tspan><tspan class="cls-29" x="20.9" y="0">7</tspan><tspan x="27.45" y="0">5k</tspan><tspan class="cls-72"><tspan x="0" y="16.8">3</tspan><tspan class="cls-69" x="7.67" y="16.8">1</tspan><tspan class="cls-70" x="12.47" y="16.8">%</tspan></tspan></text><rect class="cls-66" x="566.19" y="540.34" width="64.85" height="45.27"/><text class="cls-67" transform="translate(571.24 559.52)"><tspan class="cls-73">1</tspan><tspan class="cls-74" x="5.01" y="0">0</tspan><tspan x="13.54" y="0">0</tspan><tspan class="cls-75" x="22.13" y="0">-</tspan><tspan class="cls-76" x="26.91" y="0">150k</tspan><tspan x="0" y="16.8">22%</tspan></text><rect class="cls-66" x="639.78" y="438.38" width="67.11" height="44.67"/><text class="cls-67" transform="translate(645.25 456.77)">150<tspan class="cls-77" x="21.21" y="0">-</tspan><tspan class="cls-32" x="25.98" y="0">1</tspan><tspan class="cls-72" x="31" y="0">0</tspan><tspan class="cls-70" x="39.52" y="0">0k</tspan><tspan x="0" y="16.8">6%</tspan></text><rect class="cls-66" x="630.03" y="722.33" width="62.85" height="45.43"/><text class="cls-67" transform="translate(637.18 741.34)"><tspan class="cls-29">7</tspan><tspan x="6.55" y="0">5</tspan><tspan class="cls-75" x="14.22" y="0">-</tspan><tspan class="cls-73" x="19" y="0">1</tspan><tspan class="cls-74" x="24.01" y="0">0</tspan><tspan x="32.54" y="0">0k</tspan><tspan x="0" y="16.8">26%</tspan></text></g></g></g></svg>