<svg xmlns="http://www.w3.org/2000/svg" viewBox="0 0 668.68 294.27"><defs><style>.cls-1,.cls-3,.cls-4{fill:none;stroke-linecap:round;stroke-linejoin:round;}.cls-1{stroke:#ff33b6;}.cls-1,.cls-3{stroke-width:0.75px;}.cls-2,.cls-4{opacity:0;}.cls-3{stroke:#00ad21;}.cls-4{stroke:#fff;stroke-width:1.25px;}</style></defs><title>population</title><g id="CITIIES"><path class="cls-1" d="M139,53.91c9-1.27,18.33,11.89,21.78,36.43s-9.29,52.44-9.29,52.44"/><path class="cls-1" d="M134.37,54.69C143.32,52.95,153.3,65.6,158,89.93s-6.54,52.85-6.54,52.85"/><path class="cls-1" d="M129.79,55.7c8.84-2.2,19.48,9.91,25.47,34s-3.76,53.12-3.76,53.12"/><path class="cls-1" d="M125.26,57c2.73-.84,5.71-.27,8.74,1.62,6.63,4.15,13.5,14.69,18.47,31,7.25,23.7-1,53.24-1,53.24"/><path class="cls-1" d="M120.8,58.45c8.56-3.12,20.41,7.82,28.88,31.1s1.81,53.22,1.81,53.22"/><path class="cls-1" d="M116.43,60.17c8.39-3.56,20.79,6.74,30.47,29.55s4.59,53.05,4.59,53.05"/><path class="cls-1" d="M112.16,62.12c8.19-4,21.11,5.64,32,27.92s7.36,52.74,7.36,52.74"/><path class="cls-1" d="M108,64.29c8-4.42,21.38,4.53,33.39,26.2s10.11,52.28,10.11,52.28"/><path class="cls-1" d="M103.94,66.67c7.73-4.83,21.59,3.4,34.72,24.42s12.84,51.68,12.84,51.68"/><path class="cls-1" d="M100,69.27C107.49,64,121.76,71.54,136,91.84s15.52,50.94,15.52,50.94"/><path class="cls-1" d="M96.25,72.06c7.18-5.61,21.82,1.13,37.08,20.66s18.17,50.06,18.17,50.06"/><path class="cls-1" d="M92.62,75.05c6.88-6,21.85,0,38.11,18.69s20.76,49,20.76,49"/><path class="cls-1" d="M89.16,78.22c6.56-6.33,21.82-1.16,39,16.67s23.3,47.88,23.3,47.88"/><path class="cls-1" d="M85.87,81.58c6.22-6.67,21.73-2.3,39.85,14.6s25.78,46.6,25.78,46.6"/><path class="cls-1" d="M82.75,85.09c5.86-7,21.58-3.43,40.56,12.5s28.18,45.19,28.18,45.19"/><path class="cls-1" d="M79.83,88.77c5.48-7.28,21.37-4.56,41.16,10.36s30.51,43.65,30.51,43.65"/><path class="cls-1" d="M77.1,92.6c5.1-7.56,21.1-5.67,41.65,8.19s32.75,42,32.75,42"/><path class="cls-1" d="M74.58,96.56c4.69-7.81,20.78-6.77,42,6s34.9,40.22,34.9,40.22"/><path class="cls-1" d="M72.26,100.65c4.28-8,20.4-7.84,42.28,3.79s37,38.34,37,38.34"/><path class="cls-1" d="M70.17,104.85c3.85-8.26,20-8.9,42.42,1.57s38.91,36.35,38.91,36.35"/><path class="cls-1" d="M68.29,109.16c3.41-8.45,19.46-9.93,42.44-.65s40.76,34.27,40.76,34.27"/><path class="cls-1" d="M66.65,113.56c3-8.62,18.92-10.94,42.35-2.87s42.5,32.09,42.5,32.09"/><path class="cls-1" d="M65.23,118c2.51-8.76,18.32-11.91,42.14-5.08s44.12,29.82,44.12,29.82"/><path class="cls-1" d="M64.06,122.59c2.05-8.88,17.67-12.86,41.82-7.28s45.62,27.47,45.62,27.47"/><path class="cls-1" d="M63.12,127.19c1.58-9,17-13.76,41.38-9.46s47,25,47,25"/><path class="cls-1" d="M62.43,131.84c1.11-9,16.23-14.63,40.83-11.61s48.24,22.55,48.24,22.55"/><path class="cls-1" d="M62,136.52c.64-9.09,15.44-15.46,40.16-13.73s49.36,20,49.36,20"/><path class="cls-1" d="M61.77,141.21c.16-9.11,14.61-16.25,39.39-15.82s50.34,17.38,50.34,17.38"/><path class="cls-1" d="M61.81,145.91c-.32-9.11,13.74-17,38.51-17.86s51.18,14.72,51.18,14.72"/><path class="cls-1" d="M62.1,150.6c-.79-9.08,12.83-17.69,37.52-19.85s51.88,12,51.88,12"/><path class="cls-1" d="M62.63,155.27c-1.27-9,11.89-18.33,36.43-21.78s52.44,9.29,52.44,9.29"/><path class="cls-1" d="M63.41,159.9C61.67,151,74.32,141,98.65,136.24s52.85,6.54,52.85,6.54"/><path class="cls-1" d="M64.42,164.49c-2.2-8.84,9.91-19.48,34-25.47s53.12,3.76,53.12,3.76"/><path class="cls-1" d="M65.68,169C63,160.3,74.55,149,98.25,141.8s53.24,1,53.24,1"/><path class="cls-1" d="M67.17,173.47c-3.12-8.56,7.82-20.41,31.1-28.88s53.22-1.81,53.22-1.81"/><path class="cls-1" d="M68.89,177.84c-3.56-8.39,6.74-20.79,29.55-30.47s53.05-4.59,53.05-4.59"/><path class="cls-1" d="M70.84,182.12c-4-8.19,5.64-21.11,27.92-32s52.74-7.36,52.74-7.36"/><path class="cls-1" d="M73,186.28c-4.42-8,4.53-21.38,26.2-33.39s52.28-10.11,52.28-10.11"/><path class="cls-1" d="M75.39,190.33c-4.83-7.73,3.41-21.59,24.42-34.72s51.68-12.84,51.68-12.84"/><path class="cls-1" d="M78,194.25c-5.23-7.47,2.27-21.73,22.57-35.95s50.94-15.52,50.94-15.52"/><path class="cls-1" d="M80.78,198c-5.61-7.18,1.13-21.82,20.66-37.08s50.06-18.17,50.06-18.17"/><path class="cls-1" d="M83.77,201.65c-6-6.88,0-21.85,18.69-38.11s49-20.76,49-20.76"/><path class="cls-1" d="M86.94,205.11c-6.33-6.56-1.16-21.82,16.67-39s47.88-23.3,47.88-23.3"/><path class="cls-1" d="M90.29,208.41c-6.67-6.22-2.3-21.73,14.6-39.85s46.6-25.78,46.6-25.78"/><path class="cls-1" d="M93.81,211.52c-7-5.86-3.43-21.58,12.5-40.56s45.19-28.18,45.19-28.18"/><path class="cls-1" d="M97.49,214.44c-7.28-5.48-4.56-21.37,10.36-41.16s43.65-30.51,43.65-30.51"/><path class="cls-1" d="M101.32,217.17c-7.56-5.1-5.67-21.1,8.19-41.65s42-32.75,42-32.75"/><path class="cls-1" d="M105.28,219.7c-7.81-4.69-6.77-20.78,6-42s40.22-34.9,40.22-34.9"/><path class="cls-1" d="M109.37,222c-8-4.28-7.84-20.4,3.79-42.28s38.34-37,38.34-37"/><path class="cls-1" d="M113.57,224.11c-8.26-3.85-8.9-20,1.57-42.42s36.35-38.91,36.35-38.91"/><path class="cls-1" d="M117.88,226c-8.45-3.41-9.93-19.46-.65-42.44s34.27-40.76,34.27-40.76"/><path class="cls-1" d="M122.28,227.63c-8.62-3-10.94-18.92-2.87-42.35s32.09-42.5,32.09-42.5"/><path class="cls-1" d="M126.76,229c-8.76-2.51-11.91-18.32-5.08-42.14s29.82-44.12,29.82-44.12"/><path class="cls-1" d="M131.31,230.22c-8.88-2.05-12.86-17.67-7.28-41.82s27.47-45.62,27.47-45.62"/><path class="cls-1" d="M135.91,231.15c-9-1.58-13.76-17-9.46-41.38s25-47,25-47"/><path class="cls-1" d="M140.56,231.85c-9-1.11-14.63-16.23-11.61-40.83s22.55-48.24,22.55-48.24"/><path class="cls-1" d="M145.24,232.3c-9.09-.64-15.46-15.44-13.73-40.16s20-49.36,20-49.36"/><path class="cls-1" d="M149.93,232.5c-9.11-.16-16.25-14.61-15.82-39.39s17.38-50.34,17.38-50.34"/><path class="cls-1" d="M154.63,232.46c-9.11.32-17-13.74-17.86-38.51s14.72-51.18,14.72-51.18"/><path class="cls-1" d="M159.32,232.17c-9.08.79-17.69-12.83-19.85-37.52s12-51.88,12-51.88"/><path class="cls-1" d="M164,231.64c-9,1.27-18.33-11.89-21.78-36.43s9.29-52.44,9.29-52.44"/><path class="cls-1" d="M168.62,230.87c-8.95,1.74-18.93-10.91-23.66-35.24s6.54-52.85,6.54-52.85"/><path class="cls-1" d="M173.21,229.85c-8.84,2.2-19.48-9.91-25.47-34s3.76-53.12,3.76-53.12"/><path class="cls-1" d="M177.73,228.59c-8.72,2.66-20-8.88-27.21-32.57s1-53.24,1-53.24"/><path class="cls-1" d="M182.19,227.1c-8.56,3.12-20.41-7.82-28.88-31.1s-1.81-53.22-1.81-53.22"/><path class="cls-1" d="M186.56,225.38c-8.39,3.56-20.79-6.74-30.47-29.55s-4.59-53.05-4.59-53.05"/><path class="cls-1" d="M190.83,223.43c-8.19,4-21.11-5.64-32-27.92s-7.36-52.74-7.36-52.74"/><path class="cls-1" d="M195,221.26c-8,4.42-21.38-4.53-33.39-26.2s-10.11-52.28-10.11-52.28"/><path class="cls-1" d="M199.05,218.88c-7.73,4.83-21.59-3.4-34.72-24.42s-12.84-51.68-12.84-51.68"/><path class="cls-1" d="M203,216.29c-7.47,5.23-21.73-2.27-35.95-22.57s-15.52-50.94-15.52-50.94"/><path class="cls-1" d="M206.74,213.49c-7.18,5.61-21.82-1.13-37.08-20.66s-18.17-50.06-18.17-50.06"/><path class="cls-1" d="M210.37,210.5c-6.88,6-21.85,0-38.11-18.69s-20.76-49-20.76-49"/><path class="cls-1" d="M213.83,207.33c-6.56,6.33-21.82,1.16-39-16.67s-23.3-47.88-23.3-47.88"/><path class="cls-1" d="M217.13,204c-6.22,6.67-21.73,2.3-39.85-14.6s-25.78-46.6-25.78-46.6"/><path class="cls-1" d="M220.24,200.46c-5.86,7-21.58,3.43-40.56-12.5s-28.18-45.19-28.18-45.19"/><path class="cls-1" d="M223.16,196.78c-5.48,7.28-21.37,4.56-41.16-10.36s-30.51-43.65-30.51-43.65"/><path class="cls-1" d="M225.89,193c-5.1,7.56-21.1,5.67-41.65-8.19s-32.75-42-32.75-42"/><path class="cls-1" d="M228.42,189c-4.69,7.81-20.78,6.77-42-6s-34.9-40.22-34.9-40.22"/><path class="cls-1" d="M230.73,184.91c-4.28,8-20.4,7.84-42.28-3.79s-37-38.34-37-38.34"/><path class="cls-1" d="M232.83,180.7c-3.85,8.26-20,8.9-42.42-1.57s-38.91-36.35-38.91-36.35"/><path class="cls-1" d="M234.7,176.39c-3.41,8.45-19.46,9.93-42.44.65s-40.76-34.27-40.76-34.27"/><path class="cls-1" d="M236.35,172c-3,8.62-18.92,10.94-42.35,2.87s-42.5-32.09-42.5-32.09"/><path class="cls-1" d="M237.76,167.51c-2.51,8.76-18.32,11.91-42.14,5.08s-44.12-29.82-44.12-29.82"/><path class="cls-1" d="M238.93,163c-2.05,8.88-17.67,12.86-41.82,7.28s-45.62-27.47-45.62-27.47"/><path class="cls-1" d="M239.87,158.36c-1.58,9-17,13.76-41.38,9.46s-47-25-47-25"/><path class="cls-1" d="M240.57,153.71c-1.11,9-16.23,14.63-40.83,11.61s-48.24-22.55-48.24-22.55"/><path class="cls-1" d="M241,149c-.64,9.09-15.44,15.46-40.16,13.73s-49.36-20-49.36-20"/><path class="cls-1" d="M241.22,144.34c-.16,9.11-14.61,16.25-39.39,15.82s-50.34-17.38-50.34-17.38"/><path class="cls-1" d="M241.18,139.64c.32,9.11-13.74,17-38.51,17.86s-51.18-14.72-51.18-14.72"/><path class="cls-1" d="M240.89,135c.79,9.08-12.83,17.69-37.52,19.85s-51.88-12-51.88-12"/><path class="cls-1" d="M240.36,130.29c1.27,9-11.89,18.33-36.43,21.78s-52.44-9.29-52.44-9.29"/><path class="cls-1" d="M239.59,125.65c1.74,8.95-10.91,18.93-35.24,23.66s-52.85-6.54-52.85-6.54"/><path class="cls-1" d="M238.57,121.07c2.2,8.84-9.91,19.48-34,25.47s-53.12-3.76-53.12-3.76"/><path class="cls-1" d="M237.31,116.54c2.66,8.72-8.88,20-32.57,27.21s-53.24-1-53.24-1"/><path class="cls-1" d="M235.82,112.08c3.12,8.56-7.82,20.41-31.1,28.88s-53.22,1.81-53.22,1.81"/><path class="cls-1" d="M234.1,107.71c3.56,8.39-6.74,20.79-29.55,30.47s-53.05,4.59-53.05,4.59"/><path class="cls-1" d="M232.15,103.44c4,8.19-5.64,21.11-27.92,32s-52.74,7.36-52.74,7.36"/><path class="cls-1" d="M230,99.27c4.42,8-4.53,21.38-26.2,33.39s-52.28,10.11-52.28,10.11"/><path class="cls-1" d="M227.6,95.22c4.83,7.73-3.4,21.59-24.42,34.72s-51.68,12.84-51.68,12.84"/><path class="cls-1" d="M225,91.3c5.23,7.47-2.27,21.73-22.57,35.95s-50.94,15.52-50.94,15.52"/><path class="cls-1" d="M222.21,87.53c5.61,7.18-1.13,21.82-20.66,37.08s-50.06,18.17-50.06,18.17"/><path class="cls-1" d="M219.22,83.9c6,6.88,0,21.85-18.69,38.11s-49,20.76-49,20.76"/><path class="cls-1" d="M216,80.44c6.33,6.56,1.16,21.82-16.67,39s-47.88,23.3-47.88,23.3"/><path class="cls-1" d="M212.7,77.15c6.66,6.22,2.3,21.73-14.6,39.85s-46.6,25.78-46.6,25.78"/><path class="cls-1" d="M209.18,74c7,5.86,3.43,21.58-12.5,40.56s-45.19,28.18-45.19,28.18"/><path class="cls-1" d="M205.5,71.11c7.28,5.48,4.56,21.37-10.36,41.16s-43.65,30.51-43.65,30.51"/><path class="cls-1" d="M201.68,68.38c7.56,5.1,5.67,21.1-8.19,41.65s-42,32.75-42,32.75"/><path class="cls-1" d="M197.71,65.86c7.81,4.69,6.77,20.78-6,42s-40.22,34.9-40.22,34.9"/><path class="cls-1" d="M193.63,63.54c8,4.28,7.84,20.4-3.79,42.28s-38.34,37-38.34,37"/><path class="cls-1" d="M189.42,61.45c8.26,3.85,8.9,20-1.57,42.42s-36.35,38.91-36.35,38.91"/><path class="cls-1" d="M185.11,59.57C193.56,63,195,79,185.76,102s-34.27,40.76-34.27,40.76"/><path class="cls-1" d="M180.71,57.93c8.62,3,10.94,18.92,2.87,42.35s-32.09,42.5-32.09,42.5"/><path class="cls-1" d="M176.23,56.51C185,59,188.14,74.83,181.31,98.66s-29.82,44.12-29.82,44.12"/><path class="cls-1" d="M171.68,55.34c8.88,2,12.86,17.67,7.28,41.82s-27.47,45.62-27.47,45.62"/><path class="cls-1" d="M167.08,54.4c9,1.58,13.76,17,9.46,41.38s-25,47-25,47"/><path class="cls-1" d="M162.43,53.71c9,1.11,14.63,16.23,11.61,40.83s-22.55,48.24-22.55,48.24"/><path class="cls-1" d="M157.76,53.26c9.09.64,15.46,15.44,13.73,40.16s-20,49.36-20,49.36"/><path class="cls-1" d="M153.06,53.05c9.11.16,16.25,14.61,15.82,39.39s-17.38,50.34-17.38,50.34"/><path class="cls-1" d="M148.36,53.09c9.11-.32,17,13.74,17.86,38.51s-14.72,51.18-14.72,51.18"/><path class="cls-1" d="M143.67,53.38c9.08-.79,17.69,12.83,19.85,37.52s-12,51.88-12,51.88"/><g class="cls-2"><path class="cls-3" d="M489,53.91c9-1.27,18.33,11.89,21.78,36.43s-9.29,52.44-9.29,52.44"/><path class="cls-3" d="M484.37,54.69C493.32,52.95,503.3,65.6,508,89.93s-6.54,52.85-6.54,52.85"/><path class="cls-3" d="M479.79,55.7c8.84-2.2,19.48,9.91,25.47,34s-3.76,53.12-3.76,53.12"/><path class="cls-3" d="M475.26,57c2.73-.84,5.71-.27,8.74,1.62,6.63,4.15,13.5,14.69,18.47,31,7.25,23.7-1,53.24-1,53.24"/><path class="cls-3" d="M470.8,58.45c8.56-3.12,20.41,7.82,28.88,31.1s1.81,53.22,1.81,53.22"/><path class="cls-3" d="M466.43,60.17c8.39-3.56,20.79,6.74,30.47,29.55s4.59,53.05,4.59,53.05"/><path class="cls-3" d="M462.16,62.12c8.19-4,21.11,5.64,32,27.92s7.36,52.74,7.36,52.74"/><path class="cls-3" d="M458,64.29c8-4.42,21.38,4.53,33.39,26.2s10.11,52.28,10.11,52.28"/><path class="cls-3" d="M453.94,66.67c7.73-4.83,21.59,3.4,34.72,24.42s12.84,51.68,12.84,51.68"/><path class="cls-3" d="M450,69.27C457.49,64,471.76,71.54,486,91.84s15.52,50.94,15.52,50.94"/><path class="cls-3" d="M446.25,72.06c7.18-5.61,21.82,1.13,37.08,20.66s18.17,50.06,18.17,50.06"/><path class="cls-3" d="M442.62,75.05c6.88-6,21.85,0,38.11,18.69s20.76,49,20.76,49"/><path class="cls-3" d="M439.16,78.22c6.56-6.33,21.82-1.16,39,16.67s23.3,47.88,23.3,47.88"/><path class="cls-3" d="M435.87,81.58c6.22-6.67,21.73-2.3,39.85,14.6s25.78,46.6,25.78,46.6"/><path class="cls-3" d="M432.75,85.09c5.86-7,21.58-3.43,40.56,12.5s28.18,45.19,28.18,45.19"/><path class="cls-3" d="M429.83,88.77c5.48-7.28,21.37-4.56,41.16,10.36s30.51,43.65,30.51,43.65"/><path class="cls-3" d="M427.1,92.6c5.1-7.56,21.1-5.67,41.65,8.19s32.75,42,32.75,42"/><path class="cls-3" d="M424.58,96.56c4.69-7.81,20.78-6.77,42,6s34.9,40.22,34.9,40.22"/><path class="cls-3" d="M422.26,100.65c4.28-8,20.4-7.84,42.28,3.79s37,38.34,37,38.34"/><path class="cls-3" d="M420.17,104.85c3.85-8.26,20-8.9,42.42,1.57s38.91,36.35,38.91,36.35"/><path class="cls-3" d="M418.29,109.16c3.41-8.45,19.46-9.93,42.44-.65s40.76,34.27,40.76,34.27"/><path class="cls-3" d="M416.65,113.56c3-8.62,18.92-10.94,42.35-2.87s42.5,32.09,42.5,32.09"/><path class="cls-3" d="M415.23,118c2.51-8.76,18.32-11.91,42.14-5.08s44.12,29.82,44.12,29.82"/><path class="cls-3" d="M414.06,122.59c2.05-8.88,17.67-12.86,41.82-7.28s45.62,27.47,45.62,27.47"/><path class="cls-3" d="M413.12,127.19c1.58-9,17-13.76,41.38-9.46s47,25,47,25"/><path class="cls-3" d="M412.43,131.84c1.11-9,16.23-14.63,40.83-11.61s48.24,22.55,48.24,22.55"/><path class="cls-3" d="M412,136.52c.64-9.09,15.44-15.46,40.16-13.73s49.36,20,49.36,20"/><path class="cls-3" d="M411.77,141.21c.16-9.11,14.61-16.25,39.39-15.82s50.34,17.38,50.34,17.38"/><path class="cls-3" d="M411.81,145.91c-.32-9.11,13.74-17,38.51-17.86s51.18,14.72,51.18,14.72"/><path class="cls-3" d="M412.1,150.6c-.79-9.08,12.83-17.69,37.52-19.85s51.88,12,51.88,12"/><path class="cls-3" d="M412.63,155.27c-1.27-9,11.89-18.33,36.43-21.78s52.44,9.29,52.44,9.29"/><path class="cls-3" d="M413.41,159.9c-1.74-8.95,10.91-18.93,35.24-23.66s52.85,6.54,52.85,6.54"/><path class="cls-3" d="M414.42,164.49c-2.2-8.84,9.91-19.48,34-25.47s53.12,3.76,53.12,3.76"/><path class="cls-3" d="M415.68,169c-2.66-8.72,8.88-20,32.57-27.21s53.24,1,53.24,1"/><path class="cls-3" d="M417.17,173.47c-3.12-8.56,7.82-20.41,31.1-28.88s53.22-1.81,53.22-1.81"/><path class="cls-3" d="M418.89,177.84c-3.56-8.39,6.74-20.79,29.55-30.47s53.05-4.59,53.05-4.59"/><path class="cls-3" d="M420.84,182.12c-4-8.19,5.64-21.11,27.92-32s52.74-7.36,52.74-7.36"/><path class="cls-3" d="M423,186.28c-4.42-8,4.53-21.38,26.2-33.39s52.28-10.11,52.28-10.11"/><path class="cls-3" d="M425.39,190.33c-4.83-7.73,3.41-21.59,24.42-34.72s51.68-12.84,51.68-12.84"/><path class="cls-3" d="M428,194.25c-5.23-7.47,2.27-21.73,22.57-35.95s50.94-15.52,50.94-15.52"/><path class="cls-3" d="M430.78,198c-5.61-7.18,1.13-21.82,20.66-37.08s50.06-18.17,50.06-18.17"/><path class="cls-3" d="M433.77,201.65c-6-6.88,0-21.85,18.69-38.11s49-20.76,49-20.76"/><path class="cls-3" d="M436.94,205.11c-6.33-6.56-1.16-21.82,16.67-39s47.88-23.3,47.88-23.3"/><path class="cls-3" d="M440.29,208.41c-6.67-6.22-2.3-21.73,14.6-39.85s46.6-25.78,46.6-25.78"/><path class="cls-3" d="M443.81,211.52c-7-5.86-3.43-21.58,12.5-40.56s45.19-28.18,45.19-28.18"/><path class="cls-3" d="M447.49,214.45c-7.28-5.48-4.56-21.37,10.36-41.16s43.65-30.51,43.65-30.51"/><path class="cls-3" d="M451.32,217.17c-7.56-5.1-5.67-21.1,8.19-41.65s42-32.75,42-32.75"/><path class="cls-3" d="M455.28,219.7c-7.81-4.69-6.77-20.78,6-42s40.22-34.9,40.22-34.9"/><path class="cls-3" d="M459.37,222c-8-4.28-7.84-20.4,3.79-42.28s38.34-37,38.34-37"/><path class="cls-3" d="M463.57,224.11c-8.26-3.85-8.9-20,1.57-42.42s36.35-38.91,36.35-38.91"/><path class="cls-3" d="M467.88,226c-8.45-3.41-9.93-19.46-.65-42.44s34.27-40.76,34.27-40.76"/><path class="cls-3" d="M472.28,227.63c-8.62-3-10.94-18.92-2.87-42.35s32.09-42.5,32.09-42.5"/><path class="cls-3" d="M476.76,229c-8.76-2.51-11.91-18.32-5.08-42.14s29.82-44.12,29.82-44.12"/><path class="cls-3" d="M481.31,230.22c-8.88-2.05-12.86-17.67-7.28-41.82s27.47-45.62,27.47-45.62"/><path class="cls-3" d="M485.91,231.15c-9-1.58-13.76-17-9.46-41.38s25-47,25-47"/><path class="cls-3" d="M490.56,231.85c-9-1.11-14.63-16.23-11.61-40.83s22.55-48.24,22.55-48.24"/><path class="cls-3" d="M495.24,232.3c-9.09-.64-15.46-15.44-13.73-40.16s20-49.36,20-49.36"/><path class="cls-3" d="M499.93,232.5c-9.11-.16-16.25-14.61-15.82-39.39s17.38-50.34,17.38-50.34"/><path class="cls-3" d="M504.63,232.46c-9.11.32-17-13.74-17.86-38.51s14.72-51.18,14.72-51.18"/><path class="cls-3" d="M509.32,232.17c-9.08.79-17.69-12.83-19.85-37.52s12-51.88,12-51.88"/><path class="cls-3" d="M514,231.64c-9,1.27-18.33-11.89-21.78-36.43s9.29-52.44,9.29-52.44"/><path class="cls-3" d="M518.62,230.87c-8.95,1.74-18.93-10.91-23.66-35.24s6.54-52.85,6.54-52.85"/><path class="cls-3" d="M523.21,229.85c-8.84,2.2-19.48-9.91-25.47-34s3.76-53.12,3.76-53.12"/><path class="cls-3" d="M527.73,228.59c-8.72,2.66-20-8.88-27.21-32.57s1-53.24,1-53.24"/><path class="cls-3" d="M532.19,227.1c-8.56,3.12-20.41-7.82-28.88-31.1s-1.81-53.22-1.81-53.22"/><path class="cls-3" d="M536.56,225.38c-8.39,3.56-20.79-6.74-30.47-29.55s-4.59-53.05-4.59-53.05"/><path class="cls-3" d="M540.83,223.43c-8.19,4-21.11-5.64-32-27.92s-7.36-52.74-7.36-52.74"/><path class="cls-3" d="M545,221.26c-8,4.42-21.38-4.53-33.39-26.2s-10.11-52.28-10.11-52.28"/><path class="cls-3" d="M549.05,218.88c-7.73,4.83-21.59-3.4-34.72-24.42s-12.84-51.68-12.84-51.68"/><path class="cls-3" d="M553,216.29c-7.47,5.23-21.73-2.27-35.95-22.57s-15.52-50.94-15.52-50.94"/><path class="cls-3" d="M556.74,213.49c-7.18,5.61-21.82-1.13-37.08-20.66s-18.17-50.06-18.17-50.06"/><path class="cls-3" d="M560.37,210.5c-6.88,6-21.85,0-38.11-18.69s-20.76-49-20.76-49"/><path class="cls-3" d="M563.83,207.33c-6.56,6.33-21.82,1.16-39-16.67s-23.3-47.88-23.3-47.88"/><path class="cls-3" d="M567.13,204c-6.22,6.67-21.73,2.3-39.85-14.6s-25.78-46.6-25.78-46.6"/><path class="cls-3" d="M570.24,200.46c-5.86,7-21.58,3.43-40.56-12.5s-28.18-45.19-28.18-45.19"/><path class="cls-3" d="M573.16,196.78c-5.48,7.28-21.37,4.56-41.16-10.36s-30.51-43.65-30.51-43.65"/><path class="cls-3" d="M575.89,193c-5.1,7.56-21.1,5.67-41.65-8.19s-32.75-42-32.75-42"/><path class="cls-3" d="M578.42,189c-4.69,7.81-20.78,6.77-42-6s-34.9-40.22-34.9-40.22"/><path class="cls-3" d="M580.73,184.91c-4.28,8-20.4,7.84-42.28-3.79s-37-38.34-37-38.34"/><path class="cls-3" d="M582.83,180.7c-3.85,8.26-20,8.9-42.42-1.57s-38.91-36.35-38.91-36.35"/><path class="cls-3" d="M584.7,176.39c-3.41,8.45-19.46,9.93-42.44.65s-40.76-34.27-40.76-34.27"/><path class="cls-3" d="M586.35,172c-3,8.62-18.92,10.94-42.35,2.87s-42.5-32.09-42.5-32.09"/><path class="cls-3" d="M587.76,167.51c-2.51,8.76-18.32,11.91-42.14,5.08s-44.12-29.82-44.12-29.82"/><path class="cls-3" d="M588.93,163c-2.05,8.88-17.67,12.86-41.82,7.28s-45.62-27.47-45.62-27.47"/><path class="cls-3" d="M589.87,158.36c-1.58,9-17,13.76-41.38,9.46s-47-25-47-25"/><path class="cls-3" d="M590.57,153.71c-1.11,9-16.23,14.63-40.83,11.61s-48.24-22.55-48.24-22.55"/><path class="cls-3" d="M591,149c-.64,9.09-15.44,15.46-40.16,13.73s-49.36-20-49.36-20"/><path class="cls-3" d="M591.22,144.34c-.16,9.11-14.61,16.25-39.39,15.82s-50.34-17.38-50.34-17.38"/><path class="cls-3" d="M591.18,139.64c.32,9.11-13.74,17-38.51,17.86s-51.18-14.72-51.18-14.72"/><path class="cls-3" d="M590.89,135c.79,9.08-12.83,17.69-37.52,19.85s-51.88-12-51.88-12"/><path class="cls-3" d="M590.36,130.29c1.27,9-11.89,18.33-36.43,21.78s-52.44-9.29-52.44-9.29"/><path class="cls-3" d="M589.59,125.65c1.74,8.95-10.91,18.93-35.24,23.66s-52.85-6.54-52.85-6.54"/><path class="cls-3" d="M588.57,121.07c2.2,8.84-9.91,19.48-34,25.47s-53.12-3.76-53.12-3.76"/><path class="cls-3" d="M587.31,116.54c2.66,8.72-8.88,20-32.57,27.21s-53.24-1-53.24-1"/><path class="cls-3" d="M585.82,112.08c3.12,8.56-7.82,20.41-31.1,28.88s-53.22,1.81-53.22,1.81"/><path class="cls-3" d="M584.1,107.71c3.56,8.39-6.74,20.79-29.55,30.47s-53.05,4.59-53.05,4.59"/><path class="cls-3" d="M582.15,103.44c4,8.19-5.64,21.11-27.92,32s-52.74,7.36-52.74,7.36"/><path class="cls-3" d="M580,99.27c4.42,8-4.53,21.38-26.2,33.39s-52.28,10.11-52.28,10.11"/><path class="cls-3" d="M577.6,95.22c4.83,7.73-3.4,21.59-24.42,34.72s-51.68,12.84-51.68,12.84"/><path class="cls-3" d="M575,91.31c5.23,7.47-2.27,21.73-22.57,35.95s-50.94,15.52-50.94,15.52"/><path class="cls-3" d="M572.21,87.53c5.61,7.18-1.13,21.82-20.66,37.08s-50.06,18.17-50.06,18.17"/><path class="cls-3" d="M569.22,83.9c6,6.88,0,21.85-18.69,38.11s-49,20.76-49,20.76"/><path class="cls-3" d="M566,80.44c6.33,6.56,1.16,21.82-16.67,39s-47.88,23.3-47.88,23.3"/><path class="cls-3" d="M562.7,77.15c6.66,6.22,2.3,21.73-14.6,39.85s-46.6,25.78-46.6,25.78"/><path class="cls-3" d="M559.18,74c7,5.86,3.43,21.58-12.5,40.56s-45.19,28.18-45.19,28.18"/><path class="cls-3" d="M555.5,71.11c7.28,5.48,4.56,21.37-10.36,41.16s-43.65,30.51-43.65,30.51"/><path class="cls-3" d="M551.68,68.38c7.56,5.1,5.67,21.1-8.19,41.65s-42,32.75-42,32.75"/><path class="cls-3" d="M547.71,65.86c7.81,4.69,6.77,20.78-6,42s-40.22,34.9-40.22,34.9"/><path class="cls-3" d="M543.63,63.54c8,4.28,7.84,20.4-3.79,42.28s-38.34,37-38.34,37"/><path class="cls-3" d="M539.42,61.45c8.26,3.85,8.9,20-1.57,42.42s-36.35,38.91-36.35,38.91"/><path class="cls-3" d="M535.11,59.57C543.56,63,545,79,535.76,102s-34.27,40.76-34.27,40.76"/><path class="cls-3" d="M530.71,57.93c8.62,3,10.94,18.92,2.87,42.35s-32.09,42.5-32.09,42.5"/><path class="cls-3" d="M526.23,56.51C535,59,538.14,74.83,531.31,98.66s-29.82,44.12-29.82,44.12"/><path class="cls-3" d="M521.68,55.34c8.88,2,12.86,17.67,7.28,41.82s-27.47,45.62-27.47,45.62"/><path class="cls-3" d="M517.08,54.4c9,1.58,13.76,17,9.46,41.38s-25,47-25,47"/><path class="cls-3" d="M512.43,53.71c9,1.11,14.63,16.23,11.61,40.83s-22.55,48.24-22.55,48.24"/><path class="cls-3" d="M507.76,53.26c9.09.64,15.46,15.44,13.73,40.16s-20,49.36-20,49.36"/><path class="cls-3" d="M503.06,53.05c9.11.16,16.25,14.61,15.82,39.39s-17.38,50.34-17.38,50.34"/><path class="cls-3" d="M498.36,53.09c9.11-.32,17,13.74,17.86,38.51s-14.72,51.18-14.72,51.18"/><path class="cls-3" d="M493.67,53.38c9.08-.79,17.69,12.83,19.85,37.52s-12,51.88-12,51.88"/></g><rect class="cls-4" width="668.68" height="294.27"/></g><g id="POPULATION"><path class="cls-3" d="M495.15,97.6c4.59-.64,9.32,6,11.07,18.52s-4.73,26.66-4.73,26.66"/><path class="cls-3" d="M492.79,98c4.55-.88,9.63,5.55,12,17.92s-3.32,26.87-3.32,26.87"/><path class="cls-3" d="M490.46,98.51c4.5-1.12,9.9,5,13,17.26s-1.91,27-1.91,27"/><path class="cls-3" d="M488.16,99.15a5.33,5.33,0,0,1,4.45.82c3.37,2.11,6.86,7.47,9.39,15.74,3.68,12-.5,27.07-.5,27.07"/><path class="cls-3" d="M485.89,99.9c4.35-1.58,10.37,4,14.68,15.81s.92,27.06.92,27.06"/><path class="cls-3" d="M483.67,100.78c4.27-1.81,10.57,3.43,15.49,15s2.34,27,2.34,27"/><path class="cls-3" d="M481.5,101.77c4.16-2,10.73,2.87,16.26,14.19s3.74,26.81,3.74,26.81"/><path class="cls-3" d="M479.38,102.87c4.05-2.25,10.87,2.3,17,13.32s5.14,26.58,5.14,26.58"/><path class="cls-3" d="M477.32,104.09c3.93-2.46,11,1.73,17.65,12.42s6.53,26.28,6.53,26.28"/><path class="cls-3" d="M475.33,105.4c3.8-2.66,11.05,1.15,18.28,11.47s7.89,25.9,7.89,25.9"/><path class="cls-3" d="M473.41,106.82c3.65-2.85,11.1.57,18.85,10.5s9.24,25.45,9.24,25.45"/><path class="cls-3" d="M471.56,108.34c3.5-3,11.11,0,19.38,9.5s10.56,24.93,10.56,24.93"/><path class="cls-3" d="M469.8,110c3.33-3.22,11.09-.59,19.85,8.47s11.85,24.34,11.85,24.34"/><path class="cls-3" d="M468.13,111.66c3.16-3.39,11-1.17,20.26,7.42s13.1,23.69,13.1,23.69"/><path class="cls-3" d="M466.55,113.45c3-3.55,11-1.74,20.62,6.35s14.33,23,14.33,23"/><path class="cls-3" d="M465.06,115.32c2.79-3.7,10.87-2.32,20.93,5.27s15.51,22.19,15.51,22.19"/><path class="cls-3" d="M463.67,117.26c2.59-3.84,10.73-2.88,21.17,4.16s16.65,21.35,16.65,21.35"/><path class="cls-3" d="M462.39,119.28c2.39-4,10.56-3.44,21.36,3s17.74,20.45,17.74,20.45"/><path class="cls-3" d="M461.21,121.36c2.18-4.09,10.37-4,21.49,1.93s18.79,19.49,18.79,19.49"/><path class="cls-3" d="M460.15,123.5c2-4.2,10.15-4.52,21.57.8s19.78,18.48,19.78,18.48"/><path class="cls-3" d="M459.19,125.69c1.74-4.3,9.9-5.05,21.58-.33s20.72,17.42,20.72,17.42"/><path class="cls-3" d="M458.36,127.92c1.51-4.38,9.62-5.56,21.53-1.46s21.61,16.31,21.61,16.31"/><path class="cls-3" d="M457.64,130.2c1.28-4.45,9.31-6.06,21.42-2.58s22.43,15.16,22.43,15.16"/><path class="cls-3" d="M457,132.51c1-4.51,9-6.54,21.26-3.7s23.19,14,23.19,14"/><path class="cls-3" d="M456.56,134.85c.8-4.56,8.63-7,21-4.81s23.89,12.73,23.89,12.73"/><path class="cls-3" d="M456.21,137.22c.56-4.6,8.25-7.44,20.76-5.9s24.53,11.46,24.53,11.46"/><path class="cls-3" d="M456,139.59c.32-4.62,7.85-7.86,20.42-7s25.09,10.16,25.09,10.16"/><path class="cls-3" d="M455.88,142c.08-4.63,7.43-8.26,20-8s25.59,8.84,25.59,8.84"/><path class="cls-3" d="M455.9,144.37c-.16-4.63,7-8.64,19.58-9.08s26,7.49,26,7.49"/><path class="cls-3" d="M456,146.75c-.4-4.62,6.52-9,19.08-10.09s26.37,6.11,26.37,6.11"/><path class="cls-3" d="M456.32,149.13c-.64-4.59,6-9.32,18.52-11.07s26.66,4.73,26.66,4.73"/><path class="cls-3" d="M456.71,151.48c-.88-4.55,5.55-9.62,17.92-12s26.87,3.32,26.87,3.32"/><path class="cls-3" d="M457.23,153.81c-1.12-4.5,5-9.9,17.26-13s27,1.91,27,1.91"/><path class="cls-3" d="M457.87,156.12c-1.35-4.43,4.51-10.15,16.56-13.84s27.07.5,27.07.5"/><path class="cls-3" d="M458.62,158.38C457,154,462.6,148,474.44,143.7s27.06-.92,27.06-.92"/><path class="cls-3" d="M459.5,160.6c-1.81-4.27,3.43-10.57,15-15.49s27-2.34,27-2.34"/><path class="cls-3" d="M460.49,162.78c-2-4.16,2.87-10.73,14.19-16.26s26.81-3.74,26.81-3.74"/><path class="cls-3" d="M461.59,164.9c-2.25-4.05,2.3-10.87,13.32-17s26.58-5.14,26.58-5.14"/><path class="cls-3" d="M462.8,167c-2.46-3.93,1.73-11,12.42-17.65s26.28-6.53,26.28-6.53"/><path class="cls-3" d="M464.12,168.95c-2.66-3.8,1.15-11.05,11.47-18.28s25.9-7.89,25.9-7.89"/><path class="cls-3" d="M465.54,170.87c-2.85-3.65.57-11.1,10.5-18.85s25.45-9.24,25.45-9.24"/><path class="cls-3" d="M467.06,172.71c-3-3.5,0-11.11,9.5-19.38s24.93-10.56,24.93-10.56"/><path class="cls-3" d="M468.68,174.47c-3.22-3.33-.59-11.09,8.47-19.85s24.34-11.85,24.34-11.85"/><path class="cls-3" d="M470.38,176.14c-3.39-3.16-1.17-11,7.42-20.26s23.69-13.1,23.69-13.1"/><path class="cls-3" d="M472.17,177.73c-3.55-3-1.74-11,6.35-20.62s23-14.33,23-14.33"/><path class="cls-3" d="M474,179.21c-3.7-2.79-2.32-10.87,5.27-20.93s22.19-15.51,22.19-15.51"/><path class="cls-3" d="M476,180.6c-3.84-2.59-2.88-10.73,4.16-21.17s21.35-16.65,21.35-16.65"/><path class="cls-3" d="M478,181.88c-4-2.39-3.44-10.56,3-21.36s20.45-17.74,20.45-17.74"/><path class="cls-3" d="M480.08,183.06c-4.09-2.18-4-10.37,1.93-21.49s19.49-18.79,19.49-18.79"/><path class="cls-3" d="M482.21,184.13c-4.2-2-4.53-10.15.8-21.57s18.48-19.78,18.48-19.78"/><path class="cls-3" d="M484.4,185.08c-4.3-1.74-5.05-9.9-.33-21.58s17.42-20.72,17.42-20.72"/><path class="cls-3" d="M486.64,185.92c-4.38-1.51-5.56-9.62-1.46-21.53s16.31-21.61,16.31-21.61"/><path class="cls-3" d="M488.92,186.63c-4.45-1.28-6.06-9.31-2.58-21.42s15.16-22.43,15.16-22.43"/><path class="cls-3" d="M491.23,187.23c-4.51-1-6.54-9-3.7-21.26s14-23.19,14-23.19"/><path class="cls-3" d="M493.57,187.71c-4.56-.8-7-8.63-4.81-21s12.73-23.89,12.73-23.89"/><path class="cls-3" d="M495.94,188.06c-4.6-.56-7.44-8.25-5.9-20.76s11.46-24.53,11.46-24.53"/><path class="cls-3" d="M498.31,188.29c-4.62-.32-7.86-7.85-7-20.42s10.16-25.09,10.16-25.09"/><path class="cls-3" d="M500.7,188.39c-4.63-.08-8.26-7.43-8-20s8.84-25.59,8.84-25.59"/><path class="cls-3" d="M503.09,188.37c-4.63.16-8.64-7-9.08-19.58s7.49-26,7.49-26"/><path class="cls-3" d="M505.47,188.23c-4.62.4-9-6.52-10.09-19.08s6.11-26.37,6.11-26.37"/><path class="cls-3" d="M507.85,188c-4.59.64-9.32-6-11.08-18.52s4.73-26.66,4.73-26.66"/><path class="cls-3" d="M510.2,187.56c-4.55.88-9.63-5.55-12-17.92s3.32-26.87,3.32-26.87"/><path class="cls-3" d="M512.53,187c-4.5,1.12-9.9-5-13-17.26s1.91-27,1.91-27"/><path class="cls-3" d="M514.84,186.41c-4.43,1.35-10.15-4.51-13.84-16.56s.5-27.07.5-27.07"/><path class="cls-3" d="M517.1,185.65c-4.35,1.58-10.37-4-14.68-15.81s-.92-27.06-.92-27.06"/><path class="cls-3" d="M519.32,184.77c-4.27,1.81-10.57-3.43-15.49-15s-2.34-27-2.34-27"/><path class="cls-3" d="M521.5,183.78c-4.16,2-10.73-2.87-16.26-14.19s-3.74-26.81-3.74-26.81"/><path class="cls-3" d="M523.62,182.68c-4.05,2.25-10.87-2.3-17-13.32s-5.14-26.58-5.14-26.58"/><path class="cls-3" d="M525.67,181.47c-3.93,2.46-11-1.73-17.65-12.42s-6.53-26.28-6.53-26.28"/><path class="cls-3" d="M527.66,180.15c-3.8,2.66-11.05-1.15-18.28-11.47s-7.89-25.9-7.89-25.9"/><path class="cls-3" d="M529.59,178.73c-3.65,2.85-11.1-.57-18.85-10.5s-9.24-25.45-9.24-25.45"/><path class="cls-3" d="M531.43,177.21c-3.5,3-11.11,0-19.38-9.5s-10.56-24.93-10.56-24.93"/><path class="cls-3" d="M533.19,175.6c-3.33,3.22-11.09.59-19.85-8.47s-11.85-24.34-11.85-24.34"/><path class="cls-3" d="M534.86,173.89c-3.16,3.39-11,1.17-20.26-7.42s-13.1-23.69-13.1-23.69"/><path class="cls-3" d="M536.45,172.1c-3,3.55-11,1.74-20.62-6.35s-14.33-23-14.33-23"/><path class="cls-3" d="M537.93,170.23c-2.79,3.7-10.87,2.32-20.93-5.27s-15.51-22.19-15.51-22.19"/><path class="cls-3" d="M539.32,168.29c-2.59,3.84-10.73,2.88-21.17-4.16s-16.65-21.35-16.65-21.35"/><path class="cls-3" d="M540.6,166.28c-2.39,4-10.56,3.44-21.36-3s-17.74-20.45-17.74-20.45"/><path class="cls-3" d="M541.78,164.2c-2.18,4.09-10.37,4-21.49-1.93s-18.79-19.49-18.79-19.49"/><path class="cls-3" d="M542.85,162.06c-2,4.2-10.15,4.53-21.57-.8s-19.78-18.48-19.78-18.48"/><path class="cls-3" d="M543.8,159.87c-1.74,4.3-9.9,5.05-21.58.33s-20.72-17.42-20.72-17.42"/><path class="cls-3" d="M544.63,157.63c-1.51,4.38-9.62,5.56-21.53,1.46s-21.61-16.31-21.61-16.31"/><path class="cls-3" d="M545.35,155.35c-1.28,4.45-9.31,6.06-21.42,2.58s-22.43-15.16-22.43-15.16"/><path class="cls-3" d="M546,153c-1,4.51-9,6.54-21.26,3.7s-23.19-14-23.19-14"/><path class="cls-3" d="M546.43,150.7c-.8,4.56-8.63,7-21,4.81s-23.89-12.73-23.89-12.73"/><path class="cls-3" d="M546.78,148.34c-.56,4.6-8.25,7.44-20.76,5.9s-24.53-11.46-24.53-11.46"/><path class="cls-3" d="M547,146c-.32,4.62-7.85,7.86-20.42,7s-25.09-10.16-25.09-10.16"/><path class="cls-3" d="M547.11,143.57c-.08,4.63-7.43,8.26-20,8s-25.59-8.84-25.59-8.84"/><path class="cls-3" d="M547.09,141.18c.16,4.63-7,8.64-19.58,9.08s-26-7.49-26-7.49"/><path class="cls-3" d="M546.95,138.8c.4,4.62-6.52,9-19.08,10.09s-26.37-6.11-26.37-6.11"/><path class="cls-3" d="M546.68,136.43c.64,4.59-6,9.32-18.52,11.08s-26.66-4.73-26.66-4.73"/><path class="cls-3" d="M546.28,134.07c.88,4.55-5.55,9.63-17.92,12s-26.87-3.32-26.87-3.32"/><path class="cls-3" d="M545.77,131.74c1.12,4.5-5,9.9-17.26,13s-27-1.91-27-1.91"/><path class="cls-3" d="M545.13,129.44c1.35,4.43-4.51,10.15-16.56,13.84s-27.07-.5-27.07-.5"/><path class="cls-3" d="M544.37,127.17c1.58,4.35-4,10.37-15.81,14.68s-27.06.92-27.06.92"/><path class="cls-3" d="M543.49,124.95c1.81,4.27-3.43,10.57-15,15.49s-27,2.34-27,2.34"/><path class="cls-3" d="M542.5,122.78c2,4.16-2.87,10.73-14.19,16.26s-26.81,3.74-26.81,3.74"/><path class="cls-3" d="M541.4,120.66c2.25,4.05-2.3,10.87-13.32,17s-26.58,5.14-26.58,5.14"/><path class="cls-3" d="M540.19,118.6c2.46,3.93-1.73,11-12.42,17.65s-26.28,6.53-26.28,6.53"/><path class="cls-3" d="M538.87,116.61c2.66,3.8-1.15,11.05-11.47,18.28s-25.9,7.89-25.9,7.89"/><path class="cls-3" d="M537.45,114.69c2.85,3.65-.57,11.1-10.5,18.85s-25.45,9.24-25.45,9.24"/><path class="cls-3" d="M535.93,112.84c3,3.5,0,11.11-9.5,19.38s-24.93,10.56-24.93,10.56"/><path class="cls-3" d="M534.32,111.08c3.22,3.33.59,11.09-8.47,19.85s-24.34,11.85-24.34,11.85"/><path class="cls-3" d="M532.61,109.41c3.39,3.16,1.17,11-7.42,20.26s-23.69,13.1-23.69,13.1"/><path class="cls-3" d="M530.82,107.83c3.55,3,1.74,11-6.35,20.62s-23,14.33-23,14.33"/><path class="cls-3" d="M529,106.34c3.7,2.79,2.32,10.87-5.27,20.93s-22.19,15.51-22.19,15.51"/><path class="cls-3" d="M527,105c3.84,2.59,2.88,10.73-4.16,21.17s-21.35,16.65-21.35,16.65"/><path class="cls-3" d="M525,103.67c4,2.39,3.44,10.56-3,21.36s-20.45,17.74-20.45,17.74"/><path class="cls-3" d="M522.92,102.49c4.09,2.18,4,10.37-1.93,21.49s-19.49,18.79-19.49,18.79"/><path class="cls-3" d="M520.78,101.43c4.2,2,4.53,10.15-.8,21.57s-18.48,19.78-18.48,19.78"/><path class="cls-3" d="M518.59,100.47c4.3,1.74,5.05,9.9.33,21.58s-17.42,20.72-17.42,20.72"/><path class="cls-3" d="M516.35,99.64c4.38,1.51,5.56,9.62,1.46,21.53s-16.31,21.61-16.31,21.61"/><path class="cls-3" d="M514.07,98.92c4.45,1.28,6.06,9.31,2.58,21.42s-15.16,22.43-15.16,22.43"/><path class="cls-3" d="M511.76,98.32c4.51,1,6.54,9,3.7,21.26s-14,23.19-14,23.19"/><path class="cls-3" d="M509.42,97.85c4.56.8,7,8.63,4.81,21s-12.73,23.89-12.73,23.89"/><path class="cls-3" d="M507.06,97.49c4.6.56,7.44,8.25,5.9,20.76s-11.46,24.53-11.46,24.53"/><path class="cls-3" d="M504.68,97.26c4.62.32,7.86,7.85,7,20.42s-10.16,25.09-10.16,25.09"/><path class="cls-3" d="M502.29,97.16c4.63.08,8.26,7.43,8,20s-8.84,25.59-8.84,25.59"/><path class="cls-3" d="M499.9,97.18c4.63-.16,8.64,7,9.08,19.58s-7.49,26-7.49,26"/><path class="cls-3" d="M497.52,97.33c4.62-.4,9,6.52,10.09,19.08s-6.11,26.37-6.11,26.37"/></g></svg>