<?xml version="1.0" encoding="utf-8"?>
<!-- Generator: Adobe Illustrator 21.0.0, SVG Export Plug-In . SVG Version: 6.00 Build 0)  -->
<svg version="1.1" xmlns="http://www.w3.org/2000/svg" xmlns:xlink="http://www.w3.org/1999/xlink" x="0px" y="0px"
	 viewBox="0 0 1920 1080" style="enable-background:new 0 0 1920 1080;" xml:space="preserve">
<style type="text/css">
	.st0{fill:none;stroke:#EC008C;stroke-width:0.4908;stroke-linecap:round;stroke-linejoin:round;stroke-miterlimit:10;}
	.st1{fill:#4B45CE;}
	.st2{fill:none;stroke:#000000;stroke-miterlimit:10;}
	.st3{stroke:#000000;stroke-width:0.5;stroke-miterlimit:10;}
	.st4{display:none;}
	.st5{display:inline;}
	.st6{fill:none;stroke:#00AD21;stroke-width:0.5;stroke-linecap:round;stroke-linejoin:round;stroke-miterlimit:10;}
	.st7{fill:none;stroke:#FF33B6;stroke-width:0.5;stroke-linecap:round;stroke-linejoin:round;stroke-miterlimit:10;}
	.st8{fill:#FCFCFC;stroke:#FF33B6;stroke-miterlimit:10;}
	.st9{fill:#FF33B6;}
	.st10{fill:#FCFCFC;stroke:#00AD21;stroke-linecap:round;stroke-linejoin:round;stroke-miterlimit:10;}
	.st11{fill:#00AD21;}
	.st12{font-family:'CircularStd-Book';}
	.st13{font-size:15.8556px;}
	.st14{fill:none;}
	.st15{fill:#FFFFFF;stroke:#3A2CBF;stroke-linecap:round;stroke-linejoin:round;stroke-miterlimit:10;}
	.st16{fill:#3A2CBF;}
	.st17{fill:#FFFFFF;stroke:#0043A5;stroke-miterlimit:10;}
	.st18{fill:#0043A5;}
	.st19{font-size:15.9157px;}
	.st20{fill:#F268A8;}
	.st21{display:inline;fill:#FCFCFC;stroke:#F268A8;stroke-miterlimit:10;}
	.st22{fill:#FCFCFC;stroke:#F268A8;stroke-miterlimit:10;}
	.st23{fill:#FCFCFC;stroke:#A0D19A;stroke-miterlimit:10;}
	.st24{fill:#8EC987;}
	.st25{font-size:14.5816px;}
	.st26{font-size:13px;}
</style>
<g id="population">
</g>
<g id="labels">
</g>
<g id="F_Phil" class="st4">
</g>
<g id="NF_Phil" class="st4">
</g>
<g id="F_Bos" class="st4">
</g>
<g id="NF_Bos" class="st4">
</g>
<g id="F_Minne" class="st4">
</g>
<g id="NF_Minne" class="st4">
</g>
<g id="F_LA" class="st4">
</g>
<g id="NF_LA" class="st4">
</g>
<g id="F_DC" class="st4">
</g>
<g id="NF_DC" class="st4">
</g>
<g id="F_Aus" class="st4">
</g>
<g id="NF_Aus" class="st4">
</g>
<g id="F_Sea" class="st4">
</g>
<g id="NF_Sea" class="st4">
</g>
<g id="F_Chic" class="st4">
</g>
<g id="NF_Chic" class="st4">
</g>
<g id="F_SF" class="st4">
</g>
<g id="NF_SF" class="st4">
</g>
<g id="F_NY" class="st4">
</g>
<g id="NF_NY" class="st4">
</g>
<g id="population_labels">
	<g>
		<rect x="660.1" y="203" class="st8" width="103.3" height="24.6"/>
		<text transform="matrix(1 0 0 1 668.002 220.9995)" class="st9 st12 st13">998 Industry </text>
	</g>
	<g>
		<rect x="660.1" y="854.6" class="st8" width="102.2" height="24.6"/>
		<text transform="matrix(1 0 0 1 670.4414 872.6549)" class="st9 st12 st13">118 Industry </text>
	</g>
	<g>
		<rect x="1069" y="203" class="st8" width="107.4" height="24.6"/>
		<text transform="matrix(1 0 0 1 1076.9167 220.9991)" class="st9 st12 st13">303 Industry </text>
	</g>
	<g>
		<rect x="452.6" y="420.7" class="st8" width="103.2" height="24.6"/>
		<text transform="matrix(1 0 0 1 460.5339 438.6927)" class="st9 st12 st13">273 Industry </text>
	</g>
	<g>
		<rect x="861.9" y="420.7" class="st8" width="104.9" height="24.6"/>
		<text transform="matrix(1 0 0 1 869.7822 438.6927)" class="st9 st12 st13">242 Industry </text>
	</g>
	<g>
		<rect x="1273.3" y="420.7" class="st8" width="105.6" height="24.6"/>
		<text transform="matrix(1 0 0 1 1281.1689 438.6927)" class="st9 st12 st13">200 Industry </text>
	</g>
	<g>
		<rect x="452.6" y="636.3" class="st8" width="104.1" height="24.6"/>
		<g>
			<text transform="matrix(1 0 0 1 460.7354 654.1359)" class="st9 st12 st13">153 Industry </text>
		</g>
	</g>
	<g>
		<rect x="861.9" y="636.3" class="st8" width="103.3" height="24.6"/>
		<text transform="matrix(1 0 0 1 869.7822 654.3634)" class="st9 st12 st13">129 Industry </text>
	</g>
	<g>
		<rect x="1273.3" y="636.3" class="st8" width="102.8" height="24.6"/>
		<text transform="matrix(1 0 0 1 1282.3876 654.3634)" class="st9 st12 st13">125 Industry </text>
	</g>
	<g>
		<rect x="1069" y="853.4" class="st8" width="103.7" height="24.6"/>
		<text transform="matrix(1 0 0 1 1076.917 871.4305)" class="st9 st12 st13">103 Industry </text>
	</g>
	<g>
		<rect x="861.9" y="203" class="st10" width="107.4" height="24.6"/>
		<text transform="matrix(1 0 0 1 867.3429 220.9992)" class="st11 st12 st13">165 Freelance</text>
	</g>
	<g>
		<rect x="861.9" y="853.1" class="st10" width="104.9" height="24.6"/>
		<text transform="matrix(1 0 0 1 869.7823 871.1315)" class="st11 st12 st13">16 Freelance</text>
	</g>
	<g>
		<rect x="1273.3" y="203" class="st10" width="107.4" height="24.6"/>
		<text transform="matrix(1 0 0 1 1281.1683 220.9995)" class="st11 st12 st13">34 Freelance</text>
	</g>
	<g>
		<rect x="660.1" y="420.7" class="st10" width="107.9" height="24.6"/>
		<text transform="matrix(1 0 0 1 668.0021 438.6925)" class="st11 st12 st13">24 Freelance</text>
	</g>
	<g>
		<rect x="1069" y="420.7" class="st10" width="107.1" height="24.6"/>
		<text transform="matrix(1 0 0 1 1076.9169 438.6925)" class="st11 st12 st13">25 Freelance</text>
	</g>
	<g>
		<rect x="1494.2" y="420.7" class="st10" width="105.6" height="24.6"/>
		<text transform="matrix(1 0 0 1 1502.0638 438.6925)" class="st11 st12 st13">28 Freelance</text>
	</g>
	<g>
		<rect x="1069" y="636.3" class="st10" width="103.3" height="24.6"/>
		<text transform="matrix(1 0 0 1 1075.697 654.3633)" class="st11 st12 st13">41 Freelance</text>
	</g>
	<g>
		<rect x="1494.2" y="634.6" class="st10" width="110.4" height="24.6"/>
		<text transform="matrix(1 0 0 1 1503.2837 652.6117)" class="st11 st12 st13">40 Freelance</text>
	</g>
	<g>
		<rect x="1273.3" y="851.9" class="st10" width="103.7" height="24.6"/>
		<text transform="matrix(1 0 0 1 1281.1686 869.9071)" class="st11 st12 st13">13 Freelance</text>
	</g>
	<g>
		<rect x="660.1" y="636.3" class="st10" width="104.1" height="24.6"/>
		<text transform="matrix(1 0 0 1 667.6149 654.3633)" class="st11 st12 st13">19 Freelance</text>
	</g>
	<rect x="861.9" class="st14" width="1920" height="1080"/>
</g>
<g id="Layer_24" class="st4">
	<g class="st5">
		<rect x="660.1" y="203" class="st15" width="113.4" height="24.7"/>
		<text transform="matrix(1 0 0 1 668.0315 221.0683)" class="st16 st12 st19">78% Satisfied</text>
	</g>
	<g class="st5">
		<rect x="660.1" y="854.6" class="st15" width="114.3" height="24.7"/>
		<text transform="matrix(1 0 0 1 670.4802 872.723)" class="st16 st12 st19">79% Satisfied</text>
	</g>
	<g class="st5">
		<rect x="1069" y="203" class="st15" width="107.8" height="24.7"/>
		<text transform="matrix(1 0 0 1 1076.9469 221.0682)" class="st16 st12 st19">81% Satisfied</text>
	</g>
	<g class="st5">
		<rect x="452.6" y="420.7" class="st15" width="112.4" height="24.7"/>
		<text transform="matrix(1 0 0 1 460.5636 438.7611)" class="st16 st12 st19">80% Satisfied</text>
	</g>
	<g class="st5">
		<rect x="861.9" y="420.7" class="st15" width="113.9" height="24.7"/>
		<text transform="matrix(1 0 0 1 869.8113 438.7611)" class="st16 st12 st19">83% Satisfied</text>
	</g>
	<g class="st5">
		<rect x="1273.3" y="420.7" class="st15" width="112.6" height="24.7"/>
		<text transform="matrix(1 0 0 1 1281.1981 438.7611)" class="st16 st12 st19">86% Satisfied</text>
	</g>
	<g class="st5">
		<rect x="452.6" y="636.3" class="st15" width="114" height="24.7"/>
		<g>
			<text transform="matrix(1 0 0 1 460.7661 654.2031)" class="st16 st12 st19">85% Satisfied</text>
		</g>
	</g>
	<g class="st5">
		<rect x="861.9" y="636.3" class="st15" width="111.9" height="24.7"/>
		<text transform="matrix(1 0 0 1 869.8123 654.4316)" class="st16 st12 st19">82% Satisfied</text>
	</g>
	<g class="st5">
		<rect x="1273.3" y="636.3" class="st15" width="112.9" height="24.7"/>
		<text transform="matrix(1 0 0 1 1282.4224 654.4316)" class="st16 st12 st19">85% Satisfied</text>
	</g>
	<g class="st5">
		<rect x="1069" y="853.4" class="st15" width="108.3" height="24.7"/>
		<text transform="matrix(1 0 0 1 1076.9474 871.4994)" class="st16 st12 st19">81% Satisfied</text>
	</g>
	<g class="st5">
		<rect x="861.9" y="203" class="st17" width="107.8" height="24.7"/>
		<text transform="matrix(1 0 0 1 867.3633 221.0683)" class="st18 st12 st19">72% Satisfied</text>
	</g>
	<g class="st5">
		<rect x="861.9" y="853.1" class="st17" width="110.2" height="24.7"/>
		<text transform="matrix(1 0 0 1 869.8116 871.1996)" class="st18 st12 st19">81% Satisfied</text>
	</g>
	<g class="st5">
		<rect x="1273.3" y="203" class="st17" width="107.8" height="24.7"/>
		<text transform="matrix(1 0 0 1 1281.1981 221.068)" class="st18 st12 st19">74% Satisfied</text>
	</g>
	<g class="st5">
		<rect x="660.1" y="420.7" class="st17" width="109.6" height="24.7"/>
		<text transform="matrix(1 0 0 1 668.0314 438.7612)" class="st18 st12 st19">67% Satisfied</text>
	</g>
	<g class="st5">
		<rect x="1069" y="420.7" class="st17" width="113.4" height="24.7"/>
		<text transform="matrix(1 0 0 1 1076.9467 438.7612)" class="st18 st12 st19">80% Satisfied</text>
	</g>
	<g class="st5">
		<rect x="1494.2" y="420.7" class="st17" width="112.3" height="24.7"/>
		<text transform="matrix(1 0 0 1 1502.0947 438.7612)" class="st18 st12 st19">86% Satisfied</text>
	</g>
	<g class="st5">
		<rect x="1069" y="636.3" class="st17" width="111.4" height="24.7"/>
		<text transform="matrix(1 0 0 1 1075.723 654.4313)" class="st18 st12 st19">78% Satisfied</text>
	</g>
	<g class="st5">
		<rect x="1494.2" y="634.6" class="st17" width="110.9" height="24.7"/>
		<text transform="matrix(1 0 0 1 1503.3181 652.6797)" class="st18 st12 st19">85% Satisfied</text>
	</g>
	<g class="st5">
		<rect x="1273.3" y="851.9" class="st17" width="109.2" height="24.7"/>
		<text transform="matrix(1 0 0 1 1281.1987 869.975)" class="st18 st12 st19">81% Satisfied</text>
	</g>
	<g class="st5">
		<rect x="660.1" y="636.3" class="st17" width="109.8" height="24.7"/>
		<text transform="matrix(1 0 0 1 667.6434 654.4313)" class="st18 st12 st19">89% Satisfied</text>
	</g>
</g>
<g id="Layer_25" class="st4">
	<g class="st5">
		<rect x="660.1" y="854.6" class="st22" width="79.3" height="22.6"/>
		<text transform="matrix(1 0 0 1 669.6096 871.2064)" class="st20 st12 st25">44 Hours</text>
	</g>
	<g class="st5">
		<rect x="1069" y="203" class="st22" width="77.1" height="22.6"/>
		<text transform="matrix(1 0 0 1 1076.281 219.5514)" class="st20 st12 st25">45 Hours</text>
	</g>
	<g class="st5">
		<rect x="452.6" y="420.7" class="st22" width="79.4" height="22.6"/>
		<text transform="matrix(1 0 0 1 461.2666 437.2445)" class="st20 st12 st25">45 Hours</text>
	</g>
	<g class="st5">
		<rect x="861.9" y="420.7" class="st22" width="79.9" height="22.6"/>
		<text transform="matrix(1 0 0 1 869.1462 437.2445)" class="st20 st12 st25">44 Hours</text>
	</g>
	<g class="st5">
		<rect x="1273.3" y="420.7" class="st22" width="78.1" height="22.6"/>
		<text transform="matrix(1 0 0 1 1281.4072 437.2445)" class="st20 st12 st25">44 Hours</text>
	</g>
	<g class="st5">
		<rect x="452.6" y="636.3" class="st22" width="80.2" height="22.6"/>
		<g>
			<text transform="matrix(1 0 0 1 460.0834 652.7061)" class="st20 st12 st25">45 Hours</text>
		</g>
	</g>
	<g class="st5">
		<rect x="861.9" y="636.3" class="st22" width="78.7" height="22.6"/>
		<text transform="matrix(1 0 0 1 869.6709 652.9154)" class="st20 st12 st25">43 Hours</text>
	</g>
	<g class="st5">
		<rect x="1273.3" y="636.3" class="st22" width="76" height="22.6"/>
		<text transform="matrix(1 0 0 1 1281.6547 652.9154)" class="st20 st12 st25">45 Hours</text>
	</g>
	<g class="st5">
		<rect x="1069" y="853.4" class="st22" width="75.6" height="22.6"/>
		<text transform="matrix(1 0 0 1 1076.2815 869.9823)" class="st20 st12 st25">44 Hours</text>
	</g>
	<g class="st5">
		<rect x="861.9" y="203" class="st23" width="74.2" height="22.9"/>
		<text transform="matrix(1 0 0 1 866.9031 219.5514)" class="st24 st12 st25">42 Hours</text>
	</g>
	<g class="st5">
		<rect x="861.9" y="853.1" class="st23" width="77.8" height="22.6"/>
		<text transform="matrix(1 0 0 1 869.1468 869.6832)" class="st24 st12 st25">34 Hours</text>
	</g>
	<g class="st5">
		<rect x="1273.3" y="203" class="st23" width="77.9" height="22.6"/>
		<text transform="matrix(1 0 0 1 1280.5325 219.5514)" class="st24 st12 st25">37 Hours</text>
	</g>
	<g class="st5">
		<rect x="660.1" y="420.7" class="st23" width="75.7" height="22.6"/>
		<text transform="matrix(1 0 0 1 669.8452 437.2445)" class="st24 st12 st25">35 Hours</text>
	</g>
	<g class="st5">
		<rect x="1069" y="420.7" class="st23" width="76.4" height="22.6"/>
		<text transform="matrix(1 0 0 1 1076.2817 437.2445)" class="st24 st12 st25">34 Hours</text>
	</g>
	<g class="st5">
		<rect x="1494.2" y="420.7" class="st23" width="76.7" height="22.6"/>
		<text transform="matrix(1 0 0 1 1502.3623 437.2445)" class="st24 st12 st25">32 Hours</text>
	</g>
	<g class="st5">
		<rect x="1069" y="636.3" class="st23" width="73.7" height="22.6"/>
		<text transform="matrix(1 0 0 1 1075.8469 652.9154)" class="st24 st12 st25">39 Hours</text>
	</g>
	<g class="st5">
		<rect x="1494.2" y="634.6" class="st23" width="80.3" height="22.6"/>
		<text transform="matrix(1 0 0 1 1502.5497 651.1638)" class="st24 st12 st25">30 Hours</text>
	</g>
	<g class="st5">
		<rect x="1273.3" y="851.9" class="st23" width="78.6" height="22.6"/>
		<text transform="matrix(1 0 0 1 1280.5331 868.4591)" class="st24 st12 st25">34 Hours</text>
	</g>
	<g class="st5">
		<rect x="660.1" y="636.3" class="st23" width="73.1" height="22.6"/>
		<text transform="matrix(1 0 0 1 667.0104 652.9154)" class="st24 st12 st25">37 Hours</text>
	</g>
	<g class="st5">
		<rect x="660.1" y="203" class="st22" width="76.7" height="22.6"/>
		<text transform="matrix(1 0 0 1 671.8253 218.3476)" class="st20 st12 st26">46 Hours</text>
	</g>
</g>
<g id="Layer_26">
	<rect class="st14" width="1920" height="1080"/>
</g>
</svg>
