<?xml version="1.0" encoding="utf-8"?>
<!-- Generator: Adobe Illustrator 21.0.0, SVG Export Plug-In . SVG Version: 6.00 Build 0)  -->
<svg version="1.1" xmlns="http://www.w3.org/2000/svg" xmlns:xlink="http://www.w3.org/1999/xlink" x="0px" y="0px"
	 viewBox="0 0 1383.2 1080" style="enable-background:new 0 0 1383.2 1080;" xml:space="preserve">
<style type="text/css">
	.st0{fill:none;stroke:#3EBAB3;stroke-width:0.5;stroke-linecap:round;stroke-linejoin:round;stroke-miterlimit:10;}
	.st1{fill:none;stroke:#DD4BBE;stroke-width:0.5;stroke-linecap:round;stroke-linejoin:round;stroke-miterlimit:10;}
	.st2{fill:#FCFCFC;stroke:#3EBAB3;stroke-linecap:round;stroke-linejoin:round;stroke-miterlimit:10;}
	.st3{fill:#3EBAB3;}
	.st4{font-family:'CircularStd-Book';}
	.st5{font-size:11.2829px;}
	.st6{fill:#FCFCFC;stroke:#DD4BBE;stroke-miterlimit:10;}
	.st7{fill:#DD4BBE;}
	.st8{fill:none;}
</style>
<g id="F_Phil">
</g>
<g id="NF_Phil">
</g>
<g id="F_Bos">
</g>
<g id="NF_Bos">
</g>
<g id="F_Minne">
</g>
<g id="NF_Minne">
</g>
<g id="F_LA">
</g>
<g id="NF_LA">
</g>
<g id="F_DC">
</g>
<g id="NF_DC">
</g>
<g id="F_Aus">
</g>
<g id="NF_Aus">
</g>
<g id="F_Sea">
</g>
<g id="NF_Sea">
</g>
<g id="F_Chic">
</g>
<g id="NF_Chic">
</g>
<g id="F_SF">
</g>
<g id="NF_SF">
</g>
<g id="F_NY">
</g>
<g id="NF_NY">
</g>
<g id="Layer_21">
	<g id="Layer_27">
		<g>
			<rect x="996.3" y="72.7" class="st2" width="32.2" height="30.5"/>
			<text transform="matrix(1 0 0 1 1000.8658 84.8392)" class="st3 st4 st5">&lt;25k</text>
			<text transform="matrix(1 0 0 1 1000.8658 98.3392)" class="st3 st4 st5">6%</text>
		</g>
		<g>
			<rect x="1068.1" y="116.2" class="st2" width="43.1" height="30"/>
			<text transform="matrix(1 0 0 1 1071.8112 128.4955)" class="st3 st4 st5">25-50k</text>
			<text transform="matrix(1 0 0 1 1071.8112 141.9955)" class="st3 st4 st5">26%</text>
		</g>
		<g>
			<rect x="1033.8" y="236.9" class="st2" width="44" height="28.1"/>
			<text transform="matrix(1 0 0 1 1037.4098 247.5956)" class="st3 st4 st5">50-75k</text>
			<text transform="matrix(1 0 0 1 1037.4098 261.0956)" class="st3 st4 st5">16%</text>
		</g>
		<g>
			<rect x="877.5" y="153.2" class="st2" width="50.6" height="29"/>
			<text transform="matrix(1 0 0 1 880.1705 165.0859)" class="st3 st4 st5">100-150k</text>
			<text transform="matrix(1 0 0 1 880.1705 178.5859)" class="st3 st4 st5">13%</text>
		</g>
		<g>
			<rect x="904" y="85.6" class="st2" width="53" height="28"/>
			<text transform="matrix(1 0 0 1 906.8961 97.0952)" class="st3 st4 st5">150-200k</text>
			<text transform="matrix(1 0 0 1 906.8961 110.5952)" class="st3 st4 st5">16%</text>
		</g>
		<g>
			<rect x="913.2" y="239.9" class="st2" width="47.7" height="29.2"/>
			<text transform="matrix(1 0 0 1 917.1314 251.6805)" class="st3 st4 st5">75-100k</text>
			<text transform="matrix(1 0 0 1 917.1314 265.1805)" class="st3 st4 st5">23%</text>
		</g>
		<g>
			<rect x="791.1" y="60.1" class="st6" width="32.2" height="30.5"/>
			<text transform="matrix(1 0 0 1 795.7259 72.2104)" class="st7 st4 st5">&lt;25k</text>
			<text transform="matrix(1 0 0 1 795.7259 85.7104)" class="st7 st4 st5">2%</text>
		</g>
		<g>
			<rect x="750.1" y="68.5" class="st6" width="38" height="29.9"/>
			<text transform="matrix(1 0 0 1 753.7396 79.5312)" class="st7 st4 st5">&gt;200k</text>
			<text transform="matrix(1 0 0 1 753.7396 93.0312)" class="st7 st4 st5">3%</text>
		</g>
		<g>
			<rect x="819.2" y="76.7" class="st6" width="43.1" height="30"/>
			<text transform="matrix(1 0 0 1 822.8353 88.9429)" class="st7 st4 st5">25-50k</text>
			<text transform="matrix(1 0 0 1 822.8353 102.4429)" class="st7 st4 st5">7%</text>
		</g>
		<g>
			<rect x="854.5" y="118.9" class="st6" width="44" height="28.1"/>
			<text transform="matrix(1 0 0 1 858.0267 129.5859)" class="st7 st4 st5">50-75k</text>
			<text transform="matrix(1 0 0 1 858.0267 143.0859)" class="st7 st4 st5">15%</text>
		</g>
		<g>
			<rect x="690.1" y="231.9" class="st6" width="50.6" height="29"/>
			<text transform="matrix(1 0 0 1 692.931 243.7476)" class="st7 st4 st5">100-150k</text>
			<text transform="matrix(1 0 0 1 692.931 257.2476)" class="st7 st4 st5">38%</text>
		</g>
		<g>
			<rect x="693.6" y="95.8" class="st6" width="53.5" height="27.8"/>
			<text transform="matrix(1 0 0 1 696.6038 107.272)" class="st7 st4 st5">150-200k</text>
			<text transform="matrix(1 0 0 1 696.6038 120.772)" class="st7 st4 st5">15%</text>
		</g>
		<g>
			<rect x="849.7" y="222.5" class="st6" width="47.7" height="29.2"/>
			<text transform="matrix(1 0 0 1 853.6634 234.2612)" class="st7 st4 st5">75-100k</text>
			<text transform="matrix(1 0 0 1 853.6634 247.7612)" class="st7 st4 st5">20%</text>
		</g>
		<g>
			<rect x="175.5" y="333.9" class="st6" width="32.2" height="30.5"/>
			<text transform="matrix(1 0 0 1 180.0956 346.032)" class="st7 st4 st5">&lt;25k</text>
			<text transform="matrix(1 0 0 1 180.0956 359.532)" class="st7 st4 st5">3%</text>
		</g>
		<g>
			<rect x="378.9" y="128.3" class="st6" width="32.2" height="30.5"/>
			<text transform="matrix(1 0 0 1 383.4525 140.472)" class="st7 st4 st5">&lt;25k</text>
			<text transform="matrix(1 0 0 1 383.4525 153.972)" class="st7 st4 st5">1%</text>
		</g>
		<g>
			<rect x="360.3" y="63.6" class="st6" width="38" height="29.9"/>
			<text transform="matrix(1 0 0 1 363.9974 74.5986)" class="st7 st4 st5">&gt;200k</text>
			<text transform="matrix(1 0 0 1 363.9974 88.0986)" class="st7 st4 st5">2%</text>
		</g>
		<g>
			<rect x="133" y="389" class="st6" width="38" height="29.9"/>
			<text transform="matrix(1 0 0 1 136.616 400.0301)" class="st7 st4 st5">&gt;200k</text>
			<text transform="matrix(1 0 0 1 136.616 413.5301)" class="st7 st4 st5">1%</text>
		</g>
		<g>
			<rect x="408.9" y="89.6" class="st6" width="43.1" height="30"/>
			<text transform="matrix(1 0 0 1 412.5876 101.874)" class="st7 st4 st5">25-50k</text>
			<text transform="matrix(1 0 0 1 412.5876 115.374)" class="st7 st4 st5">13%</text>
		</g>
		<g>
			<rect x="224.8" y="363.8" class="st6" width="43.1" height="30"/>
			<text transform="matrix(1 0 0 1 228.4646 376.0818)" class="st7 st4 st5">25-50k</text>
			<text transform="matrix(1 0 0 1 228.4646 389.5818)" class="st7 st4 st5">23%</text>
		</g>
		<g>
			<rect x="453.1" y="198.1" class="st6" width="44" height="28.1"/>
			<text transform="matrix(1 0 0 1 456.7025 208.7783)" class="st7 st4 st5">50-75k</text>
			<text transform="matrix(1 0 0 1 456.7025 222.2783)" class="st7 st4 st5">31%</text>
		</g>
		<g>
			<rect x="185.8" y="537.1" class="st6" width="44" height="28.1"/>
			<text transform="matrix(1 0 0 1 189.465 547.7908)" class="st7 st4 st5">50-75k</text>
			<text transform="matrix(1 0 0 1 189.465 561.2908)" class="st7 st4 st5">39%</text>
		</g>
		<g>
			<rect x="270.1" y="137.1" class="st6" width="50.6" height="29"/>
			<text transform="matrix(1 0 0 1 272.9203 148.9677)" class="st7 st4 st5">100-150k</text>
			<text transform="matrix(1 0 0 1 272.9203 162.4677)" class="st7 st4 st5">22%</text>
		</g>
		<g>
			<rect x="308.2" y="79.9" class="st6" width="53.5" height="27.8"/>
			<text transform="matrix(1 0 0 1 311.2376 91.3602)" class="st7 st4 st5">150-200k</text>
			<text transform="matrix(1 0 0 1 311.2376 104.8602)" class="st7 st4 st5">6%</text>
		</g>
		<g>
			<rect x="105.1" y="328.4" class="st6" width="53.5" height="27.8"/>
			<text transform="matrix(1 0 0 1 108.1174 339.821)" class="st7 st4 st5">150-200k</text>
			<text transform="matrix(1 0 0 1 108.1174 353.321)" class="st7 st4 st5">2%</text>
		</g>
		<g>
			<rect x="77.1" y="355.2" class="st6" width="50.6" height="29"/>
			<text transform="matrix(1 0 0 1 79.9192 367.0457)" class="st7 st4 st5">100-150k</text>
			<text transform="matrix(1 0 0 1 79.9192 380.5457)" class="st7 st4 st5">11%</text>
		</g>
		<g>
			<rect x="307.9" y="250.2" class="st6" width="47.7" height="29.2"/>
			<text transform="matrix(1 0 0 1 311.7909 261.9902)" class="st7 st4 st5">75-100k</text>
			<text transform="matrix(1 0 0 1 311.7909 275.4902)" class="st7 st4 st5">26%</text>
		</g>
		<g>
			<rect x="45.8" y="431.7" class="st6" width="47.7" height="29.2"/>
			<text transform="matrix(1 0 0 1 49.7737 443.5115)" class="st7 st4 st5">75-100k</text>
			<text transform="matrix(1 0 0 1 49.7737 457.0115)" class="st7 st4 st5">22%</text>
		</g>
		<g>
			<rect x="592.4" y="86" class="st2" width="32.2" height="30.5"/>
			<text transform="matrix(1 0 0 1 597.0392 98.1313)" class="st3 st4 st5">&lt;25k</text>
			<text transform="matrix(1 0 0 1 597.0392 111.6313)" class="st3 st4 st5">6%</text>
		</g>
		<g>
			<rect x="384.6" y="301.4" class="st2" width="32.2" height="28.6"/>
			<text transform="matrix(1 0 0 1 389.1929 312.6321)" class="st3 st4 st5">&lt;25k</text>
			<text transform="matrix(1 0 0 1 389.1929 326.1321)" class="st3 st4 st5">9%</text>
		</g>
		<g>
			<rect x="552.5" y="71" class="st2" width="38.5" height="28.6"/>
			<text transform="matrix(1 0 0 1 557.5911 81.9825)" class="st3 st4 st5">&gt;200k</text>
			<text transform="matrix(1 0 0 1 557.5911 95.4825)" class="st3 st4 st5">4%</text>
		</g>
		<g>
			<rect x="663.4" y="125.5" class="st2" width="43.1" height="30"/>
			<text transform="matrix(1 0 0 1 667.1164 137.8262)" class="st3 st4 st5">25-50k</text>
			<text transform="matrix(1 0 0 1 667.1164 151.3262)" class="st3 st4 st5">21%</text>
		</g>
		<g>
			<rect x="449.1" y="382.5" class="st2" width="43.1" height="30"/>
			<text transform="matrix(1 0 0 1 452.7168 394.7693)" class="st3 st4 st5">25-50k</text>
			<text transform="matrix(1 0 0 1 452.7168 408.2693)" class="st3 st4 st5">27%</text>
		</g>
		<g>
			<rect x="619.8" y="250.2" class="st2" width="44" height="28.1"/>
			<text transform="matrix(1 0 0 1 623.4661 260.8795)" class="st3 st4 st5">50-75k</text>
			<text transform="matrix(1 0 0 1 623.4661 274.3795)" class="st3 st4 st5">16%</text>
		</g>
		<g>
			<rect x="317.9" y="475.6" class="st2" width="44" height="28.1"/>
			<text transform="matrix(1 0 0 1 321.5049 486.2956)" class="st3 st4 st5">50-75k</text>
			<text transform="matrix(1 0 0 1 321.5049 499.7956)" class="st3 st4 st5">41%</text>
		</g>
		<g>
			<rect x="471.4" y="135.7" class="st2" width="50.6" height="29"/>
			<text transform="matrix(1 0 0 1 474.17 147.606)" class="st3 st4 st5">100-150k</text>
			<text transform="matrix(1 0 0 1 474.17 161.106)" class="st3 st4 st5">20%</text>
		</g>
		<g>
			<rect x="328.6" y="301.2" class="st2" width="50.6" height="29"/>
			<text transform="matrix(1 0 0 1 331.3701 313.1282)" class="st3 st4 st5">100-150k</text>
			<text transform="matrix(1 0 0 1 331.3701 326.6282)" class="st3 st4 st5">9%</text>
		</g>
		<g>
			<rect x="512.8" y="97.7" class="st2" width="53" height="28"/>
			<text transform="matrix(1 0 0 1 515.8019 109.189)" class="st3 st4 st5">150-200k</text>
			<text transform="matrix(1 0 0 1 515.8019 122.689)" class="st3 st4 st5">5%</text>
		</g>
		<g>
			<rect x="518.9" y="249.5" class="st2" width="47.7" height="29.2"/>
			<text transform="matrix(1 0 0 1 522.8019 261.3199)" class="st3 st4 st5">75-100k</text>
			<text transform="matrix(1 0 0 1 522.8019 274.8199)" class="st3 st4 st5">9%</text>
		</g>
		<g>
			<rect x="273.5" y="336.7" class="st2" width="47.7" height="29.2"/>
			<text transform="matrix(1 0 0 1 277.4566 348.5101)" class="st3 st4 st5">75-100k</text>
			<text transform="matrix(1 0 0 1 277.4566 362.0101)" class="st3 st4 st5">14%</text>
		</g>
		<g>
			<rect x="791" y="295.2" class="st2" width="32.2" height="30.5"/>
			<text transform="matrix(1 0 0 1 795.509 307.3112)" class="st3 st4 st5">&lt;25k</text>
			<text transform="matrix(1 0 0 1 795.509 320.8112)" class="st3 st4 st5">4%</text>
		</g>
		<g>
			<rect x="873.2" y="402.8" class="st2" width="43.1" height="30"/>
			<text transform="matrix(1 0 0 1 876.9025 415.09)" class="st3 st4 st5">25-50k</text>
			<text transform="matrix(1 0 0 1 876.9025 428.5899)" class="st3 st4 st5">43%</text>
		</g>
		<g>
			<rect x="714.1" y="463.8" class="st2" width="44" height="28.1"/>
			<text transform="matrix(1 0 0 1 717.7219 474.4742)" class="st3 st4 st5">50-75k</text>
			<text transform="matrix(1 0 0 1 717.7219 487.9742)" class="st3 st4 st5">30%</text>
		</g>
		<g>
			<rect x="733.8" y="301.5" class="st2" width="50.6" height="29"/>
			<text transform="matrix(1 0 0 1 736.549 313.3801)" class="st3 st4 st5">100-150k</text>
			<text transform="matrix(1 0 0 1 736.549 326.8801)" class="st3 st4 st5">9%</text>
		</g>
		<g>
			<rect x="696.5" y="339" class="st2" width="47.7" height="29.2"/>
			<text transform="matrix(1 0 0 1 700.4543 350.8415)" class="st3 st4 st5">75-100k</text>
			<text transform="matrix(1 0 0 1 700.4543 364.3415)" class="st3 st4 st5">13%</text>
		</g>
		<g>
			<rect x="995.1" y="350.2" class="st6" width="32.2" height="30.5"/>
			<text transform="matrix(1 0 0 1 999.572 362.3581)" class="st7 st4 st5">&lt;25k</text>
			<text transform="matrix(1 0 0 1 999.572 375.8581)" class="st7 st4 st5">2%</text>
		</g>
		<g>
			<rect x="1045.7" y="330.6" class="st6" width="43.1" height="30"/>
			<text transform="matrix(1 0 0 1 1049.408 342.924)" class="st7 st4 st5">25-50k</text>
			<text transform="matrix(1 0 0 1 1049.408 356.424)" class="st7 st4 st5">24%</text>
		</g>
		<g>
			<rect x="1035" y="479.2" class="st6" width="44" height="28.1"/>
			<text transform="matrix(1 0 0 1 1038.5408 489.9103)" class="st7 st4 st5">50-75k</text>
			<text transform="matrix(1 0 0 1 1038.5408 503.4103)" class="st7 st4 st5">31%</text>
		</g>
		<g>
			<rect x="937.1" y="303" class="st6" width="53.5" height="27.8"/>
			<text transform="matrix(1 0 0 1 939.9802 314.4103)" class="st7 st4 st5">150-200k</text>
			<text transform="matrix(1 0 0 1 939.9802 327.9103)" class="st7 st4 st5">2%</text>
		</g>
		<g>
			<rect x="876.5" y="443.6" class="st6" width="47.7" height="29.2"/>
			<text transform="matrix(1 0 0 1 880.4704 455.4288)" class="st7 st4 st5">75-100k</text>
			<text transform="matrix(1 0 0 1 880.4704 468.9288)" class="st7 st4 st5">27%</text>
		</g>
		<g>
			<rect x="896.2" y="333.2" class="st6" width="50.6" height="29"/>
			<text transform="matrix(1 0 0 1 899.0192 345.0402)" class="st7 st4 st5">100-150k</text>
			<text transform="matrix(1 0 0 1 899.0192 358.5402)" class="st7 st4 st5">14%</text>
		</g>
		<g>
			<rect x="584.7" y="293.1" class="st6" width="32.2" height="29.2"/>
			<text transform="matrix(1 0 0 1 588.2958 304.7371)" class="st7 st4 st5">&lt;25k</text>
			<text transform="matrix(1 0 0 1 588.2958 318.2371)" class="st7 st4 st5">2%</text>
		</g>
		<g>
			<rect x="628.6" y="310.4" class="st6" width="43.1" height="30"/>
			<text transform="matrix(1 0 0 1 632.2534 322.6942)" class="st7 st4 st5">25-50k</text>
			<text transform="matrix(1 0 0 1 632.2534 336.1942)" class="st7 st4 st5">14%</text>
		</g>
		<g>
			<rect x="659.5" y="418.5" class="st6" width="44" height="28.1"/>
			<text transform="matrix(1 0 0 1 663.1009 429.2087)" class="st7 st4 st5">50-75k</text>
			<text transform="matrix(1 0 0 1 663.1009 442.7087)" class="st7 st4 st5">27%</text>
		</g>
		<g>
			<rect x="467.1" y="352.7" class="st6" width="50.6" height="29"/>
			<text transform="matrix(1 0 0 1 469.9319 364.6199)" class="st7 st4 st5">100-150k</text>
			<text transform="matrix(1 0 0 1 469.9319 378.1199)" class="st7 st4 st5">27%</text>
		</g>
		<g>
			<rect x="526.1" y="294" class="st6" width="53.5" height="29.2"/>
			<text transform="matrix(1 0 0 1 529.058 306.7957)" class="st7 st4 st5">150-200k</text>
			<text transform="matrix(1 0 0 1 529.058 320.2957)" class="st7 st4 st5">7%</text>
		</g>
		<g>
			<rect x="529.5" y="485.2" class="st6" width="47.7" height="29.2"/>
			<text transform="matrix(1 0 0 1 533.4028 496.9812)" class="st7 st4 st5">75-100k</text>
			<text transform="matrix(1 0 0 1 533.4028 510.4812)" class="st7 st4 st5">24%</text>
		</g>
		<g>
			<rect x="1265.3" y="305.9" class="st2" width="32.2" height="30.5"/>
			<text transform="matrix(1 0 0 1 1269.8663 318.0418)" class="st3 st4 st5">&lt;25k</text>
			<text transform="matrix(1 0 0 1 1269.8663 331.5418)" class="st3 st4 st5">28%</text>
		</g>
		<g>
			<rect x="1170.7" y="286.6" class="st2" width="38.5" height="28.6"/>
			<text transform="matrix(1 0 0 1 1175.8097 297.5947)" class="st3 st4 st5">&gt;200k</text>
			<text transform="matrix(1 0 0 1 1175.8097 311.0947)" class="st3 st4 st5">4%</text>
		</g>
		<g>
			<rect x="1258.5" y="458.5" class="st2" width="43.1" height="30"/>
			<text transform="matrix(1 0 0 1 1262.089 470.7616)" class="st3 st4 st5">25-50k</text>
			<text transform="matrix(1 0 0 1 1262.089 484.2616)" class="st3 st4 st5">24%</text>
		</g>
		<g>
			<rect x="1144.5" y="460.1" class="st2" width="44" height="28.1"/>
			<text transform="matrix(1 0 0 1 1147.9816 470.8387)" class="st3 st4 st5">50-75k</text>
			<text transform="matrix(1 0 0 1 1147.9816 484.3387)" class="st3 st4 st5">12%</text>
		</g>
		<g>
			<rect x="1126.5" y="320" class="st2" width="50.6" height="29"/>
			<text transform="matrix(1 0 0 1 1129.2921 331.9291)" class="st3 st4 st5">100-150k</text>
			<text transform="matrix(1 0 0 1 1129.2921 345.4291)" class="st3 st4 st5">12%</text>
		</g>
		<g>
			<rect x="1092.1" y="395.3" class="st2" width="47.7" height="29.2"/>
			<text transform="matrix(1 0 0 1 1095.9874 407.1279)" class="st3 st4 st5">75-100k</text>
			<text transform="matrix(1 0 0 1 1095.9874 420.6279)" class="st3 st4 st5">20%</text>
		</g>
		<g>
			<rect x="1010.6" y="733.4" class="st2" width="32.2" height="30.5"/>
			<text transform="matrix(1 0 0 1 1015.2188 745.5643)" class="st3 st4 st5">&lt;25k</text>
			<text transform="matrix(1 0 0 1 1015.2188 759.0643)" class="st3 st4 st5">9%</text>
		</g>
		<g>
			<rect x="832.3" y="518.5" class="st2" width="32.2" height="30.5"/>
			<text transform="matrix(1 0 0 1 836.9085 530.6102)" class="st3 st4 st5">&lt;25k</text>
			<text transform="matrix(1 0 0 1 836.9085 544.1102)" class="st3 st4 st5">17%</text>
		</g>
		<g>
			<rect x="1068.8" y="887.8" class="st2" width="43.1" height="30"/>
			<text transform="matrix(1 0 0 1 1072.4415 900.1074)" class="st3 st4 st5">25-50k</text>
			<text transform="matrix(1 0 0 1 1072.4415 913.6074)" class="st3 st4 st5">55%</text>
		</g>
		<g>
			<rect x="882" y="636.7" class="st2" width="43.1" height="30"/>
			<text transform="matrix(1 0 0 1 885.554 648.9569)" class="st3 st4 st5">25-50k</text>
			<text transform="matrix(1 0 0 1 885.554 662.4569)" class="st3 st4 st5">25%</text>
		</g>
		<g>
			<rect x="892" y="850" class="st2" width="44" height="28.1"/>
			<text transform="matrix(1 0 0 1 895.5235 860.6464)" class="st3 st4 st5">50-75k</text>
			<text transform="matrix(1 0 0 1 895.5235 874.1464)" class="st3 st4 st5">18%</text>
		</g>
		<g>
			<rect x="738.6" y="693" class="st2" width="44" height="28.1"/>
			<text transform="matrix(1 0 0 1 742.2357 703.6865)" class="st3 st4 st5">50-75k</text>
			<text transform="matrix(1 0 0 1 742.2357 717.1865)" class="st3 st4 st5">25%</text>
		</g>
		<g>
			<rect x="919.2" y="747.3" class="st2" width="50.6" height="29"/>
			<text transform="matrix(1 0 0 1 922.0274 759.1611)" class="st3 st4 st5">100-150k</text>
			<text transform="matrix(1 0 0 1 922.0274 772.6611)" class="st3 st4 st5">9%</text>
		</g>
		<g>
			<rect x="702.1" y="528.7" class="st2" width="50.6" height="29"/>
			<text transform="matrix(1 0 0 1 704.7435 540.5858)" class="st3 st4 st5">100-150k</text>
			<text transform="matrix(1 0 0 1 704.7435 554.0858)" class="st3 st4 st5">22%</text>
		</g>
		<g>
			<rect x="682.1" y="621.6" class="st2" width="47.7" height="29.2"/>
			<text transform="matrix(1 0 0 1 685.9622 633.4149)" class="st3 st4 st5">75-100k</text>
			<text transform="matrix(1 0 0 1 685.9622 646.9149)" class="st3 st4 st5">8%</text>
		</g>
		<g>
			<rect x="792.7" y="732.2" class="st6" width="32.2" height="30.5"/>
			<text transform="matrix(1 0 0 1 797.2658 744.3209)" class="st7 st4 st5">&lt;25k</text>
			<text transform="matrix(1 0 0 1 797.2658 757.8209)" class="st7 st4 st5">5%</text>
		</g>
		<g>
			<rect x="867" y="779.6" class="st6" width="43.1" height="30"/>
			<text transform="matrix(1 0 0 1 870.5539 791.8463)" class="st7 st4 st5">25-50k</text>
			<text transform="matrix(1 0 0 1 870.5539 805.3463)" class="st7 st4 st5">22%</text>
		</g>
		<g>
			<rect x="777.6" y="924.7" class="st6" width="44" height="28.1"/>
			<text transform="matrix(1 0 0 1 781.2453 935.3716)" class="st7 st4 st5">50-75k</text>
			<text transform="matrix(1 0 0 1 781.2453 948.8716)" class="st7 st4 st5">44%</text>
		</g>
		<g>
			<rect x="719.8" y="747.4" class="st6" width="50.6" height="29"/>
			<text transform="matrix(1 0 0 1 722.632 759.311)" class="st7 st4 st5">100-150k</text>
			<text transform="matrix(1 0 0 1 722.632 772.811)" class="st7 st4 st5">11%</text>
		</g>
		<g>
			<rect x="741.5" y="788.1" class="st6" width="53.5" height="27.8"/>
			<text transform="matrix(1 0 0 1 744.5012 799.5474)" class="st7 st4 st5">150-200k</text>
			<text transform="matrix(1 0 0 1 744.5012 813.0474)" class="st7 st4 st5">1%</text>
		</g>
		<g>
			<rect x="675.8" y="809.6" class="st6" width="47.7" height="29.2"/>
			<text transform="matrix(1 0 0 1 679.7844 821.4233)" class="st7 st4 st5">75-100k</text>
			<text transform="matrix(1 0 0 1 679.7844 834.9233)" class="st7 st4 st5">17%</text>
		</g>
		<g>
			<rect x="615.6" y="733" class="st2" width="32.2" height="30.5"/>
			<text transform="matrix(1 0 0 1 620.2072 745.1149)" class="st3 st4 st5">&lt;25k</text>
			<text transform="matrix(1 0 0 1 620.2072 758.6149)" class="st3 st4 st5">14%</text>
		</g>
		<g>
			<rect x="668.1" y="851.3" class="st2" width="43.1" height="30"/>
			<text transform="matrix(1 0 0 1 671.7989 863.5798)" class="st3 st4 st5">25-50k</text>
			<text transform="matrix(1 0 0 1 671.7989 877.0798)" class="st3 st4 st5">29%</text>
		</g>
		<g>
			<rect x="563.9" y="910.4" class="st2" width="44" height="28.1"/>
			<text transform="matrix(1 0 0 1 567.4977 921.0621)" class="st3 st4 st5">50-75k</text>
			<text transform="matrix(1 0 0 1 567.4977 934.5621)" class="st3 st4 st5">14%</text>
		</g>
		<g>
			<rect x="487.6" y="752" class="st2" width="50.6" height="29"/>
			<text transform="matrix(1 0 0 1 490.4375 763.907)" class="st3 st4 st5">100-150k</text>
			<text transform="matrix(1 0 0 1 490.4375 777.407)" class="st3 st4 st5">21%</text>
		</g>
		<g>
			<rect x="480.7" y="860.1" class="st2" width="47.7" height="29.2"/>
			<text transform="matrix(1 0 0 1 484.6104 871.9119)" class="st3 st4 st5">75-100k</text>
			<text transform="matrix(1 0 0 1 484.6104 885.4119)" class="st3 st4 st5">21%</text>
		</g>
		<g>
			<rect x="382.1" y="732.2" class="st6" width="32.2" height="30.5"/>
			<text transform="matrix(1 0 0 1 386.7043 744.3329)" class="st7 st4 st5">&lt;25k</text>
			<text transform="matrix(1 0 0 1 386.7043 757.8329)" class="st7 st4 st5">3%</text>
		</g>
		<g>
			<rect x="436.6" y="763.9" class="st6" width="43.1" height="30"/>
			<text transform="matrix(1 0 0 1 440.2884 776.1786)" class="st7 st4 st5">25-50k</text>
			<text transform="matrix(1 0 0 1 440.2884 789.6786)" class="st7 st4 st5">19%</text>
		</g>
		<g>
			<rect x="407.2" y="916.2" class="st6" width="44" height="28.1"/>
			<text transform="matrix(1 0 0 1 410.7742 926.9081)" class="st7 st4 st5">50-75k</text>
			<text transform="matrix(1 0 0 1 410.7742 940.4081)" class="st7 st4 st5">40%</text>
		</g>
		<g>
			<rect x="276.1" y="753.7" class="st6" width="50.6" height="29"/>
			<text transform="matrix(1 0 0 1 278.8094 765.5869)" class="st7 st4 st5">100-150k</text>
			<text transform="matrix(1 0 0 1 278.8094 779.0869)" class="st7 st4 st5">12%</text>
		</g>
		<g>
			<rect x="325.9" y="733.5" class="st6" width="53.5" height="27.8"/>
			<text transform="matrix(1 0 0 1 328.8728 744.9619)" class="st7 st4 st5">150-200k</text>
			<text transform="matrix(1 0 0 1 328.8728 758.4619)" class="st7 st4 st5">2%</text>
		</g>
		<g>
			<rect x="249.7" y="849" class="st6" width="47.7" height="29.2"/>
			<text transform="matrix(1 0 0 1 253.6517 860.8046)" class="st7 st4 st5">75-100k</text>
			<text transform="matrix(1 0 0 1 253.6517 874.3046)" class="st7 st4 st5">26%</text>
		</g>
		<g>
			<rect x="137.5" y="631.4" class="st6" width="38" height="29.9"/>
			<text transform="matrix(1 0 0 1 141.1095 642.4386)" class="st7 st4 st5">&gt;200k</text>
			<text transform="matrix(1 0 0 1 141.1095 655.9386)" class="st7 st4 st5">1%</text>
		</g>
		<g>
			<rect x="220.2" y="600.8" class="st6" width="43.1" height="30"/>
			<text transform="matrix(1 0 0 1 223.9054 613.1046)" class="st7 st4 st5">25-50k</text>
			<text transform="matrix(1 0 0 1 223.9054 626.6046)" class="st7 st4 st5">17%</text>
		</g>
		<g>
			<rect x="215.5" y="682.3" class="st6" width="44" height="28.1"/>
			<text transform="matrix(1 0 0 1 219.1037 693.0192)" class="st7 st4 st5">50-75k</text>
			<text transform="matrix(1 0 0 1 219.1037 706.5192)" class="st7 st4 st5">42%</text>
		</g>
		<g>
			<rect x="78.9" y="614" class="st6" width="50.6" height="29"/>
			<text transform="matrix(1 0 0 1 81.7218 625.8411)" class="st7 st4 st5">100-150k</text>
			<text transform="matrix(1 0 0 1 81.7218 639.3411)" class="st7 st4 st5">14%</text>
		</g>
		<g>
			<rect x="117" y="582.5" class="st6" width="53.5" height="27.8"/>
			<text transform="matrix(1 0 0 1 119.9703 593.9083)" class="st7 st4 st5">150-200k</text>
			<text transform="matrix(1 0 0 1 119.9703 607.4083)" class="st7 st4 st5">2%</text>
		</g>
		<g>
			<rect x="60.8" y="705.4" class="st6" width="47.7" height="29.2"/>
			<text transform="matrix(1 0 0 1 64.7012 717.1467)" class="st7 st4 st5">75-100k</text>
			<text transform="matrix(1 0 0 1 64.7012 730.6467)" class="st7 st4 st5">24%</text>
		</g>
		<g>
			<rect x="177" y="643.9" class="st6" width="32.2" height="30.5"/>
			<text transform="matrix(1 0 0 1 181.6432 656.0784)" class="st7 st4 st5">&lt;25k</text>
			<text transform="matrix(1 0 0 1 181.6432 669.5784)" class="st7 st4 st5">1%</text>
		</g>
		<g>
			<rect x="398.9" y="527.4" class="st2" width="32.2" height="30.5"/>
			<text transform="matrix(1 0 0 1 403.4702 539.5604)" class="st3 st4 st5">&lt;25k</text>
			<text transform="matrix(1 0 0 1 403.4702 553.0604)" class="st3 st4 st5">11%</text>
		</g>
		<g>
			<rect x="460.6" y="617.3" class="st2" width="43.1" height="30"/>
			<text transform="matrix(1 0 0 1 464.2407 629.5438)" class="st3 st4 st5">25-50k</text>
			<text transform="matrix(1 0 0 1 464.2407 643.0438)" class="st3 st4 st5">28%</text>
		</g>
		<g>
			<rect x="316.3" y="702.6" class="st2" width="44" height="28.1"/>
			<text transform="matrix(1 0 0 1 319.8755 713.3339)" class="st3 st4 st5">50-75k</text>
			<text transform="matrix(1 0 0 1 319.8755 726.8339)" class="st3 st4 st5">33%</text>
		</g>
		<g>
			<rect x="328.7" y="575.6" class="st2" width="53" height="28"/>
			<text transform="matrix(1 0 0 1 331.686 587.0184)" class="st3 st4 st5">150-200k</text>
			<text transform="matrix(1 0 0 1 331.686 600.5184)" class="st3 st4 st5">6%</text>
		</g>
		<g>
			<rect x="266.9" y="597.9" class="st2" width="47.7" height="29.2"/>
			<text transform="matrix(1 0 0 1 270.8398 609.703)" class="st3 st4 st5">75-100k</text>
			<text transform="matrix(1 0 0 1 270.8398 623.203)" class="st3 st4 st5">17%</text>
		</g>
		<g>
			<rect x="301.8" y="535.6" class="st2" width="50.6" height="29"/>
			<text transform="matrix(1 0 0 1 304.6059 547.4618)" class="st3 st4 st5">100-150k</text>
			<text transform="matrix(1 0 0 1 304.6059 560.9618)" class="st3 st4 st5">6%</text>
		</g>
		<g>
			<rect x="599.2" y="520.7" class="st6" width="32.2" height="30.5"/>
			<text transform="matrix(1 0 0 1 603.7867 532.8679)" class="st7 st4 st5">&lt;25k</text>
			<text transform="matrix(1 0 0 1 603.7867 546.3679)" class="st7 st4 st5">3%</text>
		</g>
		<g>
			<rect x="656.8" y="559.7" class="st6" width="43.1" height="30"/>
			<text transform="matrix(1 0 0 1 660.5273 572.0271)" class="st7 st4 st5">25-50k</text>
			<text transform="matrix(1 0 0 1 660.5273 585.5271)" class="st7 st4 st5">20%</text>
		</g>
		<g>
			<rect x="645.1" y="698.6" class="st6" width="44" height="28.1"/>
			<text transform="matrix(1 0 0 1 648.6787 709.2723)" class="st7 st4 st5">50-75k</text>
			<text transform="matrix(1 0 0 1 648.6787 722.7723)" class="st7 st4 st5">34%</text>
		</g>
		<g>
			<rect x="540.6" y="520.7" class="st6" width="53.5" height="30.2"/>
			<text transform="matrix(1 0 0 1 543.6631 534.491)" class="st7 st4 st5">150-200k</text>
			<text transform="matrix(1 0 0 1 543.6631 547.991)" class="st7 st4 st5">1%</text>
		</g>
		<g>
			<rect x="487.8" y="557.9" class="st6" width="50.6" height="29"/>
			<text transform="matrix(1 0 0 1 490.5586 569.8064)" class="st7 st4 st5">100-150k</text>
			<text transform="matrix(1 0 0 1 490.5586 583.3064)" class="st7 st4 st5">22%</text>
		</g>
		<g>
			<rect x="486.1" y="668" class="st6" width="47.7" height="29.2"/>
			<text transform="matrix(1 0 0 1 490.0009 679.8212)" class="st7 st4 st5">75-100k</text>
			<text transform="matrix(1 0 0 1 490.0009 693.3212)" class="st7 st4 st5">20%</text>
		</g>
		<g>
			<rect x="765.5" y="555.8" class="st2" width="38.5" height="28.6"/>
			<text transform="matrix(1 0 0 1 770.4407 566.8114)" class="st3 st4 st5">&gt;200k</text>
			<text transform="matrix(1 0 0 1 770.4407 580.3114)" class="st3 st4 st5">3%</text>
		</g>
		<g>
			<rect x="994.6" y="576.8" class="st6" width="32.2" height="30.5"/>
			<text transform="matrix(1 0 0 1 999.2327 588.9877)" class="st7 st4 st5">&lt;25k</text>
			<text transform="matrix(1 0 0 1 999.2327 602.4877)" class="st7 st4 st5">1%</text>
		</g>
		<g>
			<rect x="1073.2" y="568.4" class="st6" width="43.1" height="30"/>
			<text transform="matrix(1 0 0 1 1076.8842 580.7269)" class="st7 st4 st5">25-50k</text>
			<text transform="matrix(1 0 0 1 1076.8842 594.2269)" class="st7 st4 st5">38%</text>
		</g>
		<g>
			<rect x="947.6" y="706.9" class="st6" width="44" height="28.1"/>
			<text transform="matrix(1 0 0 1 951.1888 717.5746)" class="st7 st4 st5">50-75k</text>
			<text transform="matrix(1 0 0 1 951.1888 731.0746)" class="st7 st4 st5">32%</text>
		</g>
		<g>
			<rect x="938.6" y="507.8" class="st6" width="53.5" height="27.8"/>
			<text transform="matrix(1 0 0 1 941.5755 519.2269)" class="st7 st4 st5">150-200k</text>
			<text transform="matrix(1 0 0 1 941.5755 532.7269)" class="st7 st4 st5">1%</text>
		</g>
		<g>
			<rect x="910.3" y="534.6" class="st6" width="50.6" height="29"/>
			<text transform="matrix(1 0 0 1 913.0735 546.4476)" class="st7 st4 st5">100-150k</text>
			<text transform="matrix(1 0 0 1 913.0735 559.9476)" class="st7 st4 st5">11%</text>
		</g>
		<g>
			<rect x="877.2" y="583.5" class="st6" width="47.7" height="29.2"/>
			<text transform="matrix(1 0 0 1 881.0911 595.308)" class="st7 st4 st5">75-100k</text>
			<text transform="matrix(1 0 0 1 881.0911 608.808)" class="st7 st4 st5">17%</text>
		</g>
		<g>
			<rect x="1219.6" y="517.1" class="st2" width="32.2" height="30.5"/>
			<text transform="matrix(1 0 0 1 1224.2241 529.2515)" class="st3 st4 st5">&lt;25k</text>
			<text transform="matrix(1 0 0 1 1224.2241 542.7515)" class="st3 st4 st5">8%</text>
		</g>
		<g>
			<rect x="1172.5" y="570.4" class="st2" width="38.5" height="28.6"/>
			<text transform="matrix(1 0 0 1 1177.4839 581.4419)" class="st3 st4 st5">&gt;200k</text>
			<text transform="matrix(1 0 0 1 1177.4839 594.9419)" class="st3 st4 st5">3%</text>
		</g>
		<g>
			<rect x="1291.5" y="635.6" class="st2" width="43.1" height="30"/>
			<text transform="matrix(1 0 0 1 1295.1255 647.9175)" class="st3 st4 st5">25-50k</text>
			<text transform="matrix(1 0 0 1 1295.1255 661.4175)" class="st3 st4 st5">43%</text>
		</g>
		<g>
			<rect x="1124.5" y="682.1" class="st2" width="44" height="28.1"/>
			<text transform="matrix(1 0 0 1 1127.979 692.7808)" class="st3 st4 st5">50-75k</text>
			<text transform="matrix(1 0 0 1 1127.979 706.2808)" class="st3 st4 st5">19%</text>
		</g>
		<g>
			<rect x="1145.5" y="517.2" class="st2" width="53" height="28"/>
			<text transform="matrix(1 0 0 1 1148.4126 528.6608)" class="st3 st4 st5">150-200k</text>
			<text transform="matrix(1 0 0 1 1148.4126 542.1608)" class="st3 st4 st5">5%</text>
		</g>
		<g>
			<rect x="1091.3" y="601" class="st2" width="47.7" height="29.2"/>
			<text transform="matrix(1 0 0 1 1095.2192 612.7565)" class="st3 st4 st5">75-100k</text>
			<text transform="matrix(1 0 0 1 1095.2192 626.2565)" class="st3 st4 st5">14%</text>
		</g>
		<g>
			<rect x="1117.1" y="544.6" class="st2" width="50.6" height="29"/>
			<text transform="matrix(1 0 0 1 1119.9155 556.4624)" class="st3 st4 st5">100-150k</text>
			<text transform="matrix(1 0 0 1 1119.9155 569.9624)" class="st3 st4 st5">8%</text>
		</g>
	</g>
	<g id="Layer_26_1_">
		<rect class="st8" width="1383.2" height="1080"/>
	</g>
</g>
</svg>
