<?xml version="1.0" encoding="utf-8"?>
<!-- Generator: Adobe Illustrator 21.0.0, SVG Export Plug-In . SVG Version: 6.00 Build 0)  -->
<svg version="1.1" xmlns="http://www.w3.org/2000/svg" xmlns:xlink="http://www.w3.org/1999/xlink" x="0px" y="0px"
	 viewBox="0 0 1463 1080" style="enable-background:new 0 0 1463 1080;" xml:space="preserve">
<style type="text/css">
	.st0{fill:none;stroke:#0043A5;stroke-width:0.5;stroke-miterlimit:10;}
	.st1{fill:none;stroke:#3A2CBF;stroke-width:0.5;stroke-linecap:round;stroke-linejoin:round;stroke-miterlimit:10;}
	.st2{fill:#FCFCFC;stroke:#3A2CBF;stroke-linecap:round;stroke-linejoin:round;stroke-miterlimit:10;}
	.st3{fill:#3A2CBF;}
	.st4{font-family:'CircularStd-Book';}
	.st5{font-size:15.9157px;}
	.st6{fill:#FCFCFC;stroke:#0043A5;stroke-miterlimit:10;}
	.st7{fill:#0043A5;}
</style>
<g id="F_Phil">
</g>
<g id="NF_Phil">
</g>
<g id="F_Bos">
</g>
<g id="NF_Bos">
</g>
<g id="F_Minne">
</g>
<g id="NF_Minne">
</g>
<g id="F_LA">
</g>
<g id="NF_LA">
</g>
<g id="F_DC">
</g>
<g id="NF_DC">
</g>
<g id="F_Aus">
</g>
<g id="NF_Aus">
</g>
<g id="F_Sea">
</g>
<g id="NF_Sea">
</g>
<g id="F_Chic">
</g>
<g id="NF_Chic">
</g>
<g id="F_SF">
</g>
<g id="NF_SF">
</g>
<g id="F_NY">
</g>
<g id="NF_NY">
</g>
<g id="Layer_21">
	<g id="Layer_24">
		<g>
			<rect x="433.3" y="209.7" class="st2" width="113.4" height="24.7"/>
			<text transform="matrix(1 0 0 1 441.214 227.7949)" class="st3 st4 st5">78% Satisfied</text>
		</g>
		<g>
			<rect x="433.3" y="861.3" class="st2" width="114.3" height="24.7"/>
			<text transform="matrix(1 0 0 1 443.6627 879.4496)" class="st3 st4 st5">79% Satisfied</text>
		</g>
		<g>
			<rect x="842.2" y="209.7" class="st2" width="107.8" height="24.7"/>
			<text transform="matrix(1 0 0 1 850.1294 227.7948)" class="st3 st4 st5">81% Satisfied</text>
		</g>
		<g>
			<rect x="225.8" y="427.4" class="st2" width="112.4" height="24.7"/>
			<text transform="matrix(1 0 0 1 233.7461 445.4878)" class="st3 st4 st5">80% Satisfied</text>
		</g>
		<g>
			<rect x="635.1" y="427.4" class="st2" width="113.9" height="24.7"/>
			<text transform="matrix(1 0 0 1 642.9938 445.4878)" class="st3 st4 st5">83% Satisfied</text>
		</g>
		<g>
			<rect x="1046.5" y="427.4" class="st2" width="112.6" height="24.7"/>
			<text transform="matrix(1 0 0 1 1054.3806 445.4878)" class="st3 st4 st5">86% Satisfied</text>
		</g>
		<g>
			<rect x="225.8" y="643" class="st2" width="114" height="24.7"/>
			<g>
				<text transform="matrix(1 0 0 1 233.9486 660.9297)" class="st3 st4 st5">85% Satisfied</text>
			</g>
		</g>
		<g>
			<rect x="635.1" y="643" class="st2" width="111.9" height="24.7"/>
			<text transform="matrix(1 0 0 1 642.9948 661.1582)" class="st3 st4 st5">82% Satisfied</text>
		</g>
		<g>
			<rect x="1046.5" y="643" class="st2" width="112.9" height="24.7"/>
			<text transform="matrix(1 0 0 1 1055.6049 661.1582)" class="st3 st4 st5">85% Satisfied</text>
		</g>
		<g>
			<rect x="842.2" y="860.1" class="st2" width="108.3" height="24.7"/>
			<text transform="matrix(1 0 0 1 850.1299 878.226)" class="st3 st4 st5">81% Satisfied</text>
		</g>
		<g>
			<rect x="635.1" y="209.7" class="st6" width="107.8" height="24.7"/>
			<text transform="matrix(1 0 0 1 640.5458 227.7949)" class="st7 st4 st5">72% Satisfied</text>
		</g>
		<g>
			<rect x="635.1" y="859.8" class="st6" width="110.2" height="24.7"/>
			<text transform="matrix(1 0 0 1 642.9941 877.9261)" class="st7 st4 st5">81% Satisfied</text>
		</g>
		<g>
			<rect x="1046.5" y="209.7" class="st6" width="107.8" height="24.7"/>
			<text transform="matrix(1 0 0 1 1054.3806 227.7946)" class="st7 st4 st5">74% Satisfied</text>
		</g>
		<g>
			<rect x="433.3" y="427.4" class="st6" width="109.6" height="24.7"/>
			<text transform="matrix(1 0 0 1 441.2139 445.4878)" class="st7 st4 st5">67% Satisfied</text>
		</g>
		<g>
			<rect x="842.2" y="427.4" class="st6" width="113.4" height="24.7"/>
			<text transform="matrix(1 0 0 1 850.1292 445.4878)" class="st7 st4 st5">80% Satisfied</text>
		</g>
		<g>
			<rect x="1267.4" y="427.4" class="st6" width="112.3" height="24.7"/>
			<text transform="matrix(1 0 0 1 1275.2772 445.4878)" class="st7 st4 st5">86% Satisfied</text>
		</g>
		<g>
			<rect x="842.2" y="643" class="st6" width="111.4" height="24.7"/>
			<text transform="matrix(1 0 0 1 848.9055 661.1579)" class="st7 st4 st5">78% Satisfied</text>
		</g>
		<g>
			<rect x="1267.4" y="641.3" class="st6" width="110.9" height="24.7"/>
			<text transform="matrix(1 0 0 1 1276.5006 659.4063)" class="st7 st4 st5">85% Satisfied</text>
		</g>
		<g>
			<rect x="1046.5" y="858.6" class="st6" width="109.2" height="24.7"/>
			<text transform="matrix(1 0 0 1 1054.3813 876.7015)" class="st7 st4 st5">81% Satisfied</text>
		</g>
		<g>
			<rect x="433.3" y="643" class="st6" width="109.8" height="24.7"/>
			<text transform="matrix(1 0 0 1 440.8259 661.1579)" class="st7 st4 st5">89% Satisfied</text>
		</g>
	</g>
</g>
</svg>
